%TF.GenerationSoftware,KiCad,Pcbnew,(6.0.0)*%
%TF.CreationDate,2022-04-10T16:10:43-06:00*%
%TF.ProjectId,USB_curve_tracer,5553425f-6375-4727-9665-5f7472616365,rev?*%
%TF.SameCoordinates,Original*%
%TF.FileFunction,Soldermask,Top*%
%TF.FilePolarity,Negative*%
%FSLAX46Y46*%
G04 Gerber Fmt 4.6, Leading zero omitted, Abs format (unit mm)*
G04 Created by KiCad (PCBNEW (6.0.0)) date 2022-04-10 16:10:43*
%MOMM*%
%LPD*%
G01*
G04 APERTURE LIST*
G04 Aperture macros list*
%AMRoundRect*
0 Rectangle with rounded corners*
0 $1 Rounding radius*
0 $2 $3 $4 $5 $6 $7 $8 $9 X,Y pos of 4 corners*
0 Add a 4 corners polygon primitive as box body*
4,1,4,$2,$3,$4,$5,$6,$7,$8,$9,$2,$3,0*
0 Add four circle primitives for the rounded corners*
1,1,$1+$1,$2,$3*
1,1,$1+$1,$4,$5*
1,1,$1+$1,$6,$7*
1,1,$1+$1,$8,$9*
0 Add four rect primitives between the rounded corners*
20,1,$1+$1,$2,$3,$4,$5,0*
20,1,$1+$1,$4,$5,$6,$7,0*
20,1,$1+$1,$6,$7,$8,$9,0*
20,1,$1+$1,$8,$9,$2,$3,0*%
G04 Aperture macros list end*
%ADD10R,1.905000X2.000000*%
%ADD11O,1.905000X2.000000*%
%ADD12O,1.500000X1.050000*%
%ADD13R,1.500000X1.050000*%
%ADD14C,0.800000*%
%ADD15C,6.400000*%
%ADD16C,1.600000*%
%ADD17O,1.600000X1.600000*%
%ADD18R,2.200000X2.200000*%
%ADD19O,2.200000X2.200000*%
%ADD20RoundRect,0.250001X-0.462499X-0.624999X0.462499X-0.624999X0.462499X0.624999X-0.462499X0.624999X0*%
%ADD21RoundRect,0.150000X-0.825000X-0.150000X0.825000X-0.150000X0.825000X0.150000X-0.825000X0.150000X0*%
%ADD22R,1.600000X1.600000*%
%ADD23R,2.300000X2.300000*%
%ADD24C,2.300000*%
%ADD25R,1.700000X1.700000*%
%ADD26O,1.700000X1.700000*%
%ADD27C,1.700000*%
%ADD28C,3.500000*%
%ADD29RoundRect,0.150000X0.512500X0.150000X-0.512500X0.150000X-0.512500X-0.150000X0.512500X-0.150000X0*%
%ADD30R,2.600000X2.600000*%
%ADD31C,2.600000*%
%ADD32R,3.500000X1.800000*%
G04 APERTURE END LIST*
D10*
%TO.C,Q3*%
X126180000Y-65020000D03*
D11*
X123640000Y-65020000D03*
X121100000Y-65020000D03*
%TD*%
D12*
%TO.C,Q2*%
X170560000Y-93400000D03*
X170560000Y-92130000D03*
D13*
X170560000Y-94670000D03*
%TD*%
D12*
%TO.C,Q1*%
X148660000Y-80500000D03*
X148660000Y-79230000D03*
D13*
X148660000Y-81770000D03*
%TD*%
D14*
%TO.C,H2*%
X179397056Y-58617944D03*
X177700000Y-62715000D03*
X176002944Y-58617944D03*
X180100000Y-60315000D03*
D15*
X177700000Y-60315000D03*
D14*
X176002944Y-62012056D03*
X177700000Y-57915000D03*
X175300000Y-60315000D03*
X179397056Y-62012056D03*
%TD*%
D16*
%TO.C,R6*%
X104890000Y-87315000D03*
D17*
X112510000Y-87315000D03*
%TD*%
D18*
%TO.C,D3*%
X114000000Y-121190000D03*
D19*
X114000000Y-128810000D03*
%TD*%
D20*
%TO.C,D5*%
X99112500Y-103920000D03*
X102087500Y-103920000D03*
%TD*%
D16*
%TO.C,R22*%
X132090000Y-76300000D03*
D17*
X139710000Y-76300000D03*
%TD*%
D21*
%TO.C,U2*%
X124705000Y-119410000D03*
X124705000Y-120680000D03*
X124705000Y-121950000D03*
X124705000Y-123220000D03*
X124705000Y-124490000D03*
X124705000Y-125760000D03*
X124705000Y-127030000D03*
X129655000Y-127030000D03*
X129655000Y-125760000D03*
X129655000Y-124490000D03*
X129655000Y-123220000D03*
X129655000Y-121950000D03*
X129655000Y-120680000D03*
X129655000Y-119410000D03*
%TD*%
D16*
%TO.C,R2*%
X146080000Y-110510000D03*
D17*
X146080000Y-118130000D03*
%TD*%
D22*
%TO.C,U8*%
X136380000Y-93920000D03*
D17*
X136380000Y-96460000D03*
X136380000Y-99000000D03*
X136380000Y-101540000D03*
X144000000Y-101540000D03*
X144000000Y-99000000D03*
X144000000Y-96460000D03*
X144000000Y-93920000D03*
%TD*%
D16*
%TO.C,R15*%
X166600000Y-100400000D03*
D17*
X158980000Y-100400000D03*
%TD*%
D16*
%TO.C,R4*%
X137600000Y-122525000D03*
D17*
X137600000Y-114905000D03*
%TD*%
D23*
%TO.C,K2*%
X178400000Y-85700000D03*
D24*
X178400000Y-75540000D03*
X178400000Y-67920000D03*
X170780000Y-70460000D03*
X170780000Y-85700000D03*
%TD*%
D16*
%TO.C,R13*%
X117000000Y-63415000D03*
D17*
X109380000Y-63415000D03*
%TD*%
D22*
%TO.C,D11*%
X145300000Y-67890000D03*
D17*
X145300000Y-75510000D03*
%TD*%
D16*
%TO.C,C10*%
X163400000Y-108015000D03*
X158400000Y-108015000D03*
%TD*%
D18*
%TO.C,D1*%
X118480000Y-78815000D03*
D19*
X108320000Y-78815000D03*
%TD*%
D20*
%TO.C,F1*%
X113812500Y-115615000D03*
X116787500Y-115615000D03*
%TD*%
D16*
%TO.C,C2*%
X132800000Y-121815000D03*
X132800000Y-126815000D03*
%TD*%
%TO.C,R29*%
X144000000Y-87415000D03*
D17*
X136380000Y-87415000D03*
%TD*%
D14*
%TO.C,H3*%
X99397056Y-125617944D03*
X96002944Y-129012056D03*
D15*
X97700000Y-127315000D03*
D14*
X99397056Y-129012056D03*
X95300000Y-127315000D03*
X100100000Y-127315000D03*
X97700000Y-124915000D03*
X96002944Y-125617944D03*
X97700000Y-129715000D03*
%TD*%
D16*
%TO.C,C3*%
X129600000Y-116915000D03*
X124600000Y-116915000D03*
%TD*%
%TO.C,R25*%
X164100000Y-86710000D03*
D17*
X164100000Y-79090000D03*
%TD*%
D16*
%TO.C,R14*%
X136390000Y-80500000D03*
D17*
X144010000Y-80500000D03*
%TD*%
D18*
%TO.C,D10*%
X159500000Y-89600000D03*
D19*
X159500000Y-97220000D03*
%TD*%
D16*
%TO.C,R8*%
X116700000Y-105325000D03*
D17*
X116700000Y-97705000D03*
%TD*%
D14*
%TO.C,H1*%
X100100000Y-60315000D03*
X99397056Y-58617944D03*
D15*
X97700000Y-60315000D03*
D14*
X97700000Y-57915000D03*
X96002944Y-62012056D03*
X96002944Y-58617944D03*
X95300000Y-60315000D03*
X97700000Y-62715000D03*
X99397056Y-62012056D03*
%TD*%
D13*
%TO.C,U1*%
X142140000Y-121790000D03*
D12*
X142140000Y-120520000D03*
X142140000Y-119250000D03*
%TD*%
D16*
%TO.C,R10*%
X104890000Y-103020000D03*
D17*
X112510000Y-103020000D03*
%TD*%
D23*
%TO.C,K1*%
X148700000Y-75500000D03*
D24*
X158860000Y-75500000D03*
X166480000Y-75500000D03*
X163940000Y-67880000D03*
X148700000Y-67880000D03*
%TD*%
D25*
%TO.C,J2*%
X101700000Y-84720000D03*
D26*
X99160000Y-84720000D03*
X101700000Y-87260000D03*
X99160000Y-87260000D03*
X101700000Y-89800000D03*
X99160000Y-89800000D03*
%TD*%
D25*
%TO.C,J3*%
X110080000Y-115670000D03*
D27*
X110080000Y-113170000D03*
X108080000Y-113170000D03*
X108080000Y-115670000D03*
D28*
X105370000Y-120440000D03*
X105370000Y-108400000D03*
%TD*%
D22*
%TO.C,U7*%
X158100000Y-112515000D03*
D17*
X158100000Y-115055000D03*
X158100000Y-117595000D03*
X158100000Y-120135000D03*
X165720000Y-120135000D03*
X165720000Y-117595000D03*
X165720000Y-115055000D03*
X165720000Y-112515000D03*
%TD*%
D16*
%TO.C,C11*%
X152700000Y-92800000D03*
X152700000Y-87800000D03*
%TD*%
%TO.C,R28*%
X156000000Y-94510000D03*
D17*
X156000000Y-86890000D03*
%TD*%
D18*
%TO.C,D4*%
X151050000Y-124015000D03*
D19*
X158670000Y-124015000D03*
%TD*%
D16*
%TO.C,R3*%
X145980000Y-120520000D03*
D17*
X145980000Y-128140000D03*
%TD*%
D16*
%TO.C,R24*%
X154800000Y-107405000D03*
D17*
X154800000Y-115025000D03*
%TD*%
D18*
%TO.C,D2*%
X118400000Y-121190000D03*
D19*
X118400000Y-128810000D03*
%TD*%
D16*
%TO.C,C1*%
X118500000Y-70115000D03*
X118500000Y-75115000D03*
%TD*%
D22*
%TO.C,U3*%
X121080000Y-86695000D03*
D17*
X121080000Y-89235000D03*
X121080000Y-91775000D03*
X121080000Y-94315000D03*
X121080000Y-96855000D03*
X121080000Y-99395000D03*
X121080000Y-101935000D03*
X121080000Y-104475000D03*
X121080000Y-107015000D03*
X121080000Y-109555000D03*
X128700000Y-109555000D03*
X128700000Y-107015000D03*
X128700000Y-104475000D03*
X128700000Y-101935000D03*
X128700000Y-99395000D03*
X128700000Y-96855000D03*
X128700000Y-94315000D03*
X128700000Y-91775000D03*
X128700000Y-89235000D03*
X128700000Y-86695000D03*
%TD*%
D16*
%TO.C,R27*%
X151600000Y-103625000D03*
D17*
X151600000Y-96005000D03*
%TD*%
D16*
%TO.C,R9*%
X117800000Y-94325000D03*
D17*
X117800000Y-86705000D03*
%TD*%
D16*
%TO.C,R1*%
X149480000Y-118130000D03*
D17*
X149480000Y-110510000D03*
%TD*%
D25*
%TO.C,J4*%
X164950000Y-59825000D03*
D26*
X162410000Y-59825000D03*
%TD*%
D16*
%TO.C,R5*%
X104900000Y-84015000D03*
D17*
X112520000Y-84015000D03*
%TD*%
D29*
%TO.C,U5*%
X115237500Y-73465000D03*
X115237500Y-72515000D03*
X115237500Y-71565000D03*
X112962500Y-71565000D03*
X112962500Y-73465000D03*
%TD*%
D14*
%TO.C,H4*%
X175300000Y-127315000D03*
X177700000Y-124915000D03*
X180100000Y-127315000D03*
X176002944Y-129012056D03*
X179397056Y-125617944D03*
D15*
X177700000Y-127315000D03*
D14*
X176002944Y-125617944D03*
X177700000Y-129715000D03*
X179397056Y-129012056D03*
%TD*%
D16*
%TO.C,R16*%
X126400000Y-77325000D03*
D17*
X126400000Y-69705000D03*
%TD*%
D18*
%TO.C,D9*%
X136900000Y-104715000D03*
D19*
X136900000Y-112335000D03*
%TD*%
D22*
%TO.C,D12*%
X178410000Y-89200000D03*
D17*
X170790000Y-89200000D03*
%TD*%
D16*
%TO.C,C7*%
X110300000Y-68215000D03*
X110300000Y-73215000D03*
%TD*%
%TO.C,R11*%
X104890000Y-99520000D03*
D17*
X112510000Y-99520000D03*
%TD*%
D20*
%TO.C,D6*%
X99112500Y-99920000D03*
X102087500Y-99920000D03*
%TD*%
D16*
%TO.C,R26*%
X159400000Y-86910000D03*
D17*
X159400000Y-79290000D03*
%TD*%
D16*
%TO.C,C4*%
X123700000Y-83400000D03*
X128700000Y-83400000D03*
%TD*%
%TO.C,R12*%
X104890000Y-96020000D03*
D17*
X112510000Y-96020000D03*
%TD*%
D16*
%TO.C,R7*%
X104890000Y-90615000D03*
D17*
X112510000Y-90615000D03*
%TD*%
D30*
%TO.C,J1*%
X99700000Y-70315000D03*
D31*
X99700000Y-75395000D03*
%TD*%
D16*
%TO.C,C13*%
X143980000Y-90620000D03*
X138980000Y-90620000D03*
%TD*%
D20*
%TO.C,D7*%
X99112500Y-95520000D03*
X102087500Y-95520000D03*
%TD*%
D32*
%TO.C,D8*%
X161370000Y-63825000D03*
X166370000Y-63825000D03*
%TD*%
D16*
%TO.C,R18*%
X135400000Y-65790000D03*
D17*
X135400000Y-73410000D03*
%TD*%
D16*
%TO.C,C12*%
X148200000Y-92715000D03*
X148200000Y-87715000D03*
%TD*%
%TO.C,R19*%
X132100000Y-65790000D03*
D17*
X132100000Y-73410000D03*
%TD*%
M02*
