M48
; DRILL file {KiCad (6.0.0)} date Sun Apr 10 16:11:02 2022
; FORMAT={-:-/ absolute / inch / decimal}
; #@! TF.CreationDate,2022-04-10T16:11:02-06:00
; #@! TF.GenerationSoftware,Kicad,Pcbnew,(6.0.0)
; #@! TF.FileFunction,MixedPlating,1,2
FMAT,2
INCH
; #@! TA.AperFunction,Plated,PTH,ViaDrill
T1C0.0157
; #@! TA.AperFunction,Plated,PTH,ComponentDrill
T2C0.0197
; #@! TA.AperFunction,Plated,PTH,ComponentDrill
T3C0.0295
; #@! TA.AperFunction,Plated,PTH,ComponentDrill
T4C0.0315
; #@! TA.AperFunction,Plated,PTH,ComponentDrill
T5C0.0362
; #@! TA.AperFunction,Plated,PTH,ComponentDrill
T6C0.0394
; #@! TA.AperFunction,Plated,PTH,ComponentDrill
T7C0.0433
; #@! TA.AperFunction,Plated,PTH,ComponentDrill
T8C0.0512
; #@! TA.AperFunction,Plated,PTH,ComponentDrill
T9C0.0917
; #@! TA.AperFunction,Plated,PTH,ComponentDrill
T10C0.1260
%
G90
G05
T1
X3.9016Y-4.2093
X4.4921Y-2.9455
X4.8307Y-4.7913
X4.8425Y-3.7047
X4.8937Y-3.7441
X4.9291Y-4.0157
X5.0Y-4.2638
X5.1614Y-3.5472
X5.1732Y-4.7014
X5.2323Y-4.063
X5.2717Y-4.3386
X5.4803Y-4.2486
X5.5492Y-4.2486
X5.6969Y-4.1142
X5.7402Y-4.1693
X5.8071Y-3.8037
X5.8071Y-4.2126
X5.8268Y-3.847
X5.8346Y-4.036
X5.8622Y-3.9843
X5.9449Y-4.1974
X6.2953Y-4.6457
X6.3307Y-4.5281
T2
X3.752Y-2.3746
X3.752Y-5.0124
X3.7796Y-2.3078
X3.7796Y-2.4414
X3.7796Y-4.9456
X3.7796Y-5.0792
X3.8465Y-2.2801
X3.8465Y-2.4691
X3.8465Y-4.9179
X3.8465Y-5.1069
X3.9133Y-2.3078
X3.9133Y-2.4414
X3.9133Y-4.9456
X3.9133Y-5.0792
X3.9409Y-2.3746
X3.9409Y-5.0124
X6.9016Y-2.3746
X6.9016Y-5.0124
X6.9292Y-2.3078
X6.9292Y-2.4414
X6.9292Y-4.9456
X6.9292Y-5.0792
X6.9961Y-2.2801
X6.9961Y-2.4691
X6.9961Y-4.9179
X6.9961Y-5.1069
X7.0629Y-2.3078
X7.0629Y-2.4414
X7.0629Y-4.9456
X7.0629Y-5.0792
X7.0906Y-2.3746
X7.0906Y-5.0124
T3
X5.5961Y-4.6949
X5.5961Y-4.7449
X5.5961Y-4.7949
X5.8528Y-3.1193
X5.8528Y-3.1693
X5.8528Y-3.2193
X6.715Y-3.6272
X6.715Y-3.6772
X6.715Y-3.7272
T4
X4.1295Y-3.4376
X4.1295Y-3.5675
X4.1295Y-3.7803
X4.1295Y-3.9181
X4.1295Y-4.0559
X4.1299Y-3.3077
X4.3063Y-2.4967
X4.3425Y-2.6856
X4.3425Y-2.8825
X4.4295Y-3.4376
X4.4295Y-3.5675
X4.4295Y-3.7803
X4.4295Y-3.9181
X4.4295Y-4.0559
X4.4299Y-3.3077
X4.5945Y-3.8467
X4.5945Y-4.1467
X4.6063Y-2.4967
X4.6378Y-3.4136
X4.6378Y-3.7136
X4.6654Y-2.7604
X4.6654Y-2.9573
X4.7669Y-3.4132
X4.7669Y-3.5132
X4.7669Y-3.6132
X4.7669Y-3.7132
X4.7669Y-3.8132
X4.7669Y-3.9132
X4.7669Y-4.0132
X4.7669Y-4.1132
X4.7669Y-4.2132
X4.7669Y-4.3132
X4.8701Y-3.2835
X4.9055Y-4.603
X4.9764Y-2.7443
X4.9764Y-3.0443
X5.0669Y-3.2835
X5.0669Y-3.4132
X5.0669Y-3.5132
X5.0669Y-3.6132
X5.0669Y-3.7132
X5.0669Y-3.8132
X5.0669Y-3.9132
X5.0669Y-4.0132
X5.0669Y-4.1132
X5.0669Y-4.2132
X5.0669Y-4.3132
X5.1024Y-4.603
X5.2004Y-3.0039
X5.2008Y-2.5902
X5.2008Y-2.8902
X5.2283Y-4.7959
X5.2283Y-4.9927
X5.3307Y-2.5902
X5.3307Y-2.8902
X5.3693Y-3.4415
X5.3693Y-3.6976
X5.3693Y-3.7976
X5.3693Y-3.8976
X5.3693Y-3.9976
X5.3697Y-3.1693
X5.4173Y-4.5238
X5.4173Y-4.8238
X5.4717Y-3.5677
X5.5004Y-3.0039
X5.6685Y-3.5677
X5.6693Y-3.4415
X5.6693Y-3.6976
X5.6693Y-3.7976
X5.6693Y-3.8976
X5.6693Y-3.9976
X5.6697Y-3.1693
X5.7205Y-2.6728
X5.7205Y-2.9728
X5.7472Y-4.7449
X5.7472Y-5.0449
X5.7512Y-4.3508
X5.7512Y-4.6508
X5.8346Y-3.4533
X5.8346Y-3.6502
X5.885Y-4.3508
X5.885Y-4.6508
X5.9685Y-3.7797
X5.9685Y-4.0797
X6.0118Y-3.4567
X6.0118Y-3.6535
X6.0945Y-4.2285
X6.0945Y-4.5285
X6.1417Y-3.4209
X6.1417Y-3.7209
X6.2244Y-4.4297
X6.2244Y-4.5297
X6.2244Y-4.6297
X6.2244Y-4.7297
X6.2362Y-4.2526
X6.2591Y-3.9528
X6.2756Y-3.1217
X6.2756Y-3.4217
X6.4331Y-4.2526
X6.4606Y-3.1138
X6.4606Y-3.4138
X6.5244Y-4.4297
X6.5244Y-4.5297
X6.5244Y-4.6297
X6.5244Y-4.7297
X6.5591Y-3.9528
X6.724Y-3.5118
X7.024Y-3.5118
T5
X4.2551Y-4.4555
X4.2551Y-4.5539
X4.3339Y-4.4555
X4.3339Y-4.5539
T6
X3.9039Y-3.3354
X3.9039Y-3.4354
X3.9039Y-3.5354
X4.0039Y-3.3354
X4.0039Y-3.4354
X4.0039Y-3.5354
X6.3941Y-2.3553
X6.4941Y-2.3553
T7
X4.2646Y-3.103
X4.4882Y-4.7713
X4.4882Y-5.0713
X4.6614Y-4.7713
X4.6614Y-5.0713
X4.6646Y-3.103
X4.7677Y-2.5598
X4.8677Y-2.5598
X4.9677Y-2.5598
X5.3898Y-4.1226
X5.3898Y-4.4226
X5.9469Y-4.8825
X6.2469Y-4.8825
X6.2795Y-3.5276
X6.2795Y-3.8276
T8
X3.9252Y-2.7683
X3.9252Y-2.9683
X5.8543Y-2.6724
X5.8543Y-2.9724
X6.2543Y-2.9724
X6.4543Y-2.6724
X6.5543Y-2.9724
X6.7236Y-2.774
X6.7236Y-3.374
X7.0236Y-2.674
X7.0236Y-2.974
X7.0236Y-3.374
T9
X4.1484Y-4.2677
X4.1484Y-4.7417
T10
X3.8465Y-2.3746
X3.8465Y-5.0124
X6.9961Y-2.3746
X6.9961Y-5.0124
T0
M30
