M48
; DRILL file {KiCad 7.0.1} date Sun Aug 13 16:19:20 2023
; FORMAT={-:-/ absolute / inch / decimal}
; #@! TF.CreationDate,2023-08-13T16:19:20-06:00
; #@! TF.GenerationSoftware,Kicad,Pcbnew,7.0.1
; #@! TF.FileFunction,MixedPlating,1,2
FMAT,2
INCH
; #@! TA.AperFunction,Plated,PTH,ViaDrill
T1C0.0157
; #@! TA.AperFunction,Plated,PTH,ComponentDrill
T2C0.0197
; #@! TA.AperFunction,Plated,PTH,ComponentDrill
T3C0.0295
; #@! TA.AperFunction,Plated,PTH,ComponentDrill
T4C0.0315
; #@! TA.AperFunction,Plated,PTH,ComponentDrill
T5C0.0354
; #@! TA.AperFunction,Plated,PTH,ComponentDrill
T6C0.0394
; #@! TA.AperFunction,Plated,PTH,ComponentDrill
T7C0.0433
; #@! TA.AperFunction,Plated,PTH,ComponentDrill
T8C0.0472
; #@! TA.AperFunction,Plated,PTH,ComponentDrill
T9C0.0512
; #@! TA.AperFunction,Plated,PTH,ComponentDrill
T10C0.1260
%
G90
G05
T1
X4.0904Y-3.7226
X4.1613Y-3.7934
X4.315Y-4.3465
X4.315Y-4.4567
X4.3611Y-4.4502
X4.366Y-4.3699
X4.4666Y-4.5435
X4.5432Y-4.5415
X4.563Y-3.2874
X4.563Y-3.3661
X4.9252Y-3.8386
X4.933Y-3.6674
X4.9959Y-3.7344
X5.0227Y-3.8506
X5.2007Y-4.3328
X5.4291Y-3.4094
X5.5787Y-4.3307
X5.6417Y-3.3898
X5.6535Y-3.2638
X5.6575Y-4.3307
X5.7047Y-3.5433
X5.7323Y-3.6772
X5.7441Y-3.7874
X5.8268Y-4.6496
X5.9724Y-4.6614
X5.9961Y-4.8504
X6.0236Y-4.5866
X6.1969Y-4.6575
X6.2992Y-4.1693
X6.5039Y-4.5945
X6.8465Y-3.3819
X6.9016Y-4.3268
X6.9449Y-4.4409
X6.9685Y-3.248
X7.4814Y-3.5987
X7.5365Y-3.5476
T2
X3.3307Y-2.874
X3.3307Y-5.0787
X3.3584Y-2.8072
X3.3584Y-2.9408
X3.3584Y-5.0119
X3.3584Y-5.1456
X3.4252Y-2.7795
X3.4252Y-2.9685
X3.4252Y-4.9843
X3.4252Y-5.1732
X3.492Y-2.8072
X3.492Y-2.9408
X3.492Y-5.0119
X3.492Y-5.1456
X3.5197Y-2.874
X3.5197Y-5.0787
X7.622Y-2.874
X7.622Y-5.0787
X7.6497Y-2.8072
X7.6497Y-2.9408
X7.6497Y-5.0119
X7.6497Y-5.1456
X7.7165Y-2.7795
X7.7165Y-2.9685
X7.7165Y-4.9843
X7.7165Y-5.1732
X7.7833Y-2.8072
X7.7833Y-2.9408
X7.7833Y-5.0119
X7.7833Y-5.1456
X7.811Y-2.874
X7.811Y-5.0787
T3
X6.0839Y-3.4449
X6.1339Y-3.4449
X6.1839Y-3.4449
T4
X4.2243Y-4.2125
X4.2243Y-4.4094
X4.4121Y-3.7401
X4.413Y-3.6102
X4.4999Y-4.1216
X4.4999Y-4.4216
X4.5034Y-3.9548
X4.6877Y-4.1216
X4.6877Y-4.4216
X4.7003Y-3.9548
X4.7121Y-3.7401
X4.713Y-3.6102
X4.7637Y-4.5332
X4.7637Y-4.8332
X4.8137Y-3.6367
X4.8137Y-3.7367
X4.8137Y-3.8367
X4.8137Y-3.9367
X4.8137Y-4.0367
X4.8137Y-4.1367
X4.8137Y-4.2367
X4.8137Y-4.3942
X4.9645Y-3.2029
X4.9645Y-3.5029
X5.0105Y-4.3942
X5.1137Y-3.6367
X5.1137Y-3.7367
X5.1137Y-3.8367
X5.1137Y-3.9367
X5.1137Y-4.0367
X5.1137Y-4.1367
X5.1137Y-4.2367
X5.2499Y-3.9842
X5.2499Y-4.1141
X5.2499Y-4.244
X5.2507Y-3.7265
X5.2511Y-3.6005
X5.2511Y-3.8564
X5.5459Y-3.169
X5.5459Y-3.469
X5.5499Y-3.9842
X5.5499Y-4.1141
X5.5499Y-4.244
X5.5507Y-3.7265
X5.5511Y-3.6005
X5.5511Y-3.8564
X5.8318Y-3.0078
X5.8318Y-3.3078
X5.9287Y-4.7402
X5.9315Y-4.0593
X5.9327Y-3.6535
X5.9327Y-3.811
X5.9327Y-3.9331
X5.9327Y-4.189
X5.9362Y-4.4488
X5.9366Y-4.3228
X5.9366Y-4.5787
X5.9538Y-3.0078
X5.9538Y-3.3078
X6.0837Y-3.0078
X6.0837Y-3.3078
X6.2111Y-3.0074
X6.2111Y-3.3074
X6.2287Y-4.7402
X6.2315Y-4.0593
X6.2327Y-3.6535
X6.2327Y-3.811
X6.2327Y-3.9331
X6.2327Y-4.189
X6.2362Y-4.4488
X6.2366Y-4.3228
X6.2366Y-4.5787
X6.3422Y-3.0074
X6.3422Y-3.3074
X6.3539Y-4.7638
X6.3542Y-3.4877
X6.3542Y-3.5877
X6.3542Y-3.6877
X6.3542Y-3.7877
X6.3542Y-3.8877
X6.3542Y-3.9877
X6.3542Y-4.0877
X6.3542Y-4.2863
X6.3542Y-4.3863
X6.3542Y-4.4863
X6.3542Y-4.5863
X6.4761Y-3.0072
X6.4761Y-3.3072
X6.6099Y-3.0074
X6.6099Y-3.3074
X6.6539Y-4.7638
X6.6542Y-3.4877
X6.6542Y-3.5877
X6.6542Y-3.6877
X6.6542Y-3.7877
X6.6542Y-3.8877
X6.6542Y-3.9877
X6.6542Y-4.0877
X6.6542Y-4.2863
X6.6542Y-4.3863
X6.6542Y-4.4863
X6.6542Y-4.5863
X6.6811Y-2.8346
X6.7412Y-3.0082
X6.7412Y-3.3082
X6.7479Y-5.042
X6.7794Y-3.4926
X6.7794Y-3.6895
X6.7794Y-4.2981
X6.7794Y-4.495
X6.878Y-2.8346
X6.879Y-3.0074
X6.879Y-3.3074
X7.0479Y-5.042
T5
X6.1967Y-4.9633
X6.1967Y-5.0633
X6.5511Y-4.9633
X6.5511Y-5.0633
T6
X7.055Y-3.2911
X7.055Y-3.3911
X7.055Y-3.4911
X7.055Y-3.5911
X7.055Y-3.6911
X7.055Y-3.7911
X7.055Y-3.8911
X7.055Y-3.9911
X7.055Y-4.0911
X7.055Y-4.1911
X7.055Y-4.2911
X7.055Y-4.3911
X7.055Y-4.4911
X7.055Y-4.5911
X7.055Y-4.6911
X7.655Y-3.2911
X7.655Y-3.3911
X7.655Y-3.4911
X7.655Y-3.5911
X7.655Y-3.6911
X7.655Y-3.7911
X7.655Y-3.8911
X7.655Y-3.9911
X7.655Y-4.0911
X7.655Y-4.1911
X7.655Y-4.2911
X7.655Y-4.3911
X7.655Y-4.4911
X7.655Y-4.5911
X7.655Y-4.6911
T7
X4.3678Y-2.9296
X4.3678Y-3.0296
X4.3678Y-3.1296
X4.4072Y-4.7407
X4.4072Y-4.8407
X4.4072Y-4.9407
X5.1989Y-2.9296
X5.1989Y-3.0296
X5.1989Y-3.1296
X5.1989Y-4.7407
X5.1989Y-4.8407
X5.1989Y-4.9407
T8
X3.9763Y-3.422
X3.9763Y-3.822
X4.0589Y-4.0107
X4.0589Y-4.4107
X4.1219Y-4.7383
X5.5432Y-4.506
X5.5511Y-3.0296
X5.7165Y-2.8622
X5.8346Y-3.4921
X6.8267Y-4.0578
T9
X3.4831Y-4.1911
X3.4831Y-4.3911
X3.4912Y-3.5218
X3.4912Y-3.7218
T10
X3.4252Y-2.874
X3.4252Y-5.0787
X7.7165Y-2.874
X7.7165Y-5.0787
T0
M30
