M48
; DRILL file {KiCad 7.0.7} date Tue Oct 10 01:30:40 2023
; FORMAT={-:-/ absolute / inch / decimal}
; #@! TF.CreationDate,2023-10-10T01:30:40-06:00
; #@! TF.GenerationSoftware,Kicad,Pcbnew,7.0.7
; #@! TF.FileFunction,MixedPlating,1,2
FMAT,2
INCH
; #@! TA.AperFunction,Plated,PTH,ViaDrill
T1C0.0157
; #@! TA.AperFunction,Plated,PTH,ComponentDrill
T2C0.0197
; #@! TA.AperFunction,Plated,PTH,ComponentDrill
T3C0.0295
; #@! TA.AperFunction,Plated,PTH,ComponentDrill
T4C0.0315
; #@! TA.AperFunction,Plated,PTH,ComponentDrill
T5C0.0354
; #@! TA.AperFunction,Plated,PTH,ComponentDrill
T6C0.0394
; #@! TA.AperFunction,Plated,PTH,ComponentDrill
T7C0.0433
; #@! TA.AperFunction,Plated,PTH,ComponentDrill
T8C0.0472
; #@! TA.AperFunction,Plated,PTH,ComponentDrill
T9C0.0512
; #@! TA.AperFunction,Plated,PTH,ComponentDrill
T10C0.1012
; #@! TA.AperFunction,Plated,PTH,ComponentDrill
T11C0.1260
%
G90
G05
T1
X3.8083Y-3.5122
X3.8122Y-3.9689
X3.9146Y-4.3272
X3.9185Y-4.2484
X3.9972Y-3.9689
X4.0012Y-4.3272
X4.013Y-4.2366
X4.0445Y-3.3114
X4.0445Y-3.5398
X4.072Y-4.3035
X4.1547Y-4.0673
X4.1547Y-4.2957
X4.2177Y-4.0122
X4.4972Y-4.4413
X4.6587Y-4.4571
X4.698Y-4.4965
X4.7413Y-4.0909
X4.7768Y-4.2366
X4.8161Y-4.0909
X4.8437Y-3.5988
X4.8909Y-3.3272
X4.8909Y-3.4098
X4.95Y-3.3272
X4.95Y-3.4098
X4.9697Y-4.4295
X4.9933Y-3.6421
X5.1272Y-4.2996
X5.1508Y-3.9571
X5.2217Y-3.9571
X5.2531Y-3.1224
X5.4185Y-3.0673
X5.4343Y-3.4571
X5.4697Y-4.2799
X5.4854Y-4.5437
X5.5169Y-3.5083
X5.5209Y-3.4571
X5.5642Y-4.2169
X5.5642Y-4.5437
X6.6665Y-3.461
X6.7571Y-3.461
X6.7768Y-3.7327
X6.7886Y-4.0201
X6.828Y-3.1736
X6.8358Y-4.1382
X6.8594Y-3.7287
X7.0957Y-3.2209
X7.0957Y-4.0831
X7.0957Y-4.1539
X7.0957Y-4.2839
X7.0957Y-4.3547
X7.3791Y-3.3547
X7.3791Y-3.4374
X7.4382Y-3.3587
X7.4382Y-3.4295
X7.45Y-3.028
X7.4618Y-2.8587
X7.4854Y-3.3587
X7.4854Y-3.4295
X7.6508Y-3.2012
X7.6508Y-3.4256
X7.7217Y-2.9098
X7.7217Y-2.9728
T2
X2.9106Y-2.6303
X2.9106Y-5.3469
X2.9383Y-2.5635
X2.9383Y-2.6971
X2.9383Y-5.28
X2.9383Y-5.4137
X3.0051Y-2.5358
X3.0051Y-2.7248
X3.0051Y-5.2524
X3.0051Y-5.4413
X3.0719Y-2.5635
X3.0719Y-2.6971
X3.0719Y-5.28
X3.0719Y-5.4137
X3.0996Y-2.6303
X3.0996Y-5.3469
X8.0287Y-2.6303
X8.0287Y-5.3469
X8.0564Y-2.5635
X8.0564Y-2.6971
X8.0564Y-5.28
X8.0564Y-5.4137
X8.1232Y-2.5358
X8.1232Y-2.7248
X8.1232Y-5.2524
X8.1232Y-5.4413
X8.19Y-2.5635
X8.19Y-2.6971
X8.19Y-5.28
X8.19Y-5.4137
X8.2177Y-2.6303
X8.2177Y-5.3469
T3
X6.4752Y-4.9583
X6.4752Y-5.0083
X6.4752Y-5.0583
T4
X3.6287Y-4.5398
X3.6287Y-4.7366
X3.835Y-3.1177
X3.835Y-3.3854
X3.8354Y-3.2358
X3.8472Y-4.6295
X3.8472Y-4.7358
X3.8472Y-4.8933
X3.8555Y-3.8665
X3.8555Y-4.1224
X4.0524Y-3.8665
X4.0524Y-4.1224
X4.135Y-3.1177
X4.135Y-3.3854
X4.1354Y-3.2358
X4.1472Y-4.6295
X4.1472Y-4.7358
X4.1472Y-4.8933
X4.2567Y-3.7287
X4.2567Y-4.1224
X4.2567Y-4.2524
X4.2567Y-4.3776
X4.2571Y-3.5988
X4.2571Y-3.8587
X4.2571Y-4.5035
X4.3571Y-3.9925
X4.361Y-4.6303
X4.5539Y-3.9925
X4.5567Y-3.7287
X4.5567Y-4.1224
X4.5567Y-4.2524
X4.5567Y-4.3776
X4.5571Y-3.5988
X4.5571Y-3.8587
X4.5571Y-4.5035
X4.5579Y-4.6303
X4.6587Y-3.7413
X4.6587Y-3.8413
X4.6587Y-3.9413
X4.6587Y-4.0413
X4.6587Y-4.1413
X4.6587Y-4.2413
X4.6587Y-4.3413
X4.861Y-4.5909
X4.9587Y-3.7413
X4.9587Y-3.8413
X4.9587Y-3.9413
X4.9587Y-4.0413
X4.9587Y-4.1413
X4.9587Y-4.2413
X4.9587Y-4.3413
X5.0535Y-4.213
X5.0535Y-4.339
X5.0539Y-3.835
X5.0539Y-3.961
X5.0539Y-4.087
X5.0539Y-4.465
X5.0571Y-3.5831
X5.0571Y-3.7091
X5.0579Y-4.5909
X5.0587Y-3.4579
X5.2555Y-3.4579
X5.3236Y-4.6256
X5.3236Y-4.7319
X5.3236Y-4.8894
X5.3291Y-3.3429
X5.3331Y-3.0831
X5.3331Y-3.2012
X5.3535Y-4.213
X5.3535Y-4.339
X5.3539Y-3.835
X5.3539Y-3.961
X5.3539Y-4.087
X5.3539Y-4.465
X5.3571Y-3.5831
X5.3571Y-3.7091
X5.6236Y-4.6256
X5.6236Y-4.7319
X5.6236Y-4.8894
X5.6291Y-3.3429
X5.6331Y-3.0831
X5.6331Y-3.2012
X5.9626Y-4.4177
X5.963Y-3.2051
X5.963Y-3.3311
X5.963Y-3.4571
X5.963Y-3.5831
X5.963Y-3.7091
X5.963Y-3.8272
X5.963Y-4.0004
X5.963Y-4.1303
X5.963Y-4.2484
X5.963Y-4.6657
X5.9634Y-4.5476
X6.0657Y-4.8311
X6.2626Y-4.4177
X6.2626Y-4.8311
X6.263Y-3.2051
X6.263Y-3.3311
X6.263Y-3.4571
X6.263Y-3.5831
X6.263Y-3.7091
X6.263Y-3.8272
X6.263Y-4.0004
X6.263Y-4.1303
X6.263Y-4.2484
X6.263Y-4.6657
X6.2634Y-4.5476
X6.2705Y-3.0752
X6.4673Y-3.0752
X6.6425Y-4.9846
X6.6425Y-5.1106
X6.6441Y-4.4768
X6.6441Y-4.6028
X6.6441Y-4.7287
X6.6441Y-4.8587
X6.6476Y-2.9368
X6.6476Y-3.724
X6.6476Y-3.824
X6.6476Y-3.924
X6.6476Y-4.024
X6.6476Y-4.124
X6.6476Y-4.224
X6.6476Y-4.324
X6.6516Y-3.0667
X6.6516Y-3.1667
X6.6516Y-3.2667
X6.6516Y-3.3667
X6.7508Y-3.5933
X6.8445Y-2.9368
X6.9425Y-4.9846
X6.9425Y-5.1106
X6.9441Y-4.4768
X6.9441Y-4.6028
X6.9441Y-4.7287
X6.9441Y-4.8587
X6.9476Y-3.5933
X6.9476Y-3.724
X6.9476Y-3.824
X6.9476Y-3.924
X6.9476Y-4.024
X6.9476Y-4.124
X6.9476Y-4.224
X6.9476Y-4.324
X6.9516Y-3.0667
X6.9516Y-3.1667
X6.9516Y-3.2667
X6.9516Y-3.3667
T5
X7.1366Y-5.3256
X7.1366Y-5.4256
X7.4516Y-5.3246
X7.4516Y-5.4246
T6
X7.2323Y-2.7421
X7.2323Y-2.8421
X7.2323Y-2.9421
X7.2323Y-3.0421
X7.2323Y-3.1421
X7.2323Y-3.2421
X7.2323Y-3.3421
X7.2323Y-3.4421
X7.2323Y-3.5421
X7.2323Y-3.6421
X7.2323Y-3.7421
X7.2323Y-3.8421
X7.2323Y-3.9421
X7.2323Y-4.0421
X7.2323Y-4.1421
X7.8323Y-2.7421
X7.8323Y-2.8421
X7.8323Y-2.9421
X7.8323Y-3.0421
X7.8323Y-3.1421
X7.8323Y-3.2421
X7.8323Y-3.3421
X7.8323Y-3.4421
X7.8323Y-3.5421
X7.8323Y-3.6421
X7.8323Y-3.7421
X7.8323Y-3.8421
X7.8323Y-3.9421
X7.8323Y-4.0421
X7.8323Y-4.1421
T7
X3.1059Y-4.7169
X3.5059Y-4.7169
X3.8957Y-2.9563
X3.8988Y-5.0224
X3.9957Y-2.9563
X3.9988Y-5.0224
X4.0957Y-2.9563
X4.0988Y-5.0224
X5.3555Y-5.0246
X5.3736Y-2.9541
X5.4555Y-5.0246
X5.4736Y-2.9541
X5.5555Y-5.0246
X5.5736Y-2.9541
T8
X3.0681Y-3.028
X3.5839Y-3.2177
X3.5839Y-3.6177
X3.6154Y-3.7957
X3.6154Y-4.013
X3.6154Y-4.413
X4.6839Y-3.5358
X5.7453Y-4.4217
X6.4634Y-4.0004
X6.5028Y-3.5752
T9
X3.1089Y-3.3239
X3.1089Y-3.5239
X3.1089Y-4.1324
X3.1089Y-4.3324
T10
X3.4894Y-2.7594
X3.4894Y-5.2193
X4.4894Y-2.7594
X4.4894Y-5.2193
X4.9618Y-5.2193
X4.9697Y-2.7583
X5.9618Y-5.2193
X5.9697Y-2.7583
T11
X3.0051Y-2.6303
X3.0051Y-5.3469
X8.1232Y-2.6303
X8.1232Y-5.3469
T0
M30
