%TF.GenerationSoftware,KiCad,Pcbnew,7.0.7*%
%TF.CreationDate,2023-10-10T01:29:58-06:00*%
%TF.ProjectId,USB_curve_tracer,5553425f-6375-4727-9665-5f7472616365,3*%
%TF.SameCoordinates,Original*%
%TF.FileFunction,Legend,Top*%
%TF.FilePolarity,Positive*%
%FSLAX46Y46*%
G04 Gerber Fmt 4.6, Leading zero omitted, Abs format (unit mm)*
G04 Created by KiCad (PCBNEW 7.0.7) date 2023-10-10 01:29:58*
%MOMM*%
%LPD*%
G01*
G04 APERTURE LIST*
%ADD10C,0.150000*%
%ADD11C,0.120000*%
%ADD12C,0.127000*%
G04 APERTURE END LIST*
D10*
X158036779Y-64069819D02*
X158036779Y-63069819D01*
X158036779Y-63069819D02*
X158608207Y-64069819D01*
X158608207Y-64069819D02*
X158608207Y-63069819D01*
X159465350Y-64022200D02*
X159370112Y-64069819D01*
X159370112Y-64069819D02*
X159179636Y-64069819D01*
X159179636Y-64069819D02*
X159084398Y-64022200D01*
X159084398Y-64022200D02*
X159036779Y-63926961D01*
X159036779Y-63926961D02*
X159036779Y-63546009D01*
X159036779Y-63546009D02*
X159084398Y-63450771D01*
X159084398Y-63450771D02*
X159179636Y-63403152D01*
X159179636Y-63403152D02*
X159370112Y-63403152D01*
X159370112Y-63403152D02*
X159465350Y-63450771D01*
X159465350Y-63450771D02*
X159512969Y-63546009D01*
X159512969Y-63546009D02*
X159512969Y-63641247D01*
X159512969Y-63641247D02*
X159036779Y-63736485D01*
X159846303Y-63403152D02*
X160036779Y-64069819D01*
X160036779Y-64069819D02*
X160227255Y-63593628D01*
X160227255Y-63593628D02*
X160417731Y-64069819D01*
X160417731Y-64069819D02*
X160608207Y-63403152D01*
X160846303Y-63403152D02*
X161227255Y-63403152D01*
X160989160Y-63069819D02*
X160989160Y-63926961D01*
X160989160Y-63926961D02*
X161036779Y-64022200D01*
X161036779Y-64022200D02*
X161132017Y-64069819D01*
X161132017Y-64069819D02*
X161227255Y-64069819D01*
X161703446Y-64069819D02*
X161608208Y-64022200D01*
X161608208Y-64022200D02*
X161560589Y-63974580D01*
X161560589Y-63974580D02*
X161512970Y-63879342D01*
X161512970Y-63879342D02*
X161512970Y-63593628D01*
X161512970Y-63593628D02*
X161560589Y-63498390D01*
X161560589Y-63498390D02*
X161608208Y-63450771D01*
X161608208Y-63450771D02*
X161703446Y-63403152D01*
X161703446Y-63403152D02*
X161846303Y-63403152D01*
X161846303Y-63403152D02*
X161941541Y-63450771D01*
X161941541Y-63450771D02*
X161989160Y-63498390D01*
X161989160Y-63498390D02*
X162036779Y-63593628D01*
X162036779Y-63593628D02*
X162036779Y-63879342D01*
X162036779Y-63879342D02*
X161989160Y-63974580D01*
X161989160Y-63974580D02*
X161941541Y-64022200D01*
X161941541Y-64022200D02*
X161846303Y-64069819D01*
X161846303Y-64069819D02*
X161703446Y-64069819D01*
X162465351Y-63403152D02*
X162465351Y-64069819D01*
X162465351Y-63498390D02*
X162512970Y-63450771D01*
X162512970Y-63450771D02*
X162608208Y-63403152D01*
X162608208Y-63403152D02*
X162751065Y-63403152D01*
X162751065Y-63403152D02*
X162846303Y-63450771D01*
X162846303Y-63450771D02*
X162893922Y-63546009D01*
X162893922Y-63546009D02*
X162893922Y-64069819D01*
X84966779Y-89979819D02*
X84966779Y-88979819D01*
X84966779Y-88979819D02*
X85204874Y-88979819D01*
X85204874Y-88979819D02*
X85347731Y-89027438D01*
X85347731Y-89027438D02*
X85442969Y-89122676D01*
X85442969Y-89122676D02*
X85490588Y-89217914D01*
X85490588Y-89217914D02*
X85538207Y-89408390D01*
X85538207Y-89408390D02*
X85538207Y-89551247D01*
X85538207Y-89551247D02*
X85490588Y-89741723D01*
X85490588Y-89741723D02*
X85442969Y-89836961D01*
X85442969Y-89836961D02*
X85347731Y-89932200D01*
X85347731Y-89932200D02*
X85204874Y-89979819D01*
X85204874Y-89979819D02*
X84966779Y-89979819D01*
X85966779Y-88979819D02*
X85966779Y-89789342D01*
X85966779Y-89789342D02*
X86014398Y-89884580D01*
X86014398Y-89884580D02*
X86062017Y-89932200D01*
X86062017Y-89932200D02*
X86157255Y-89979819D01*
X86157255Y-89979819D02*
X86347731Y-89979819D01*
X86347731Y-89979819D02*
X86442969Y-89932200D01*
X86442969Y-89932200D02*
X86490588Y-89884580D01*
X86490588Y-89884580D02*
X86538207Y-89789342D01*
X86538207Y-89789342D02*
X86538207Y-88979819D01*
X86871541Y-88979819D02*
X87442969Y-88979819D01*
X87157255Y-89979819D02*
X87157255Y-88979819D01*
X87776303Y-89598866D02*
X88538208Y-89598866D01*
X88157255Y-89979819D02*
X88157255Y-89217914D01*
X85590588Y-104327438D02*
X85495350Y-104279819D01*
X85495350Y-104279819D02*
X85352493Y-104279819D01*
X85352493Y-104279819D02*
X85209636Y-104327438D01*
X85209636Y-104327438D02*
X85114398Y-104422676D01*
X85114398Y-104422676D02*
X85066779Y-104517914D01*
X85066779Y-104517914D02*
X85019160Y-104708390D01*
X85019160Y-104708390D02*
X85019160Y-104851247D01*
X85019160Y-104851247D02*
X85066779Y-105041723D01*
X85066779Y-105041723D02*
X85114398Y-105136961D01*
X85114398Y-105136961D02*
X85209636Y-105232200D01*
X85209636Y-105232200D02*
X85352493Y-105279819D01*
X85352493Y-105279819D02*
X85447731Y-105279819D01*
X85447731Y-105279819D02*
X85590588Y-105232200D01*
X85590588Y-105232200D02*
X85638207Y-105184580D01*
X85638207Y-105184580D02*
X85638207Y-104851247D01*
X85638207Y-104851247D02*
X85447731Y-104851247D01*
X86066779Y-105279819D02*
X86066779Y-104279819D01*
X86066779Y-104279819D02*
X86638207Y-105279819D01*
X86638207Y-105279819D02*
X86638207Y-104279819D01*
X87114398Y-105279819D02*
X87114398Y-104279819D01*
X87114398Y-104279819D02*
X87352493Y-104279819D01*
X87352493Y-104279819D02*
X87495350Y-104327438D01*
X87495350Y-104327438D02*
X87590588Y-104422676D01*
X87590588Y-104422676D02*
X87638207Y-104517914D01*
X87638207Y-104517914D02*
X87685826Y-104708390D01*
X87685826Y-104708390D02*
X87685826Y-104851247D01*
X87685826Y-104851247D02*
X87638207Y-105041723D01*
X87638207Y-105041723D02*
X87590588Y-105136961D01*
X87590588Y-105136961D02*
X87495350Y-105232200D01*
X87495350Y-105232200D02*
X87352493Y-105279819D01*
X87352493Y-105279819D02*
X87114398Y-105279819D01*
X84966779Y-84879819D02*
X84966779Y-83879819D01*
X84966779Y-83879819D02*
X85204874Y-83879819D01*
X85204874Y-83879819D02*
X85347731Y-83927438D01*
X85347731Y-83927438D02*
X85442969Y-84022676D01*
X85442969Y-84022676D02*
X85490588Y-84117914D01*
X85490588Y-84117914D02*
X85538207Y-84308390D01*
X85538207Y-84308390D02*
X85538207Y-84451247D01*
X85538207Y-84451247D02*
X85490588Y-84641723D01*
X85490588Y-84641723D02*
X85442969Y-84736961D01*
X85442969Y-84736961D02*
X85347731Y-84832200D01*
X85347731Y-84832200D02*
X85204874Y-84879819D01*
X85204874Y-84879819D02*
X84966779Y-84879819D01*
X85966779Y-83879819D02*
X85966779Y-84689342D01*
X85966779Y-84689342D02*
X86014398Y-84784580D01*
X86014398Y-84784580D02*
X86062017Y-84832200D01*
X86062017Y-84832200D02*
X86157255Y-84879819D01*
X86157255Y-84879819D02*
X86347731Y-84879819D01*
X86347731Y-84879819D02*
X86442969Y-84832200D01*
X86442969Y-84832200D02*
X86490588Y-84784580D01*
X86490588Y-84784580D02*
X86538207Y-84689342D01*
X86538207Y-84689342D02*
X86538207Y-83879819D01*
X86871541Y-83879819D02*
X87442969Y-83879819D01*
X87157255Y-84879819D02*
X87157255Y-83879819D01*
X87776303Y-84498866D02*
X88538208Y-84498866D01*
X85590588Y-110479819D02*
X85019160Y-110479819D01*
X85304874Y-110479819D02*
X85304874Y-109479819D01*
X85304874Y-109479819D02*
X85209636Y-109622676D01*
X85209636Y-109622676D02*
X85114398Y-109717914D01*
X85114398Y-109717914D02*
X85019160Y-109765533D01*
X85971541Y-109575057D02*
X86019160Y-109527438D01*
X86019160Y-109527438D02*
X86114398Y-109479819D01*
X86114398Y-109479819D02*
X86352493Y-109479819D01*
X86352493Y-109479819D02*
X86447731Y-109527438D01*
X86447731Y-109527438D02*
X86495350Y-109575057D01*
X86495350Y-109575057D02*
X86542969Y-109670295D01*
X86542969Y-109670295D02*
X86542969Y-109765533D01*
X86542969Y-109765533D02*
X86495350Y-109908390D01*
X86495350Y-109908390D02*
X85923922Y-110479819D01*
X85923922Y-110479819D02*
X86542969Y-110479819D01*
X86828684Y-109479819D02*
X87162017Y-110479819D01*
X87162017Y-110479819D02*
X87495350Y-109479819D01*
X199208207Y-139469819D02*
X198874874Y-138993628D01*
X198636779Y-139469819D02*
X198636779Y-138469819D01*
X198636779Y-138469819D02*
X199017731Y-138469819D01*
X199017731Y-138469819D02*
X199112969Y-138517438D01*
X199112969Y-138517438D02*
X199160588Y-138565057D01*
X199160588Y-138565057D02*
X199208207Y-138660295D01*
X199208207Y-138660295D02*
X199208207Y-138803152D01*
X199208207Y-138803152D02*
X199160588Y-138898390D01*
X199160588Y-138898390D02*
X199112969Y-138946009D01*
X199112969Y-138946009D02*
X199017731Y-138993628D01*
X199017731Y-138993628D02*
X198636779Y-138993628D01*
X199636779Y-138946009D02*
X199970112Y-138946009D01*
X200112969Y-139469819D02*
X199636779Y-139469819D01*
X199636779Y-139469819D02*
X199636779Y-138469819D01*
X199636779Y-138469819D02*
X200112969Y-138469819D01*
X200398684Y-138469819D02*
X200732017Y-139469819D01*
X200732017Y-139469819D02*
X201065350Y-138469819D01*
X201303446Y-138469819D02*
X201922493Y-138469819D01*
X201922493Y-138469819D02*
X201589160Y-138850771D01*
X201589160Y-138850771D02*
X201732017Y-138850771D01*
X201732017Y-138850771D02*
X201827255Y-138898390D01*
X201827255Y-138898390D02*
X201874874Y-138946009D01*
X201874874Y-138946009D02*
X201922493Y-139041247D01*
X201922493Y-139041247D02*
X201922493Y-139279342D01*
X201922493Y-139279342D02*
X201874874Y-139374580D01*
X201874874Y-139374580D02*
X201827255Y-139422200D01*
X201827255Y-139422200D02*
X201732017Y-139469819D01*
X201732017Y-139469819D02*
X201446303Y-139469819D01*
X201446303Y-139469819D02*
X201351065Y-139422200D01*
X201351065Y-139422200D02*
X201303446Y-139374580D01*
X106415714Y-82644819D02*
X106415714Y-81644819D01*
X106415714Y-81644819D02*
X106653809Y-81644819D01*
X106653809Y-81644819D02*
X106796666Y-81692438D01*
X106796666Y-81692438D02*
X106891904Y-81787676D01*
X106891904Y-81787676D02*
X106939523Y-81882914D01*
X106939523Y-81882914D02*
X106987142Y-82073390D01*
X106987142Y-82073390D02*
X106987142Y-82216247D01*
X106987142Y-82216247D02*
X106939523Y-82406723D01*
X106939523Y-82406723D02*
X106891904Y-82501961D01*
X106891904Y-82501961D02*
X106796666Y-82597200D01*
X106796666Y-82597200D02*
X106653809Y-82644819D01*
X106653809Y-82644819D02*
X106415714Y-82644819D01*
X107939523Y-82644819D02*
X107368095Y-82644819D01*
X107653809Y-82644819D02*
X107653809Y-81644819D01*
X107653809Y-81644819D02*
X107558571Y-81787676D01*
X107558571Y-81787676D02*
X107463333Y-81882914D01*
X107463333Y-81882914D02*
X107368095Y-81930533D01*
X108272857Y-81644819D02*
X108891904Y-81644819D01*
X108891904Y-81644819D02*
X108558571Y-82025771D01*
X108558571Y-82025771D02*
X108701428Y-82025771D01*
X108701428Y-82025771D02*
X108796666Y-82073390D01*
X108796666Y-82073390D02*
X108844285Y-82121009D01*
X108844285Y-82121009D02*
X108891904Y-82216247D01*
X108891904Y-82216247D02*
X108891904Y-82454342D01*
X108891904Y-82454342D02*
X108844285Y-82549580D01*
X108844285Y-82549580D02*
X108796666Y-82597200D01*
X108796666Y-82597200D02*
X108701428Y-82644819D01*
X108701428Y-82644819D02*
X108415714Y-82644819D01*
X108415714Y-82644819D02*
X108320476Y-82597200D01*
X108320476Y-82597200D02*
X108272857Y-82549580D01*
X104778095Y-84444819D02*
X104778095Y-83444819D01*
X105349523Y-84444819D02*
X104920952Y-83873390D01*
X105349523Y-83444819D02*
X104778095Y-84016247D01*
X161603333Y-75969580D02*
X161555714Y-76017200D01*
X161555714Y-76017200D02*
X161412857Y-76064819D01*
X161412857Y-76064819D02*
X161317619Y-76064819D01*
X161317619Y-76064819D02*
X161174762Y-76017200D01*
X161174762Y-76017200D02*
X161079524Y-75921961D01*
X161079524Y-75921961D02*
X161031905Y-75826723D01*
X161031905Y-75826723D02*
X160984286Y-75636247D01*
X160984286Y-75636247D02*
X160984286Y-75493390D01*
X160984286Y-75493390D02*
X161031905Y-75302914D01*
X161031905Y-75302914D02*
X161079524Y-75207676D01*
X161079524Y-75207676D02*
X161174762Y-75112438D01*
X161174762Y-75112438D02*
X161317619Y-75064819D01*
X161317619Y-75064819D02*
X161412857Y-75064819D01*
X161412857Y-75064819D02*
X161555714Y-75112438D01*
X161555714Y-75112438D02*
X161603333Y-75160057D01*
X161984286Y-75160057D02*
X162031905Y-75112438D01*
X162031905Y-75112438D02*
X162127143Y-75064819D01*
X162127143Y-75064819D02*
X162365238Y-75064819D01*
X162365238Y-75064819D02*
X162460476Y-75112438D01*
X162460476Y-75112438D02*
X162508095Y-75160057D01*
X162508095Y-75160057D02*
X162555714Y-75255295D01*
X162555714Y-75255295D02*
X162555714Y-75350533D01*
X162555714Y-75350533D02*
X162508095Y-75493390D01*
X162508095Y-75493390D02*
X161936667Y-76064819D01*
X161936667Y-76064819D02*
X162555714Y-76064819D01*
X177764819Y-137278094D02*
X176764819Y-137278094D01*
X176764819Y-137278094D02*
X176764819Y-137039999D01*
X176764819Y-137039999D02*
X176812438Y-136897142D01*
X176812438Y-136897142D02*
X176907676Y-136801904D01*
X176907676Y-136801904D02*
X177002914Y-136754285D01*
X177002914Y-136754285D02*
X177193390Y-136706666D01*
X177193390Y-136706666D02*
X177336247Y-136706666D01*
X177336247Y-136706666D02*
X177526723Y-136754285D01*
X177526723Y-136754285D02*
X177621961Y-136801904D01*
X177621961Y-136801904D02*
X177717200Y-136897142D01*
X177717200Y-136897142D02*
X177764819Y-137039999D01*
X177764819Y-137039999D02*
X177764819Y-137278094D01*
X176764819Y-135849523D02*
X176764819Y-136039999D01*
X176764819Y-136039999D02*
X176812438Y-136135237D01*
X176812438Y-136135237D02*
X176860057Y-136182856D01*
X176860057Y-136182856D02*
X177002914Y-136278094D01*
X177002914Y-136278094D02*
X177193390Y-136325713D01*
X177193390Y-136325713D02*
X177574342Y-136325713D01*
X177574342Y-136325713D02*
X177669580Y-136278094D01*
X177669580Y-136278094D02*
X177717200Y-136230475D01*
X177717200Y-136230475D02*
X177764819Y-136135237D01*
X177764819Y-136135237D02*
X177764819Y-135944761D01*
X177764819Y-135944761D02*
X177717200Y-135849523D01*
X177717200Y-135849523D02*
X177669580Y-135801904D01*
X177669580Y-135801904D02*
X177574342Y-135754285D01*
X177574342Y-135754285D02*
X177336247Y-135754285D01*
X177336247Y-135754285D02*
X177241009Y-135801904D01*
X177241009Y-135801904D02*
X177193390Y-135849523D01*
X177193390Y-135849523D02*
X177145771Y-135944761D01*
X177145771Y-135944761D02*
X177145771Y-136135237D01*
X177145771Y-136135237D02*
X177193390Y-136230475D01*
X177193390Y-136230475D02*
X177241009Y-136278094D01*
X177241009Y-136278094D02*
X177336247Y-136325713D01*
X163708095Y-130064819D02*
X163708095Y-130874342D01*
X163708095Y-130874342D02*
X163755714Y-130969580D01*
X163755714Y-130969580D02*
X163803333Y-131017200D01*
X163803333Y-131017200D02*
X163898571Y-131064819D01*
X163898571Y-131064819D02*
X164089047Y-131064819D01*
X164089047Y-131064819D02*
X164184285Y-131017200D01*
X164184285Y-131017200D02*
X164231904Y-130969580D01*
X164231904Y-130969580D02*
X164279523Y-130874342D01*
X164279523Y-130874342D02*
X164279523Y-130064819D01*
X165184285Y-130398152D02*
X165184285Y-131064819D01*
X164946190Y-130017200D02*
X164708095Y-130731485D01*
X164708095Y-130731485D02*
X165327142Y-130731485D01*
X167908095Y-91724819D02*
X167908095Y-92534342D01*
X167908095Y-92534342D02*
X167955714Y-92629580D01*
X167955714Y-92629580D02*
X168003333Y-92677200D01*
X168003333Y-92677200D02*
X168098571Y-92724819D01*
X168098571Y-92724819D02*
X168289047Y-92724819D01*
X168289047Y-92724819D02*
X168384285Y-92677200D01*
X168384285Y-92677200D02*
X168431904Y-92629580D01*
X168431904Y-92629580D02*
X168479523Y-92534342D01*
X168479523Y-92534342D02*
X168479523Y-91724819D01*
X168860476Y-91724819D02*
X169479523Y-91724819D01*
X169479523Y-91724819D02*
X169146190Y-92105771D01*
X169146190Y-92105771D02*
X169289047Y-92105771D01*
X169289047Y-92105771D02*
X169384285Y-92153390D01*
X169384285Y-92153390D02*
X169431904Y-92201009D01*
X169431904Y-92201009D02*
X169479523Y-92296247D01*
X169479523Y-92296247D02*
X169479523Y-92534342D01*
X169479523Y-92534342D02*
X169431904Y-92629580D01*
X169431904Y-92629580D02*
X169384285Y-92677200D01*
X169384285Y-92677200D02*
X169289047Y-92724819D01*
X169289047Y-92724819D02*
X169003333Y-92724819D01*
X169003333Y-92724819D02*
X168908095Y-92677200D01*
X168908095Y-92677200D02*
X168860476Y-92629580D01*
X137837142Y-104264819D02*
X137503809Y-103788628D01*
X137265714Y-104264819D02*
X137265714Y-103264819D01*
X137265714Y-103264819D02*
X137646666Y-103264819D01*
X137646666Y-103264819D02*
X137741904Y-103312438D01*
X137741904Y-103312438D02*
X137789523Y-103360057D01*
X137789523Y-103360057D02*
X137837142Y-103455295D01*
X137837142Y-103455295D02*
X137837142Y-103598152D01*
X137837142Y-103598152D02*
X137789523Y-103693390D01*
X137789523Y-103693390D02*
X137741904Y-103741009D01*
X137741904Y-103741009D02*
X137646666Y-103788628D01*
X137646666Y-103788628D02*
X137265714Y-103788628D01*
X138789523Y-104264819D02*
X138218095Y-104264819D01*
X138503809Y-104264819D02*
X138503809Y-103264819D01*
X138503809Y-103264819D02*
X138408571Y-103407676D01*
X138408571Y-103407676D02*
X138313333Y-103502914D01*
X138313333Y-103502914D02*
X138218095Y-103550533D01*
X139122857Y-103264819D02*
X139789523Y-103264819D01*
X139789523Y-103264819D02*
X139360952Y-104264819D01*
X105773333Y-95164819D02*
X105440000Y-94688628D01*
X105201905Y-95164819D02*
X105201905Y-94164819D01*
X105201905Y-94164819D02*
X105582857Y-94164819D01*
X105582857Y-94164819D02*
X105678095Y-94212438D01*
X105678095Y-94212438D02*
X105725714Y-94260057D01*
X105725714Y-94260057D02*
X105773333Y-94355295D01*
X105773333Y-94355295D02*
X105773333Y-94498152D01*
X105773333Y-94498152D02*
X105725714Y-94593390D01*
X105725714Y-94593390D02*
X105678095Y-94641009D01*
X105678095Y-94641009D02*
X105582857Y-94688628D01*
X105582857Y-94688628D02*
X105201905Y-94688628D01*
X106106667Y-94164819D02*
X106773333Y-94164819D01*
X106773333Y-94164819D02*
X106344762Y-95164819D01*
X161027142Y-112664819D02*
X160693809Y-112188628D01*
X160455714Y-112664819D02*
X160455714Y-111664819D01*
X160455714Y-111664819D02*
X160836666Y-111664819D01*
X160836666Y-111664819D02*
X160931904Y-111712438D01*
X160931904Y-111712438D02*
X160979523Y-111760057D01*
X160979523Y-111760057D02*
X161027142Y-111855295D01*
X161027142Y-111855295D02*
X161027142Y-111998152D01*
X161027142Y-111998152D02*
X160979523Y-112093390D01*
X160979523Y-112093390D02*
X160931904Y-112141009D01*
X160931904Y-112141009D02*
X160836666Y-112188628D01*
X160836666Y-112188628D02*
X160455714Y-112188628D01*
X161408095Y-111760057D02*
X161455714Y-111712438D01*
X161455714Y-111712438D02*
X161550952Y-111664819D01*
X161550952Y-111664819D02*
X161789047Y-111664819D01*
X161789047Y-111664819D02*
X161884285Y-111712438D01*
X161884285Y-111712438D02*
X161931904Y-111760057D01*
X161931904Y-111760057D02*
X161979523Y-111855295D01*
X161979523Y-111855295D02*
X161979523Y-111950533D01*
X161979523Y-111950533D02*
X161931904Y-112093390D01*
X161931904Y-112093390D02*
X161360476Y-112664819D01*
X161360476Y-112664819D02*
X161979523Y-112664819D01*
X162455714Y-112664819D02*
X162646190Y-112664819D01*
X162646190Y-112664819D02*
X162741428Y-112617200D01*
X162741428Y-112617200D02*
X162789047Y-112569580D01*
X162789047Y-112569580D02*
X162884285Y-112426723D01*
X162884285Y-112426723D02*
X162931904Y-112236247D01*
X162931904Y-112236247D02*
X162931904Y-111855295D01*
X162931904Y-111855295D02*
X162884285Y-111760057D01*
X162884285Y-111760057D02*
X162836666Y-111712438D01*
X162836666Y-111712438D02*
X162741428Y-111664819D01*
X162741428Y-111664819D02*
X162550952Y-111664819D01*
X162550952Y-111664819D02*
X162455714Y-111712438D01*
X162455714Y-111712438D02*
X162408095Y-111760057D01*
X162408095Y-111760057D02*
X162360476Y-111855295D01*
X162360476Y-111855295D02*
X162360476Y-112093390D01*
X162360476Y-112093390D02*
X162408095Y-112188628D01*
X162408095Y-112188628D02*
X162455714Y-112236247D01*
X162455714Y-112236247D02*
X162550952Y-112283866D01*
X162550952Y-112283866D02*
X162741428Y-112283866D01*
X162741428Y-112283866D02*
X162836666Y-112236247D01*
X162836666Y-112236247D02*
X162884285Y-112188628D01*
X162884285Y-112188628D02*
X162931904Y-112093390D01*
X76668095Y-74216819D02*
X77239523Y-74216819D01*
X76953809Y-75216819D02*
X76953809Y-74216819D01*
X77572857Y-75216819D02*
X77572857Y-74216819D01*
X77572857Y-74216819D02*
X77953809Y-74216819D01*
X77953809Y-74216819D02*
X78049047Y-74264438D01*
X78049047Y-74264438D02*
X78096666Y-74312057D01*
X78096666Y-74312057D02*
X78144285Y-74407295D01*
X78144285Y-74407295D02*
X78144285Y-74550152D01*
X78144285Y-74550152D02*
X78096666Y-74645390D01*
X78096666Y-74645390D02*
X78049047Y-74693009D01*
X78049047Y-74693009D02*
X77953809Y-74740628D01*
X77953809Y-74740628D02*
X77572857Y-74740628D01*
X79049047Y-74216819D02*
X78572857Y-74216819D01*
X78572857Y-74216819D02*
X78525238Y-74693009D01*
X78525238Y-74693009D02*
X78572857Y-74645390D01*
X78572857Y-74645390D02*
X78668095Y-74597771D01*
X78668095Y-74597771D02*
X78906190Y-74597771D01*
X78906190Y-74597771D02*
X79001428Y-74645390D01*
X79001428Y-74645390D02*
X79049047Y-74693009D01*
X79049047Y-74693009D02*
X79096666Y-74788247D01*
X79096666Y-74788247D02*
X79096666Y-75026342D01*
X79096666Y-75026342D02*
X79049047Y-75121580D01*
X79049047Y-75121580D02*
X79001428Y-75169200D01*
X79001428Y-75169200D02*
X78906190Y-75216819D01*
X78906190Y-75216819D02*
X78668095Y-75216819D01*
X78668095Y-75216819D02*
X78572857Y-75169200D01*
X78572857Y-75169200D02*
X78525238Y-75121580D01*
X108403333Y-101769580D02*
X108355714Y-101817200D01*
X108355714Y-101817200D02*
X108212857Y-101864819D01*
X108212857Y-101864819D02*
X108117619Y-101864819D01*
X108117619Y-101864819D02*
X107974762Y-101817200D01*
X107974762Y-101817200D02*
X107879524Y-101721961D01*
X107879524Y-101721961D02*
X107831905Y-101626723D01*
X107831905Y-101626723D02*
X107784286Y-101436247D01*
X107784286Y-101436247D02*
X107784286Y-101293390D01*
X107784286Y-101293390D02*
X107831905Y-101102914D01*
X107831905Y-101102914D02*
X107879524Y-101007676D01*
X107879524Y-101007676D02*
X107974762Y-100912438D01*
X107974762Y-100912438D02*
X108117619Y-100864819D01*
X108117619Y-100864819D02*
X108212857Y-100864819D01*
X108212857Y-100864819D02*
X108355714Y-100912438D01*
X108355714Y-100912438D02*
X108403333Y-100960057D01*
X109260476Y-100864819D02*
X109070000Y-100864819D01*
X109070000Y-100864819D02*
X108974762Y-100912438D01*
X108974762Y-100912438D02*
X108927143Y-100960057D01*
X108927143Y-100960057D02*
X108831905Y-101102914D01*
X108831905Y-101102914D02*
X108784286Y-101293390D01*
X108784286Y-101293390D02*
X108784286Y-101674342D01*
X108784286Y-101674342D02*
X108831905Y-101769580D01*
X108831905Y-101769580D02*
X108879524Y-101817200D01*
X108879524Y-101817200D02*
X108974762Y-101864819D01*
X108974762Y-101864819D02*
X109165238Y-101864819D01*
X109165238Y-101864819D02*
X109260476Y-101817200D01*
X109260476Y-101817200D02*
X109308095Y-101769580D01*
X109308095Y-101769580D02*
X109355714Y-101674342D01*
X109355714Y-101674342D02*
X109355714Y-101436247D01*
X109355714Y-101436247D02*
X109308095Y-101341009D01*
X109308095Y-101341009D02*
X109260476Y-101293390D01*
X109260476Y-101293390D02*
X109165238Y-101245771D01*
X109165238Y-101245771D02*
X108974762Y-101245771D01*
X108974762Y-101245771D02*
X108879524Y-101293390D01*
X108879524Y-101293390D02*
X108831905Y-101341009D01*
X108831905Y-101341009D02*
X108784286Y-101436247D01*
X178227142Y-114164819D02*
X177893809Y-113688628D01*
X177655714Y-114164819D02*
X177655714Y-113164819D01*
X177655714Y-113164819D02*
X178036666Y-113164819D01*
X178036666Y-113164819D02*
X178131904Y-113212438D01*
X178131904Y-113212438D02*
X178179523Y-113260057D01*
X178179523Y-113260057D02*
X178227142Y-113355295D01*
X178227142Y-113355295D02*
X178227142Y-113498152D01*
X178227142Y-113498152D02*
X178179523Y-113593390D01*
X178179523Y-113593390D02*
X178131904Y-113641009D01*
X178131904Y-113641009D02*
X178036666Y-113688628D01*
X178036666Y-113688628D02*
X177655714Y-113688628D01*
X178608095Y-113260057D02*
X178655714Y-113212438D01*
X178655714Y-113212438D02*
X178750952Y-113164819D01*
X178750952Y-113164819D02*
X178989047Y-113164819D01*
X178989047Y-113164819D02*
X179084285Y-113212438D01*
X179084285Y-113212438D02*
X179131904Y-113260057D01*
X179131904Y-113260057D02*
X179179523Y-113355295D01*
X179179523Y-113355295D02*
X179179523Y-113450533D01*
X179179523Y-113450533D02*
X179131904Y-113593390D01*
X179131904Y-113593390D02*
X178560476Y-114164819D01*
X178560476Y-114164819D02*
X179179523Y-114164819D01*
X179512857Y-113164819D02*
X180179523Y-113164819D01*
X180179523Y-113164819D02*
X179750952Y-114164819D01*
X74596666Y-80164819D02*
X74596666Y-80879104D01*
X74596666Y-80879104D02*
X74549047Y-81021961D01*
X74549047Y-81021961D02*
X74453809Y-81117200D01*
X74453809Y-81117200D02*
X74310952Y-81164819D01*
X74310952Y-81164819D02*
X74215714Y-81164819D01*
X75596666Y-81164819D02*
X75025238Y-81164819D01*
X75310952Y-81164819D02*
X75310952Y-80164819D01*
X75310952Y-80164819D02*
X75215714Y-80307676D01*
X75215714Y-80307676D02*
X75120476Y-80402914D01*
X75120476Y-80402914D02*
X75025238Y-80450533D01*
X110836666Y-86421009D02*
X110503333Y-86421009D01*
X110503333Y-86944819D02*
X110503333Y-85944819D01*
X110503333Y-85944819D02*
X110979523Y-85944819D01*
X111312857Y-86040057D02*
X111360476Y-85992438D01*
X111360476Y-85992438D02*
X111455714Y-85944819D01*
X111455714Y-85944819D02*
X111693809Y-85944819D01*
X111693809Y-85944819D02*
X111789047Y-85992438D01*
X111789047Y-85992438D02*
X111836666Y-86040057D01*
X111836666Y-86040057D02*
X111884285Y-86135295D01*
X111884285Y-86135295D02*
X111884285Y-86230533D01*
X111884285Y-86230533D02*
X111836666Y-86373390D01*
X111836666Y-86373390D02*
X111265238Y-86944819D01*
X111265238Y-86944819D02*
X111884285Y-86944819D01*
X105863333Y-114844819D02*
X105530000Y-114368628D01*
X105291905Y-114844819D02*
X105291905Y-113844819D01*
X105291905Y-113844819D02*
X105672857Y-113844819D01*
X105672857Y-113844819D02*
X105768095Y-113892438D01*
X105768095Y-113892438D02*
X105815714Y-113940057D01*
X105815714Y-113940057D02*
X105863333Y-114035295D01*
X105863333Y-114035295D02*
X105863333Y-114178152D01*
X105863333Y-114178152D02*
X105815714Y-114273390D01*
X105815714Y-114273390D02*
X105768095Y-114321009D01*
X105768095Y-114321009D02*
X105672857Y-114368628D01*
X105672857Y-114368628D02*
X105291905Y-114368628D01*
X106196667Y-113844819D02*
X106815714Y-113844819D01*
X106815714Y-113844819D02*
X106482381Y-114225771D01*
X106482381Y-114225771D02*
X106625238Y-114225771D01*
X106625238Y-114225771D02*
X106720476Y-114273390D01*
X106720476Y-114273390D02*
X106768095Y-114321009D01*
X106768095Y-114321009D02*
X106815714Y-114416247D01*
X106815714Y-114416247D02*
X106815714Y-114654342D01*
X106815714Y-114654342D02*
X106768095Y-114749580D01*
X106768095Y-114749580D02*
X106720476Y-114797200D01*
X106720476Y-114797200D02*
X106625238Y-114844819D01*
X106625238Y-114844819D02*
X106339524Y-114844819D01*
X106339524Y-114844819D02*
X106244286Y-114797200D01*
X106244286Y-114797200D02*
X106196667Y-114749580D01*
X137813333Y-101064819D02*
X137480000Y-100588628D01*
X137241905Y-101064819D02*
X137241905Y-100064819D01*
X137241905Y-100064819D02*
X137622857Y-100064819D01*
X137622857Y-100064819D02*
X137718095Y-100112438D01*
X137718095Y-100112438D02*
X137765714Y-100160057D01*
X137765714Y-100160057D02*
X137813333Y-100255295D01*
X137813333Y-100255295D02*
X137813333Y-100398152D01*
X137813333Y-100398152D02*
X137765714Y-100493390D01*
X137765714Y-100493390D02*
X137718095Y-100541009D01*
X137718095Y-100541009D02*
X137622857Y-100588628D01*
X137622857Y-100588628D02*
X137241905Y-100588628D01*
X138384762Y-100493390D02*
X138289524Y-100445771D01*
X138289524Y-100445771D02*
X138241905Y-100398152D01*
X138241905Y-100398152D02*
X138194286Y-100302914D01*
X138194286Y-100302914D02*
X138194286Y-100255295D01*
X138194286Y-100255295D02*
X138241905Y-100160057D01*
X138241905Y-100160057D02*
X138289524Y-100112438D01*
X138289524Y-100112438D02*
X138384762Y-100064819D01*
X138384762Y-100064819D02*
X138575238Y-100064819D01*
X138575238Y-100064819D02*
X138670476Y-100112438D01*
X138670476Y-100112438D02*
X138718095Y-100160057D01*
X138718095Y-100160057D02*
X138765714Y-100255295D01*
X138765714Y-100255295D02*
X138765714Y-100302914D01*
X138765714Y-100302914D02*
X138718095Y-100398152D01*
X138718095Y-100398152D02*
X138670476Y-100445771D01*
X138670476Y-100445771D02*
X138575238Y-100493390D01*
X138575238Y-100493390D02*
X138384762Y-100493390D01*
X138384762Y-100493390D02*
X138289524Y-100541009D01*
X138289524Y-100541009D02*
X138241905Y-100588628D01*
X138241905Y-100588628D02*
X138194286Y-100683866D01*
X138194286Y-100683866D02*
X138194286Y-100874342D01*
X138194286Y-100874342D02*
X138241905Y-100969580D01*
X138241905Y-100969580D02*
X138289524Y-101017200D01*
X138289524Y-101017200D02*
X138384762Y-101064819D01*
X138384762Y-101064819D02*
X138575238Y-101064819D01*
X138575238Y-101064819D02*
X138670476Y-101017200D01*
X138670476Y-101017200D02*
X138718095Y-100969580D01*
X138718095Y-100969580D02*
X138765714Y-100874342D01*
X138765714Y-100874342D02*
X138765714Y-100683866D01*
X138765714Y-100683866D02*
X138718095Y-100588628D01*
X138718095Y-100588628D02*
X138670476Y-100541009D01*
X138670476Y-100541009D02*
X138575238Y-100493390D01*
X95034761Y-74640057D02*
X94939523Y-74592438D01*
X94939523Y-74592438D02*
X94844285Y-74497200D01*
X94844285Y-74497200D02*
X94701428Y-74354342D01*
X94701428Y-74354342D02*
X94606190Y-74306723D01*
X94606190Y-74306723D02*
X94510952Y-74306723D01*
X94558571Y-74544819D02*
X94463333Y-74497200D01*
X94463333Y-74497200D02*
X94368095Y-74401961D01*
X94368095Y-74401961D02*
X94320476Y-74211485D01*
X94320476Y-74211485D02*
X94320476Y-73878152D01*
X94320476Y-73878152D02*
X94368095Y-73687676D01*
X94368095Y-73687676D02*
X94463333Y-73592438D01*
X94463333Y-73592438D02*
X94558571Y-73544819D01*
X94558571Y-73544819D02*
X94749047Y-73544819D01*
X94749047Y-73544819D02*
X94844285Y-73592438D01*
X94844285Y-73592438D02*
X94939523Y-73687676D01*
X94939523Y-73687676D02*
X94987142Y-73878152D01*
X94987142Y-73878152D02*
X94987142Y-74211485D01*
X94987142Y-74211485D02*
X94939523Y-74401961D01*
X94939523Y-74401961D02*
X94844285Y-74497200D01*
X94844285Y-74497200D02*
X94749047Y-74544819D01*
X94749047Y-74544819D02*
X94558571Y-74544819D01*
X95320476Y-73544819D02*
X95939523Y-73544819D01*
X95939523Y-73544819D02*
X95606190Y-73925771D01*
X95606190Y-73925771D02*
X95749047Y-73925771D01*
X95749047Y-73925771D02*
X95844285Y-73973390D01*
X95844285Y-73973390D02*
X95891904Y-74021009D01*
X95891904Y-74021009D02*
X95939523Y-74116247D01*
X95939523Y-74116247D02*
X95939523Y-74354342D01*
X95939523Y-74354342D02*
X95891904Y-74449580D01*
X95891904Y-74449580D02*
X95844285Y-74497200D01*
X95844285Y-74497200D02*
X95749047Y-74544819D01*
X95749047Y-74544819D02*
X95463333Y-74544819D01*
X95463333Y-74544819D02*
X95368095Y-74497200D01*
X95368095Y-74497200D02*
X95320476Y-74449580D01*
X137947142Y-91484819D02*
X137613809Y-91008628D01*
X137375714Y-91484819D02*
X137375714Y-90484819D01*
X137375714Y-90484819D02*
X137756666Y-90484819D01*
X137756666Y-90484819D02*
X137851904Y-90532438D01*
X137851904Y-90532438D02*
X137899523Y-90580057D01*
X137899523Y-90580057D02*
X137947142Y-90675295D01*
X137947142Y-90675295D02*
X137947142Y-90818152D01*
X137947142Y-90818152D02*
X137899523Y-90913390D01*
X137899523Y-90913390D02*
X137851904Y-90961009D01*
X137851904Y-90961009D02*
X137756666Y-91008628D01*
X137756666Y-91008628D02*
X137375714Y-91008628D01*
X138899523Y-91484819D02*
X138328095Y-91484819D01*
X138613809Y-91484819D02*
X138613809Y-90484819D01*
X138613809Y-90484819D02*
X138518571Y-90627676D01*
X138518571Y-90627676D02*
X138423333Y-90722914D01*
X138423333Y-90722914D02*
X138328095Y-90770533D01*
X139375714Y-91484819D02*
X139566190Y-91484819D01*
X139566190Y-91484819D02*
X139661428Y-91437200D01*
X139661428Y-91437200D02*
X139709047Y-91389580D01*
X139709047Y-91389580D02*
X139804285Y-91246723D01*
X139804285Y-91246723D02*
X139851904Y-91056247D01*
X139851904Y-91056247D02*
X139851904Y-90675295D01*
X139851904Y-90675295D02*
X139804285Y-90580057D01*
X139804285Y-90580057D02*
X139756666Y-90532438D01*
X139756666Y-90532438D02*
X139661428Y-90484819D01*
X139661428Y-90484819D02*
X139470952Y-90484819D01*
X139470952Y-90484819D02*
X139375714Y-90532438D01*
X139375714Y-90532438D02*
X139328095Y-90580057D01*
X139328095Y-90580057D02*
X139280476Y-90675295D01*
X139280476Y-90675295D02*
X139280476Y-90913390D01*
X139280476Y-90913390D02*
X139328095Y-91008628D01*
X139328095Y-91008628D02*
X139375714Y-91056247D01*
X139375714Y-91056247D02*
X139470952Y-91103866D01*
X139470952Y-91103866D02*
X139661428Y-91103866D01*
X139661428Y-91103866D02*
X139756666Y-91056247D01*
X139756666Y-91056247D02*
X139804285Y-91008628D01*
X139804285Y-91008628D02*
X139851904Y-90913390D01*
X107387142Y-79644819D02*
X107053809Y-79168628D01*
X106815714Y-79644819D02*
X106815714Y-78644819D01*
X106815714Y-78644819D02*
X107196666Y-78644819D01*
X107196666Y-78644819D02*
X107291904Y-78692438D01*
X107291904Y-78692438D02*
X107339523Y-78740057D01*
X107339523Y-78740057D02*
X107387142Y-78835295D01*
X107387142Y-78835295D02*
X107387142Y-78978152D01*
X107387142Y-78978152D02*
X107339523Y-79073390D01*
X107339523Y-79073390D02*
X107291904Y-79121009D01*
X107291904Y-79121009D02*
X107196666Y-79168628D01*
X107196666Y-79168628D02*
X106815714Y-79168628D01*
X107720476Y-78644819D02*
X108339523Y-78644819D01*
X108339523Y-78644819D02*
X108006190Y-79025771D01*
X108006190Y-79025771D02*
X108149047Y-79025771D01*
X108149047Y-79025771D02*
X108244285Y-79073390D01*
X108244285Y-79073390D02*
X108291904Y-79121009D01*
X108291904Y-79121009D02*
X108339523Y-79216247D01*
X108339523Y-79216247D02*
X108339523Y-79454342D01*
X108339523Y-79454342D02*
X108291904Y-79549580D01*
X108291904Y-79549580D02*
X108244285Y-79597200D01*
X108244285Y-79597200D02*
X108149047Y-79644819D01*
X108149047Y-79644819D02*
X107863333Y-79644819D01*
X107863333Y-79644819D02*
X107768095Y-79597200D01*
X107768095Y-79597200D02*
X107720476Y-79549580D01*
X109196666Y-78978152D02*
X109196666Y-79644819D01*
X108958571Y-78597200D02*
X108720476Y-79311485D01*
X108720476Y-79311485D02*
X109339523Y-79311485D01*
X137937142Y-113864819D02*
X137603809Y-113388628D01*
X137365714Y-113864819D02*
X137365714Y-112864819D01*
X137365714Y-112864819D02*
X137746666Y-112864819D01*
X137746666Y-112864819D02*
X137841904Y-112912438D01*
X137841904Y-112912438D02*
X137889523Y-112960057D01*
X137889523Y-112960057D02*
X137937142Y-113055295D01*
X137937142Y-113055295D02*
X137937142Y-113198152D01*
X137937142Y-113198152D02*
X137889523Y-113293390D01*
X137889523Y-113293390D02*
X137841904Y-113341009D01*
X137841904Y-113341009D02*
X137746666Y-113388628D01*
X137746666Y-113388628D02*
X137365714Y-113388628D01*
X138889523Y-113864819D02*
X138318095Y-113864819D01*
X138603809Y-113864819D02*
X138603809Y-112864819D01*
X138603809Y-112864819D02*
X138508571Y-113007676D01*
X138508571Y-113007676D02*
X138413333Y-113102914D01*
X138413333Y-113102914D02*
X138318095Y-113150533D01*
X139746666Y-113198152D02*
X139746666Y-113864819D01*
X139508571Y-112817200D02*
X139270476Y-113531485D01*
X139270476Y-113531485D02*
X139889523Y-113531485D01*
X94787142Y-98469580D02*
X94739523Y-98517200D01*
X94739523Y-98517200D02*
X94596666Y-98564819D01*
X94596666Y-98564819D02*
X94501428Y-98564819D01*
X94501428Y-98564819D02*
X94358571Y-98517200D01*
X94358571Y-98517200D02*
X94263333Y-98421961D01*
X94263333Y-98421961D02*
X94215714Y-98326723D01*
X94215714Y-98326723D02*
X94168095Y-98136247D01*
X94168095Y-98136247D02*
X94168095Y-97993390D01*
X94168095Y-97993390D02*
X94215714Y-97802914D01*
X94215714Y-97802914D02*
X94263333Y-97707676D01*
X94263333Y-97707676D02*
X94358571Y-97612438D01*
X94358571Y-97612438D02*
X94501428Y-97564819D01*
X94501428Y-97564819D02*
X94596666Y-97564819D01*
X94596666Y-97564819D02*
X94739523Y-97612438D01*
X94739523Y-97612438D02*
X94787142Y-97660057D01*
X95739523Y-98564819D02*
X95168095Y-98564819D01*
X95453809Y-98564819D02*
X95453809Y-97564819D01*
X95453809Y-97564819D02*
X95358571Y-97707676D01*
X95358571Y-97707676D02*
X95263333Y-97802914D01*
X95263333Y-97802914D02*
X95168095Y-97850533D01*
X96691904Y-98564819D02*
X96120476Y-98564819D01*
X96406190Y-98564819D02*
X96406190Y-97564819D01*
X96406190Y-97564819D02*
X96310952Y-97707676D01*
X96310952Y-97707676D02*
X96215714Y-97802914D01*
X96215714Y-97802914D02*
X96120476Y-97850533D01*
X137791905Y-135024819D02*
X137791905Y-134024819D01*
X137791905Y-134501009D02*
X138363333Y-134501009D01*
X138363333Y-135024819D02*
X138363333Y-134024819D01*
X138791905Y-134977200D02*
X138934762Y-135024819D01*
X138934762Y-135024819D02*
X139172857Y-135024819D01*
X139172857Y-135024819D02*
X139268095Y-134977200D01*
X139268095Y-134977200D02*
X139315714Y-134929580D01*
X139315714Y-134929580D02*
X139363333Y-134834342D01*
X139363333Y-134834342D02*
X139363333Y-134739104D01*
X139363333Y-134739104D02*
X139315714Y-134643866D01*
X139315714Y-134643866D02*
X139268095Y-134596247D01*
X139268095Y-134596247D02*
X139172857Y-134548628D01*
X139172857Y-134548628D02*
X138982381Y-134501009D01*
X138982381Y-134501009D02*
X138887143Y-134453390D01*
X138887143Y-134453390D02*
X138839524Y-134405771D01*
X138839524Y-134405771D02*
X138791905Y-134310533D01*
X138791905Y-134310533D02*
X138791905Y-134215295D01*
X138791905Y-134215295D02*
X138839524Y-134120057D01*
X138839524Y-134120057D02*
X138887143Y-134072438D01*
X138887143Y-134072438D02*
X138982381Y-134024819D01*
X138982381Y-134024819D02*
X139220476Y-134024819D01*
X139220476Y-134024819D02*
X139363333Y-134072438D01*
X140220476Y-134358152D02*
X140220476Y-135024819D01*
X139982381Y-133977200D02*
X139744286Y-134691485D01*
X139744286Y-134691485D02*
X140363333Y-134691485D01*
X185764819Y-137253094D02*
X184764819Y-137253094D01*
X184764819Y-137253094D02*
X184764819Y-137014999D01*
X184764819Y-137014999D02*
X184812438Y-136872142D01*
X184812438Y-136872142D02*
X184907676Y-136776904D01*
X184907676Y-136776904D02*
X185002914Y-136729285D01*
X185002914Y-136729285D02*
X185193390Y-136681666D01*
X185193390Y-136681666D02*
X185336247Y-136681666D01*
X185336247Y-136681666D02*
X185526723Y-136729285D01*
X185526723Y-136729285D02*
X185621961Y-136776904D01*
X185621961Y-136776904D02*
X185717200Y-136872142D01*
X185717200Y-136872142D02*
X185764819Y-137014999D01*
X185764819Y-137014999D02*
X185764819Y-137253094D01*
X184764819Y-136348332D02*
X184764819Y-135681666D01*
X184764819Y-135681666D02*
X185764819Y-136110237D01*
X92003333Y-122469580D02*
X91955714Y-122517200D01*
X91955714Y-122517200D02*
X91812857Y-122564819D01*
X91812857Y-122564819D02*
X91717619Y-122564819D01*
X91717619Y-122564819D02*
X91574762Y-122517200D01*
X91574762Y-122517200D02*
X91479524Y-122421961D01*
X91479524Y-122421961D02*
X91431905Y-122326723D01*
X91431905Y-122326723D02*
X91384286Y-122136247D01*
X91384286Y-122136247D02*
X91384286Y-121993390D01*
X91384286Y-121993390D02*
X91431905Y-121802914D01*
X91431905Y-121802914D02*
X91479524Y-121707676D01*
X91479524Y-121707676D02*
X91574762Y-121612438D01*
X91574762Y-121612438D02*
X91717619Y-121564819D01*
X91717619Y-121564819D02*
X91812857Y-121564819D01*
X91812857Y-121564819D02*
X91955714Y-121612438D01*
X91955714Y-121612438D02*
X92003333Y-121660057D01*
X92336667Y-121564819D02*
X92955714Y-121564819D01*
X92955714Y-121564819D02*
X92622381Y-121945771D01*
X92622381Y-121945771D02*
X92765238Y-121945771D01*
X92765238Y-121945771D02*
X92860476Y-121993390D01*
X92860476Y-121993390D02*
X92908095Y-122041009D01*
X92908095Y-122041009D02*
X92955714Y-122136247D01*
X92955714Y-122136247D02*
X92955714Y-122374342D01*
X92955714Y-122374342D02*
X92908095Y-122469580D01*
X92908095Y-122469580D02*
X92860476Y-122517200D01*
X92860476Y-122517200D02*
X92765238Y-122564819D01*
X92765238Y-122564819D02*
X92479524Y-122564819D01*
X92479524Y-122564819D02*
X92384286Y-122517200D01*
X92384286Y-122517200D02*
X92336667Y-122469580D01*
X160431905Y-108464819D02*
X160431905Y-107464819D01*
X160431905Y-107464819D02*
X160670000Y-107464819D01*
X160670000Y-107464819D02*
X160812857Y-107512438D01*
X160812857Y-107512438D02*
X160908095Y-107607676D01*
X160908095Y-107607676D02*
X160955714Y-107702914D01*
X160955714Y-107702914D02*
X161003333Y-107893390D01*
X161003333Y-107893390D02*
X161003333Y-108036247D01*
X161003333Y-108036247D02*
X160955714Y-108226723D01*
X160955714Y-108226723D02*
X160908095Y-108321961D01*
X160908095Y-108321961D02*
X160812857Y-108417200D01*
X160812857Y-108417200D02*
X160670000Y-108464819D01*
X160670000Y-108464819D02*
X160431905Y-108464819D01*
X161336667Y-107464819D02*
X161955714Y-107464819D01*
X161955714Y-107464819D02*
X161622381Y-107845771D01*
X161622381Y-107845771D02*
X161765238Y-107845771D01*
X161765238Y-107845771D02*
X161860476Y-107893390D01*
X161860476Y-107893390D02*
X161908095Y-107941009D01*
X161908095Y-107941009D02*
X161955714Y-108036247D01*
X161955714Y-108036247D02*
X161955714Y-108274342D01*
X161955714Y-108274342D02*
X161908095Y-108369580D01*
X161908095Y-108369580D02*
X161860476Y-108417200D01*
X161860476Y-108417200D02*
X161765238Y-108464819D01*
X161765238Y-108464819D02*
X161479524Y-108464819D01*
X161479524Y-108464819D02*
X161384286Y-108417200D01*
X161384286Y-108417200D02*
X161336667Y-108369580D01*
X158818095Y-110164819D02*
X158818095Y-109164819D01*
X159389523Y-110164819D02*
X158960952Y-109593390D01*
X159389523Y-109164819D02*
X158818095Y-109736247D01*
X95563333Y-105069580D02*
X95515714Y-105117200D01*
X95515714Y-105117200D02*
X95372857Y-105164819D01*
X95372857Y-105164819D02*
X95277619Y-105164819D01*
X95277619Y-105164819D02*
X95134762Y-105117200D01*
X95134762Y-105117200D02*
X95039524Y-105021961D01*
X95039524Y-105021961D02*
X94991905Y-104926723D01*
X94991905Y-104926723D02*
X94944286Y-104736247D01*
X94944286Y-104736247D02*
X94944286Y-104593390D01*
X94944286Y-104593390D02*
X94991905Y-104402914D01*
X94991905Y-104402914D02*
X95039524Y-104307676D01*
X95039524Y-104307676D02*
X95134762Y-104212438D01*
X95134762Y-104212438D02*
X95277619Y-104164819D01*
X95277619Y-104164819D02*
X95372857Y-104164819D01*
X95372857Y-104164819D02*
X95515714Y-104212438D01*
X95515714Y-104212438D02*
X95563333Y-104260057D01*
X96039524Y-105164819D02*
X96230000Y-105164819D01*
X96230000Y-105164819D02*
X96325238Y-105117200D01*
X96325238Y-105117200D02*
X96372857Y-105069580D01*
X96372857Y-105069580D02*
X96468095Y-104926723D01*
X96468095Y-104926723D02*
X96515714Y-104736247D01*
X96515714Y-104736247D02*
X96515714Y-104355295D01*
X96515714Y-104355295D02*
X96468095Y-104260057D01*
X96468095Y-104260057D02*
X96420476Y-104212438D01*
X96420476Y-104212438D02*
X96325238Y-104164819D01*
X96325238Y-104164819D02*
X96134762Y-104164819D01*
X96134762Y-104164819D02*
X96039524Y-104212438D01*
X96039524Y-104212438D02*
X95991905Y-104260057D01*
X95991905Y-104260057D02*
X95944286Y-104355295D01*
X95944286Y-104355295D02*
X95944286Y-104593390D01*
X95944286Y-104593390D02*
X95991905Y-104688628D01*
X95991905Y-104688628D02*
X96039524Y-104736247D01*
X96039524Y-104736247D02*
X96134762Y-104783866D01*
X96134762Y-104783866D02*
X96325238Y-104783866D01*
X96325238Y-104783866D02*
X96420476Y-104736247D01*
X96420476Y-104736247D02*
X96468095Y-104688628D01*
X96468095Y-104688628D02*
X96515714Y-104593390D01*
X117708095Y-87116819D02*
X118279523Y-87116819D01*
X117993809Y-88116819D02*
X117993809Y-87116819D01*
X118612857Y-88116819D02*
X118612857Y-87116819D01*
X118612857Y-87116819D02*
X118993809Y-87116819D01*
X118993809Y-87116819D02*
X119089047Y-87164438D01*
X119089047Y-87164438D02*
X119136666Y-87212057D01*
X119136666Y-87212057D02*
X119184285Y-87307295D01*
X119184285Y-87307295D02*
X119184285Y-87450152D01*
X119184285Y-87450152D02*
X119136666Y-87545390D01*
X119136666Y-87545390D02*
X119089047Y-87593009D01*
X119089047Y-87593009D02*
X118993809Y-87640628D01*
X118993809Y-87640628D02*
X118612857Y-87640628D01*
X120041428Y-87116819D02*
X119850952Y-87116819D01*
X119850952Y-87116819D02*
X119755714Y-87164438D01*
X119755714Y-87164438D02*
X119708095Y-87212057D01*
X119708095Y-87212057D02*
X119612857Y-87354914D01*
X119612857Y-87354914D02*
X119565238Y-87545390D01*
X119565238Y-87545390D02*
X119565238Y-87926342D01*
X119565238Y-87926342D02*
X119612857Y-88021580D01*
X119612857Y-88021580D02*
X119660476Y-88069200D01*
X119660476Y-88069200D02*
X119755714Y-88116819D01*
X119755714Y-88116819D02*
X119946190Y-88116819D01*
X119946190Y-88116819D02*
X120041428Y-88069200D01*
X120041428Y-88069200D02*
X120089047Y-88021580D01*
X120089047Y-88021580D02*
X120136666Y-87926342D01*
X120136666Y-87926342D02*
X120136666Y-87688247D01*
X120136666Y-87688247D02*
X120089047Y-87593009D01*
X120089047Y-87593009D02*
X120041428Y-87545390D01*
X120041428Y-87545390D02*
X119946190Y-87497771D01*
X119946190Y-87497771D02*
X119755714Y-87497771D01*
X119755714Y-87497771D02*
X119660476Y-87545390D01*
X119660476Y-87545390D02*
X119612857Y-87593009D01*
X119612857Y-87593009D02*
X119565238Y-87688247D01*
X106415714Y-86444819D02*
X106415714Y-85444819D01*
X106415714Y-85444819D02*
X106653809Y-85444819D01*
X106653809Y-85444819D02*
X106796666Y-85492438D01*
X106796666Y-85492438D02*
X106891904Y-85587676D01*
X106891904Y-85587676D02*
X106939523Y-85682914D01*
X106939523Y-85682914D02*
X106987142Y-85873390D01*
X106987142Y-85873390D02*
X106987142Y-86016247D01*
X106987142Y-86016247D02*
X106939523Y-86206723D01*
X106939523Y-86206723D02*
X106891904Y-86301961D01*
X106891904Y-86301961D02*
X106796666Y-86397200D01*
X106796666Y-86397200D02*
X106653809Y-86444819D01*
X106653809Y-86444819D02*
X106415714Y-86444819D01*
X107939523Y-86444819D02*
X107368095Y-86444819D01*
X107653809Y-86444819D02*
X107653809Y-85444819D01*
X107653809Y-85444819D02*
X107558571Y-85587676D01*
X107558571Y-85587676D02*
X107463333Y-85682914D01*
X107463333Y-85682914D02*
X107368095Y-85730533D01*
X108320476Y-85540057D02*
X108368095Y-85492438D01*
X108368095Y-85492438D02*
X108463333Y-85444819D01*
X108463333Y-85444819D02*
X108701428Y-85444819D01*
X108701428Y-85444819D02*
X108796666Y-85492438D01*
X108796666Y-85492438D02*
X108844285Y-85540057D01*
X108844285Y-85540057D02*
X108891904Y-85635295D01*
X108891904Y-85635295D02*
X108891904Y-85730533D01*
X108891904Y-85730533D02*
X108844285Y-85873390D01*
X108844285Y-85873390D02*
X108272857Y-86444819D01*
X108272857Y-86444819D02*
X108891904Y-86444819D01*
X97148095Y-84644819D02*
X97148095Y-83644819D01*
X97719523Y-84644819D02*
X97290952Y-84073390D01*
X97719523Y-83644819D02*
X97148095Y-84216247D01*
X161027142Y-115964819D02*
X160693809Y-115488628D01*
X160455714Y-115964819D02*
X160455714Y-114964819D01*
X160455714Y-114964819D02*
X160836666Y-114964819D01*
X160836666Y-114964819D02*
X160931904Y-115012438D01*
X160931904Y-115012438D02*
X160979523Y-115060057D01*
X160979523Y-115060057D02*
X161027142Y-115155295D01*
X161027142Y-115155295D02*
X161027142Y-115298152D01*
X161027142Y-115298152D02*
X160979523Y-115393390D01*
X160979523Y-115393390D02*
X160931904Y-115441009D01*
X160931904Y-115441009D02*
X160836666Y-115488628D01*
X160836666Y-115488628D02*
X160455714Y-115488628D01*
X161360476Y-114964819D02*
X161979523Y-114964819D01*
X161979523Y-114964819D02*
X161646190Y-115345771D01*
X161646190Y-115345771D02*
X161789047Y-115345771D01*
X161789047Y-115345771D02*
X161884285Y-115393390D01*
X161884285Y-115393390D02*
X161931904Y-115441009D01*
X161931904Y-115441009D02*
X161979523Y-115536247D01*
X161979523Y-115536247D02*
X161979523Y-115774342D01*
X161979523Y-115774342D02*
X161931904Y-115869580D01*
X161931904Y-115869580D02*
X161884285Y-115917200D01*
X161884285Y-115917200D02*
X161789047Y-115964819D01*
X161789047Y-115964819D02*
X161503333Y-115964819D01*
X161503333Y-115964819D02*
X161408095Y-115917200D01*
X161408095Y-115917200D02*
X161360476Y-115869580D01*
X162598571Y-114964819D02*
X162693809Y-114964819D01*
X162693809Y-114964819D02*
X162789047Y-115012438D01*
X162789047Y-115012438D02*
X162836666Y-115060057D01*
X162836666Y-115060057D02*
X162884285Y-115155295D01*
X162884285Y-115155295D02*
X162931904Y-115345771D01*
X162931904Y-115345771D02*
X162931904Y-115583866D01*
X162931904Y-115583866D02*
X162884285Y-115774342D01*
X162884285Y-115774342D02*
X162836666Y-115869580D01*
X162836666Y-115869580D02*
X162789047Y-115917200D01*
X162789047Y-115917200D02*
X162693809Y-115964819D01*
X162693809Y-115964819D02*
X162598571Y-115964819D01*
X162598571Y-115964819D02*
X162503333Y-115917200D01*
X162503333Y-115917200D02*
X162455714Y-115869580D01*
X162455714Y-115869580D02*
X162408095Y-115774342D01*
X162408095Y-115774342D02*
X162360476Y-115583866D01*
X162360476Y-115583866D02*
X162360476Y-115345771D01*
X162360476Y-115345771D02*
X162408095Y-115155295D01*
X162408095Y-115155295D02*
X162455714Y-115060057D01*
X162455714Y-115060057D02*
X162503333Y-115012438D01*
X162503333Y-115012438D02*
X162598571Y-114964819D01*
X160927142Y-91464819D02*
X160593809Y-90988628D01*
X160355714Y-91464819D02*
X160355714Y-90464819D01*
X160355714Y-90464819D02*
X160736666Y-90464819D01*
X160736666Y-90464819D02*
X160831904Y-90512438D01*
X160831904Y-90512438D02*
X160879523Y-90560057D01*
X160879523Y-90560057D02*
X160927142Y-90655295D01*
X160927142Y-90655295D02*
X160927142Y-90798152D01*
X160927142Y-90798152D02*
X160879523Y-90893390D01*
X160879523Y-90893390D02*
X160831904Y-90941009D01*
X160831904Y-90941009D02*
X160736666Y-90988628D01*
X160736666Y-90988628D02*
X160355714Y-90988628D01*
X161308095Y-90560057D02*
X161355714Y-90512438D01*
X161355714Y-90512438D02*
X161450952Y-90464819D01*
X161450952Y-90464819D02*
X161689047Y-90464819D01*
X161689047Y-90464819D02*
X161784285Y-90512438D01*
X161784285Y-90512438D02*
X161831904Y-90560057D01*
X161831904Y-90560057D02*
X161879523Y-90655295D01*
X161879523Y-90655295D02*
X161879523Y-90750533D01*
X161879523Y-90750533D02*
X161831904Y-90893390D01*
X161831904Y-90893390D02*
X161260476Y-91464819D01*
X161260476Y-91464819D02*
X161879523Y-91464819D01*
X162212857Y-90464819D02*
X162831904Y-90464819D01*
X162831904Y-90464819D02*
X162498571Y-90845771D01*
X162498571Y-90845771D02*
X162641428Y-90845771D01*
X162641428Y-90845771D02*
X162736666Y-90893390D01*
X162736666Y-90893390D02*
X162784285Y-90941009D01*
X162784285Y-90941009D02*
X162831904Y-91036247D01*
X162831904Y-91036247D02*
X162831904Y-91274342D01*
X162831904Y-91274342D02*
X162784285Y-91369580D01*
X162784285Y-91369580D02*
X162736666Y-91417200D01*
X162736666Y-91417200D02*
X162641428Y-91464819D01*
X162641428Y-91464819D02*
X162355714Y-91464819D01*
X162355714Y-91464819D02*
X162260476Y-91417200D01*
X162260476Y-91417200D02*
X162212857Y-91369580D01*
X97027142Y-94784819D02*
X96693809Y-94308628D01*
X96455714Y-94784819D02*
X96455714Y-93784819D01*
X96455714Y-93784819D02*
X96836666Y-93784819D01*
X96836666Y-93784819D02*
X96931904Y-93832438D01*
X96931904Y-93832438D02*
X96979523Y-93880057D01*
X96979523Y-93880057D02*
X97027142Y-93975295D01*
X97027142Y-93975295D02*
X97027142Y-94118152D01*
X97027142Y-94118152D02*
X96979523Y-94213390D01*
X96979523Y-94213390D02*
X96931904Y-94261009D01*
X96931904Y-94261009D02*
X96836666Y-94308628D01*
X96836666Y-94308628D02*
X96455714Y-94308628D01*
X97360476Y-93784819D02*
X97979523Y-93784819D01*
X97979523Y-93784819D02*
X97646190Y-94165771D01*
X97646190Y-94165771D02*
X97789047Y-94165771D01*
X97789047Y-94165771D02*
X97884285Y-94213390D01*
X97884285Y-94213390D02*
X97931904Y-94261009D01*
X97931904Y-94261009D02*
X97979523Y-94356247D01*
X97979523Y-94356247D02*
X97979523Y-94594342D01*
X97979523Y-94594342D02*
X97931904Y-94689580D01*
X97931904Y-94689580D02*
X97884285Y-94737200D01*
X97884285Y-94737200D02*
X97789047Y-94784819D01*
X97789047Y-94784819D02*
X97503333Y-94784819D01*
X97503333Y-94784819D02*
X97408095Y-94737200D01*
X97408095Y-94737200D02*
X97360476Y-94689580D01*
X98836666Y-93784819D02*
X98646190Y-93784819D01*
X98646190Y-93784819D02*
X98550952Y-93832438D01*
X98550952Y-93832438D02*
X98503333Y-93880057D01*
X98503333Y-93880057D02*
X98408095Y-94022914D01*
X98408095Y-94022914D02*
X98360476Y-94213390D01*
X98360476Y-94213390D02*
X98360476Y-94594342D01*
X98360476Y-94594342D02*
X98408095Y-94689580D01*
X98408095Y-94689580D02*
X98455714Y-94737200D01*
X98455714Y-94737200D02*
X98550952Y-94784819D01*
X98550952Y-94784819D02*
X98741428Y-94784819D01*
X98741428Y-94784819D02*
X98836666Y-94737200D01*
X98836666Y-94737200D02*
X98884285Y-94689580D01*
X98884285Y-94689580D02*
X98931904Y-94594342D01*
X98931904Y-94594342D02*
X98931904Y-94356247D01*
X98931904Y-94356247D02*
X98884285Y-94261009D01*
X98884285Y-94261009D02*
X98836666Y-94213390D01*
X98836666Y-94213390D02*
X98741428Y-94165771D01*
X98741428Y-94165771D02*
X98550952Y-94165771D01*
X98550952Y-94165771D02*
X98455714Y-94213390D01*
X98455714Y-94213390D02*
X98408095Y-94261009D01*
X98408095Y-94261009D02*
X98360476Y-94356247D01*
X144255714Y-85464819D02*
X144255714Y-84464819D01*
X144255714Y-84464819D02*
X144493809Y-84464819D01*
X144493809Y-84464819D02*
X144636666Y-84512438D01*
X144636666Y-84512438D02*
X144731904Y-84607676D01*
X144731904Y-84607676D02*
X144779523Y-84702914D01*
X144779523Y-84702914D02*
X144827142Y-84893390D01*
X144827142Y-84893390D02*
X144827142Y-85036247D01*
X144827142Y-85036247D02*
X144779523Y-85226723D01*
X144779523Y-85226723D02*
X144731904Y-85321961D01*
X144731904Y-85321961D02*
X144636666Y-85417200D01*
X144636666Y-85417200D02*
X144493809Y-85464819D01*
X144493809Y-85464819D02*
X144255714Y-85464819D01*
X145779523Y-85464819D02*
X145208095Y-85464819D01*
X145493809Y-85464819D02*
X145493809Y-84464819D01*
X145493809Y-84464819D02*
X145398571Y-84607676D01*
X145398571Y-84607676D02*
X145303333Y-84702914D01*
X145303333Y-84702914D02*
X145208095Y-84750533D01*
X146398571Y-84464819D02*
X146493809Y-84464819D01*
X146493809Y-84464819D02*
X146589047Y-84512438D01*
X146589047Y-84512438D02*
X146636666Y-84560057D01*
X146636666Y-84560057D02*
X146684285Y-84655295D01*
X146684285Y-84655295D02*
X146731904Y-84845771D01*
X146731904Y-84845771D02*
X146731904Y-85083866D01*
X146731904Y-85083866D02*
X146684285Y-85274342D01*
X146684285Y-85274342D02*
X146636666Y-85369580D01*
X146636666Y-85369580D02*
X146589047Y-85417200D01*
X146589047Y-85417200D02*
X146493809Y-85464819D01*
X146493809Y-85464819D02*
X146398571Y-85464819D01*
X146398571Y-85464819D02*
X146303333Y-85417200D01*
X146303333Y-85417200D02*
X146255714Y-85369580D01*
X146255714Y-85369580D02*
X146208095Y-85274342D01*
X146208095Y-85274342D02*
X146160476Y-85083866D01*
X146160476Y-85083866D02*
X146160476Y-84845771D01*
X146160476Y-84845771D02*
X146208095Y-84655295D01*
X146208095Y-84655295D02*
X146255714Y-84560057D01*
X146255714Y-84560057D02*
X146303333Y-84512438D01*
X146303333Y-84512438D02*
X146398571Y-84464819D01*
X135098095Y-83564819D02*
X135098095Y-82564819D01*
X135669523Y-83564819D02*
X135240952Y-82993390D01*
X135669523Y-82564819D02*
X135098095Y-83136247D01*
X160431905Y-97664819D02*
X160431905Y-96664819D01*
X160431905Y-96664819D02*
X160670000Y-96664819D01*
X160670000Y-96664819D02*
X160812857Y-96712438D01*
X160812857Y-96712438D02*
X160908095Y-96807676D01*
X160908095Y-96807676D02*
X160955714Y-96902914D01*
X160955714Y-96902914D02*
X161003333Y-97093390D01*
X161003333Y-97093390D02*
X161003333Y-97236247D01*
X161003333Y-97236247D02*
X160955714Y-97426723D01*
X160955714Y-97426723D02*
X160908095Y-97521961D01*
X160908095Y-97521961D02*
X160812857Y-97617200D01*
X160812857Y-97617200D02*
X160670000Y-97664819D01*
X160670000Y-97664819D02*
X160431905Y-97664819D01*
X161860476Y-96998152D02*
X161860476Y-97664819D01*
X161622381Y-96617200D02*
X161384286Y-97331485D01*
X161384286Y-97331485D02*
X162003333Y-97331485D01*
X158818095Y-99464819D02*
X158818095Y-98464819D01*
X159389523Y-99464819D02*
X158960952Y-98893390D01*
X159389523Y-98464819D02*
X158818095Y-99036247D01*
X100266905Y-68409819D02*
X100266905Y-67409819D01*
X100266905Y-67886009D02*
X100838333Y-67886009D01*
X100838333Y-68409819D02*
X100838333Y-67409819D01*
X101266905Y-68362200D02*
X101409762Y-68409819D01*
X101409762Y-68409819D02*
X101647857Y-68409819D01*
X101647857Y-68409819D02*
X101743095Y-68362200D01*
X101743095Y-68362200D02*
X101790714Y-68314580D01*
X101790714Y-68314580D02*
X101838333Y-68219342D01*
X101838333Y-68219342D02*
X101838333Y-68124104D01*
X101838333Y-68124104D02*
X101790714Y-68028866D01*
X101790714Y-68028866D02*
X101743095Y-67981247D01*
X101743095Y-67981247D02*
X101647857Y-67933628D01*
X101647857Y-67933628D02*
X101457381Y-67886009D01*
X101457381Y-67886009D02*
X101362143Y-67838390D01*
X101362143Y-67838390D02*
X101314524Y-67790771D01*
X101314524Y-67790771D02*
X101266905Y-67695533D01*
X101266905Y-67695533D02*
X101266905Y-67600295D01*
X101266905Y-67600295D02*
X101314524Y-67505057D01*
X101314524Y-67505057D02*
X101362143Y-67457438D01*
X101362143Y-67457438D02*
X101457381Y-67409819D01*
X101457381Y-67409819D02*
X101695476Y-67409819D01*
X101695476Y-67409819D02*
X101838333Y-67457438D01*
X102790714Y-68409819D02*
X102219286Y-68409819D01*
X102505000Y-68409819D02*
X102505000Y-67409819D01*
X102505000Y-67409819D02*
X102409762Y-67552676D01*
X102409762Y-67552676D02*
X102314524Y-67647914D01*
X102314524Y-67647914D02*
X102219286Y-67695533D01*
X178217142Y-120664819D02*
X177883809Y-120188628D01*
X177645714Y-120664819D02*
X177645714Y-119664819D01*
X177645714Y-119664819D02*
X178026666Y-119664819D01*
X178026666Y-119664819D02*
X178121904Y-119712438D01*
X178121904Y-119712438D02*
X178169523Y-119760057D01*
X178169523Y-119760057D02*
X178217142Y-119855295D01*
X178217142Y-119855295D02*
X178217142Y-119998152D01*
X178217142Y-119998152D02*
X178169523Y-120093390D01*
X178169523Y-120093390D02*
X178121904Y-120141009D01*
X178121904Y-120141009D02*
X178026666Y-120188628D01*
X178026666Y-120188628D02*
X177645714Y-120188628D01*
X178598095Y-119760057D02*
X178645714Y-119712438D01*
X178645714Y-119712438D02*
X178740952Y-119664819D01*
X178740952Y-119664819D02*
X178979047Y-119664819D01*
X178979047Y-119664819D02*
X179074285Y-119712438D01*
X179074285Y-119712438D02*
X179121904Y-119760057D01*
X179121904Y-119760057D02*
X179169523Y-119855295D01*
X179169523Y-119855295D02*
X179169523Y-119950533D01*
X179169523Y-119950533D02*
X179121904Y-120093390D01*
X179121904Y-120093390D02*
X178550476Y-120664819D01*
X178550476Y-120664819D02*
X179169523Y-120664819D01*
X180074285Y-119664819D02*
X179598095Y-119664819D01*
X179598095Y-119664819D02*
X179550476Y-120141009D01*
X179550476Y-120141009D02*
X179598095Y-120093390D01*
X179598095Y-120093390D02*
X179693333Y-120045771D01*
X179693333Y-120045771D02*
X179931428Y-120045771D01*
X179931428Y-120045771D02*
X180026666Y-120093390D01*
X180026666Y-120093390D02*
X180074285Y-120141009D01*
X180074285Y-120141009D02*
X180121904Y-120236247D01*
X180121904Y-120236247D02*
X180121904Y-120474342D01*
X180121904Y-120474342D02*
X180074285Y-120569580D01*
X180074285Y-120569580D02*
X180026666Y-120617200D01*
X180026666Y-120617200D02*
X179931428Y-120664819D01*
X179931428Y-120664819D02*
X179693333Y-120664819D01*
X179693333Y-120664819D02*
X179598095Y-120617200D01*
X179598095Y-120617200D02*
X179550476Y-120569580D01*
X144668095Y-109616819D02*
X145239523Y-109616819D01*
X144953809Y-110616819D02*
X144953809Y-109616819D01*
X145572857Y-110616819D02*
X145572857Y-109616819D01*
X145572857Y-109616819D02*
X145953809Y-109616819D01*
X145953809Y-109616819D02*
X146049047Y-109664438D01*
X146049047Y-109664438D02*
X146096666Y-109712057D01*
X146096666Y-109712057D02*
X146144285Y-109807295D01*
X146144285Y-109807295D02*
X146144285Y-109950152D01*
X146144285Y-109950152D02*
X146096666Y-110045390D01*
X146096666Y-110045390D02*
X146049047Y-110093009D01*
X146049047Y-110093009D02*
X145953809Y-110140628D01*
X145953809Y-110140628D02*
X145572857Y-110140628D01*
X146525238Y-109712057D02*
X146572857Y-109664438D01*
X146572857Y-109664438D02*
X146668095Y-109616819D01*
X146668095Y-109616819D02*
X146906190Y-109616819D01*
X146906190Y-109616819D02*
X147001428Y-109664438D01*
X147001428Y-109664438D02*
X147049047Y-109712057D01*
X147049047Y-109712057D02*
X147096666Y-109807295D01*
X147096666Y-109807295D02*
X147096666Y-109902533D01*
X147096666Y-109902533D02*
X147049047Y-110045390D01*
X147049047Y-110045390D02*
X146477619Y-110616819D01*
X146477619Y-110616819D02*
X147096666Y-110616819D01*
X78168095Y-71367763D02*
X78168095Y-70367763D01*
X78168095Y-70843953D02*
X78739523Y-70843953D01*
X78739523Y-71367763D02*
X78739523Y-70367763D01*
X79739523Y-71367763D02*
X79168095Y-71367763D01*
X79453809Y-71367763D02*
X79453809Y-70367763D01*
X79453809Y-70367763D02*
X79358571Y-70510620D01*
X79358571Y-70510620D02*
X79263333Y-70605858D01*
X79263333Y-70605858D02*
X79168095Y-70653477D01*
X100266905Y-135024819D02*
X100266905Y-134024819D01*
X100266905Y-134501009D02*
X100838333Y-134501009D01*
X100838333Y-135024819D02*
X100838333Y-134024819D01*
X101266905Y-134977200D02*
X101409762Y-135024819D01*
X101409762Y-135024819D02*
X101647857Y-135024819D01*
X101647857Y-135024819D02*
X101743095Y-134977200D01*
X101743095Y-134977200D02*
X101790714Y-134929580D01*
X101790714Y-134929580D02*
X101838333Y-134834342D01*
X101838333Y-134834342D02*
X101838333Y-134739104D01*
X101838333Y-134739104D02*
X101790714Y-134643866D01*
X101790714Y-134643866D02*
X101743095Y-134596247D01*
X101743095Y-134596247D02*
X101647857Y-134548628D01*
X101647857Y-134548628D02*
X101457381Y-134501009D01*
X101457381Y-134501009D02*
X101362143Y-134453390D01*
X101362143Y-134453390D02*
X101314524Y-134405771D01*
X101314524Y-134405771D02*
X101266905Y-134310533D01*
X101266905Y-134310533D02*
X101266905Y-134215295D01*
X101266905Y-134215295D02*
X101314524Y-134120057D01*
X101314524Y-134120057D02*
X101362143Y-134072438D01*
X101362143Y-134072438D02*
X101457381Y-134024819D01*
X101457381Y-134024819D02*
X101695476Y-134024819D01*
X101695476Y-134024819D02*
X101838333Y-134072438D01*
X102219286Y-134120057D02*
X102266905Y-134072438D01*
X102266905Y-134072438D02*
X102362143Y-134024819D01*
X102362143Y-134024819D02*
X102600238Y-134024819D01*
X102600238Y-134024819D02*
X102695476Y-134072438D01*
X102695476Y-134072438D02*
X102743095Y-134120057D01*
X102743095Y-134120057D02*
X102790714Y-134215295D01*
X102790714Y-134215295D02*
X102790714Y-134310533D01*
X102790714Y-134310533D02*
X102743095Y-134453390D01*
X102743095Y-134453390D02*
X102171667Y-135024819D01*
X102171667Y-135024819D02*
X102790714Y-135024819D01*
X205568095Y-132064819D02*
X205568095Y-131064819D01*
X205568095Y-131541009D02*
X206139523Y-131541009D01*
X206139523Y-132064819D02*
X206139523Y-131064819D01*
X207044285Y-131398152D02*
X207044285Y-132064819D01*
X206806190Y-131017200D02*
X206568095Y-131731485D01*
X206568095Y-131731485D02*
X207187142Y-131731485D01*
X160903333Y-81864819D02*
X160570000Y-81388628D01*
X160331905Y-81864819D02*
X160331905Y-80864819D01*
X160331905Y-80864819D02*
X160712857Y-80864819D01*
X160712857Y-80864819D02*
X160808095Y-80912438D01*
X160808095Y-80912438D02*
X160855714Y-80960057D01*
X160855714Y-80960057D02*
X160903333Y-81055295D01*
X160903333Y-81055295D02*
X160903333Y-81198152D01*
X160903333Y-81198152D02*
X160855714Y-81293390D01*
X160855714Y-81293390D02*
X160808095Y-81341009D01*
X160808095Y-81341009D02*
X160712857Y-81388628D01*
X160712857Y-81388628D02*
X160331905Y-81388628D01*
X161855714Y-81864819D02*
X161284286Y-81864819D01*
X161570000Y-81864819D02*
X161570000Y-80864819D01*
X161570000Y-80864819D02*
X161474762Y-81007676D01*
X161474762Y-81007676D02*
X161379524Y-81102914D01*
X161379524Y-81102914D02*
X161284286Y-81150533D01*
X79071039Y-132667763D02*
X79071039Y-131667763D01*
X79071039Y-132143953D02*
X79642467Y-132143953D01*
X79642467Y-132667763D02*
X79642467Y-131667763D01*
X80071039Y-131763001D02*
X80118658Y-131715382D01*
X80118658Y-131715382D02*
X80213896Y-131667763D01*
X80213896Y-131667763D02*
X80451991Y-131667763D01*
X80451991Y-131667763D02*
X80547229Y-131715382D01*
X80547229Y-131715382D02*
X80594848Y-131763001D01*
X80594848Y-131763001D02*
X80642467Y-131858239D01*
X80642467Y-131858239D02*
X80642467Y-131953477D01*
X80642467Y-131953477D02*
X80594848Y-132096334D01*
X80594848Y-132096334D02*
X80023420Y-132667763D01*
X80023420Y-132667763D02*
X80642467Y-132667763D01*
X145627142Y-95664819D02*
X145293809Y-95188628D01*
X145055714Y-95664819D02*
X145055714Y-94664819D01*
X145055714Y-94664819D02*
X145436666Y-94664819D01*
X145436666Y-94664819D02*
X145531904Y-94712438D01*
X145531904Y-94712438D02*
X145579523Y-94760057D01*
X145579523Y-94760057D02*
X145627142Y-94855295D01*
X145627142Y-94855295D02*
X145627142Y-94998152D01*
X145627142Y-94998152D02*
X145579523Y-95093390D01*
X145579523Y-95093390D02*
X145531904Y-95141009D01*
X145531904Y-95141009D02*
X145436666Y-95188628D01*
X145436666Y-95188628D02*
X145055714Y-95188628D01*
X146579523Y-95664819D02*
X146008095Y-95664819D01*
X146293809Y-95664819D02*
X146293809Y-94664819D01*
X146293809Y-94664819D02*
X146198571Y-94807676D01*
X146198571Y-94807676D02*
X146103333Y-94902914D01*
X146103333Y-94902914D02*
X146008095Y-94950533D01*
X146912857Y-94664819D02*
X147531904Y-94664819D01*
X147531904Y-94664819D02*
X147198571Y-95045771D01*
X147198571Y-95045771D02*
X147341428Y-95045771D01*
X147341428Y-95045771D02*
X147436666Y-95093390D01*
X147436666Y-95093390D02*
X147484285Y-95141009D01*
X147484285Y-95141009D02*
X147531904Y-95236247D01*
X147531904Y-95236247D02*
X147531904Y-95474342D01*
X147531904Y-95474342D02*
X147484285Y-95569580D01*
X147484285Y-95569580D02*
X147436666Y-95617200D01*
X147436666Y-95617200D02*
X147341428Y-95664819D01*
X147341428Y-95664819D02*
X147055714Y-95664819D01*
X147055714Y-95664819D02*
X146960476Y-95617200D01*
X146960476Y-95617200D02*
X146912857Y-95569580D01*
X160531905Y-118964819D02*
X160531905Y-117964819D01*
X160531905Y-117964819D02*
X160770000Y-117964819D01*
X160770000Y-117964819D02*
X160912857Y-118012438D01*
X160912857Y-118012438D02*
X161008095Y-118107676D01*
X161008095Y-118107676D02*
X161055714Y-118202914D01*
X161055714Y-118202914D02*
X161103333Y-118393390D01*
X161103333Y-118393390D02*
X161103333Y-118536247D01*
X161103333Y-118536247D02*
X161055714Y-118726723D01*
X161055714Y-118726723D02*
X161008095Y-118821961D01*
X161008095Y-118821961D02*
X160912857Y-118917200D01*
X160912857Y-118917200D02*
X160770000Y-118964819D01*
X160770000Y-118964819D02*
X160531905Y-118964819D01*
X162008095Y-117964819D02*
X161531905Y-117964819D01*
X161531905Y-117964819D02*
X161484286Y-118441009D01*
X161484286Y-118441009D02*
X161531905Y-118393390D01*
X161531905Y-118393390D02*
X161627143Y-118345771D01*
X161627143Y-118345771D02*
X161865238Y-118345771D01*
X161865238Y-118345771D02*
X161960476Y-118393390D01*
X161960476Y-118393390D02*
X162008095Y-118441009D01*
X162008095Y-118441009D02*
X162055714Y-118536247D01*
X162055714Y-118536247D02*
X162055714Y-118774342D01*
X162055714Y-118774342D02*
X162008095Y-118869580D01*
X162008095Y-118869580D02*
X161960476Y-118917200D01*
X161960476Y-118917200D02*
X161865238Y-118964819D01*
X161865238Y-118964819D02*
X161627143Y-118964819D01*
X161627143Y-118964819D02*
X161531905Y-118917200D01*
X161531905Y-118917200D02*
X161484286Y-118869580D01*
X158818095Y-120764819D02*
X158818095Y-119764819D01*
X159389523Y-120764819D02*
X158960952Y-120193390D01*
X159389523Y-119764819D02*
X158818095Y-120336247D01*
X104887142Y-108464819D02*
X104553809Y-107988628D01*
X104315714Y-108464819D02*
X104315714Y-107464819D01*
X104315714Y-107464819D02*
X104696666Y-107464819D01*
X104696666Y-107464819D02*
X104791904Y-107512438D01*
X104791904Y-107512438D02*
X104839523Y-107560057D01*
X104839523Y-107560057D02*
X104887142Y-107655295D01*
X104887142Y-107655295D02*
X104887142Y-107798152D01*
X104887142Y-107798152D02*
X104839523Y-107893390D01*
X104839523Y-107893390D02*
X104791904Y-107941009D01*
X104791904Y-107941009D02*
X104696666Y-107988628D01*
X104696666Y-107988628D02*
X104315714Y-107988628D01*
X105220476Y-107464819D02*
X105839523Y-107464819D01*
X105839523Y-107464819D02*
X105506190Y-107845771D01*
X105506190Y-107845771D02*
X105649047Y-107845771D01*
X105649047Y-107845771D02*
X105744285Y-107893390D01*
X105744285Y-107893390D02*
X105791904Y-107941009D01*
X105791904Y-107941009D02*
X105839523Y-108036247D01*
X105839523Y-108036247D02*
X105839523Y-108274342D01*
X105839523Y-108274342D02*
X105791904Y-108369580D01*
X105791904Y-108369580D02*
X105744285Y-108417200D01*
X105744285Y-108417200D02*
X105649047Y-108464819D01*
X105649047Y-108464819D02*
X105363333Y-108464819D01*
X105363333Y-108464819D02*
X105268095Y-108417200D01*
X105268095Y-108417200D02*
X105220476Y-108369580D01*
X106220476Y-107560057D02*
X106268095Y-107512438D01*
X106268095Y-107512438D02*
X106363333Y-107464819D01*
X106363333Y-107464819D02*
X106601428Y-107464819D01*
X106601428Y-107464819D02*
X106696666Y-107512438D01*
X106696666Y-107512438D02*
X106744285Y-107560057D01*
X106744285Y-107560057D02*
X106791904Y-107655295D01*
X106791904Y-107655295D02*
X106791904Y-107750533D01*
X106791904Y-107750533D02*
X106744285Y-107893390D01*
X106744285Y-107893390D02*
X106172857Y-108464819D01*
X106172857Y-108464819D02*
X106791904Y-108464819D01*
X173803333Y-89429580D02*
X173755714Y-89477200D01*
X173755714Y-89477200D02*
X173612857Y-89524819D01*
X173612857Y-89524819D02*
X173517619Y-89524819D01*
X173517619Y-89524819D02*
X173374762Y-89477200D01*
X173374762Y-89477200D02*
X173279524Y-89381961D01*
X173279524Y-89381961D02*
X173231905Y-89286723D01*
X173231905Y-89286723D02*
X173184286Y-89096247D01*
X173184286Y-89096247D02*
X173184286Y-88953390D01*
X173184286Y-88953390D02*
X173231905Y-88762914D01*
X173231905Y-88762914D02*
X173279524Y-88667676D01*
X173279524Y-88667676D02*
X173374762Y-88572438D01*
X173374762Y-88572438D02*
X173517619Y-88524819D01*
X173517619Y-88524819D02*
X173612857Y-88524819D01*
X173612857Y-88524819D02*
X173755714Y-88572438D01*
X173755714Y-88572438D02*
X173803333Y-88620057D01*
X174755714Y-89524819D02*
X174184286Y-89524819D01*
X174470000Y-89524819D02*
X174470000Y-88524819D01*
X174470000Y-88524819D02*
X174374762Y-88667676D01*
X174374762Y-88667676D02*
X174279524Y-88762914D01*
X174279524Y-88762914D02*
X174184286Y-88810533D01*
X161027142Y-94564819D02*
X160693809Y-94088628D01*
X160455714Y-94564819D02*
X160455714Y-93564819D01*
X160455714Y-93564819D02*
X160836666Y-93564819D01*
X160836666Y-93564819D02*
X160931904Y-93612438D01*
X160931904Y-93612438D02*
X160979523Y-93660057D01*
X160979523Y-93660057D02*
X161027142Y-93755295D01*
X161027142Y-93755295D02*
X161027142Y-93898152D01*
X161027142Y-93898152D02*
X160979523Y-93993390D01*
X160979523Y-93993390D02*
X160931904Y-94041009D01*
X160931904Y-94041009D02*
X160836666Y-94088628D01*
X160836666Y-94088628D02*
X160455714Y-94088628D01*
X161408095Y-93660057D02*
X161455714Y-93612438D01*
X161455714Y-93612438D02*
X161550952Y-93564819D01*
X161550952Y-93564819D02*
X161789047Y-93564819D01*
X161789047Y-93564819D02*
X161884285Y-93612438D01*
X161884285Y-93612438D02*
X161931904Y-93660057D01*
X161931904Y-93660057D02*
X161979523Y-93755295D01*
X161979523Y-93755295D02*
X161979523Y-93850533D01*
X161979523Y-93850533D02*
X161931904Y-93993390D01*
X161931904Y-93993390D02*
X161360476Y-94564819D01*
X161360476Y-94564819D02*
X161979523Y-94564819D01*
X162550952Y-93993390D02*
X162455714Y-93945771D01*
X162455714Y-93945771D02*
X162408095Y-93898152D01*
X162408095Y-93898152D02*
X162360476Y-93802914D01*
X162360476Y-93802914D02*
X162360476Y-93755295D01*
X162360476Y-93755295D02*
X162408095Y-93660057D01*
X162408095Y-93660057D02*
X162455714Y-93612438D01*
X162455714Y-93612438D02*
X162550952Y-93564819D01*
X162550952Y-93564819D02*
X162741428Y-93564819D01*
X162741428Y-93564819D02*
X162836666Y-93612438D01*
X162836666Y-93612438D02*
X162884285Y-93660057D01*
X162884285Y-93660057D02*
X162931904Y-93755295D01*
X162931904Y-93755295D02*
X162931904Y-93802914D01*
X162931904Y-93802914D02*
X162884285Y-93898152D01*
X162884285Y-93898152D02*
X162836666Y-93945771D01*
X162836666Y-93945771D02*
X162741428Y-93993390D01*
X162741428Y-93993390D02*
X162550952Y-93993390D01*
X162550952Y-93993390D02*
X162455714Y-94041009D01*
X162455714Y-94041009D02*
X162408095Y-94088628D01*
X162408095Y-94088628D02*
X162360476Y-94183866D01*
X162360476Y-94183866D02*
X162360476Y-94374342D01*
X162360476Y-94374342D02*
X162408095Y-94469580D01*
X162408095Y-94469580D02*
X162455714Y-94517200D01*
X162455714Y-94517200D02*
X162550952Y-94564819D01*
X162550952Y-94564819D02*
X162741428Y-94564819D01*
X162741428Y-94564819D02*
X162836666Y-94517200D01*
X162836666Y-94517200D02*
X162884285Y-94469580D01*
X162884285Y-94469580D02*
X162931904Y-94374342D01*
X162931904Y-94374342D02*
X162931904Y-94183866D01*
X162931904Y-94183866D02*
X162884285Y-94088628D01*
X162884285Y-94088628D02*
X162836666Y-94041009D01*
X162836666Y-94041009D02*
X162741428Y-93993390D01*
X121378095Y-92154819D02*
X121378095Y-92964342D01*
X121378095Y-92964342D02*
X121425714Y-93059580D01*
X121425714Y-93059580D02*
X121473333Y-93107200D01*
X121473333Y-93107200D02*
X121568571Y-93154819D01*
X121568571Y-93154819D02*
X121759047Y-93154819D01*
X121759047Y-93154819D02*
X121854285Y-93107200D01*
X121854285Y-93107200D02*
X121901904Y-93059580D01*
X121901904Y-93059580D02*
X121949523Y-92964342D01*
X121949523Y-92964342D02*
X121949523Y-92154819D01*
X122378095Y-92250057D02*
X122425714Y-92202438D01*
X122425714Y-92202438D02*
X122520952Y-92154819D01*
X122520952Y-92154819D02*
X122759047Y-92154819D01*
X122759047Y-92154819D02*
X122854285Y-92202438D01*
X122854285Y-92202438D02*
X122901904Y-92250057D01*
X122901904Y-92250057D02*
X122949523Y-92345295D01*
X122949523Y-92345295D02*
X122949523Y-92440533D01*
X122949523Y-92440533D02*
X122901904Y-92583390D01*
X122901904Y-92583390D02*
X122330476Y-93154819D01*
X122330476Y-93154819D02*
X122949523Y-93154819D01*
X161027142Y-123069580D02*
X160979523Y-123117200D01*
X160979523Y-123117200D02*
X160836666Y-123164819D01*
X160836666Y-123164819D02*
X160741428Y-123164819D01*
X160741428Y-123164819D02*
X160598571Y-123117200D01*
X160598571Y-123117200D02*
X160503333Y-123021961D01*
X160503333Y-123021961D02*
X160455714Y-122926723D01*
X160455714Y-122926723D02*
X160408095Y-122736247D01*
X160408095Y-122736247D02*
X160408095Y-122593390D01*
X160408095Y-122593390D02*
X160455714Y-122402914D01*
X160455714Y-122402914D02*
X160503333Y-122307676D01*
X160503333Y-122307676D02*
X160598571Y-122212438D01*
X160598571Y-122212438D02*
X160741428Y-122164819D01*
X160741428Y-122164819D02*
X160836666Y-122164819D01*
X160836666Y-122164819D02*
X160979523Y-122212438D01*
X160979523Y-122212438D02*
X161027142Y-122260057D01*
X161979523Y-123164819D02*
X161408095Y-123164819D01*
X161693809Y-123164819D02*
X161693809Y-122164819D01*
X161693809Y-122164819D02*
X161598571Y-122307676D01*
X161598571Y-122307676D02*
X161503333Y-122402914D01*
X161503333Y-122402914D02*
X161408095Y-122450533D01*
X162598571Y-122164819D02*
X162693809Y-122164819D01*
X162693809Y-122164819D02*
X162789047Y-122212438D01*
X162789047Y-122212438D02*
X162836666Y-122260057D01*
X162836666Y-122260057D02*
X162884285Y-122355295D01*
X162884285Y-122355295D02*
X162931904Y-122545771D01*
X162931904Y-122545771D02*
X162931904Y-122783866D01*
X162931904Y-122783866D02*
X162884285Y-122974342D01*
X162884285Y-122974342D02*
X162836666Y-123069580D01*
X162836666Y-123069580D02*
X162789047Y-123117200D01*
X162789047Y-123117200D02*
X162693809Y-123164819D01*
X162693809Y-123164819D02*
X162598571Y-123164819D01*
X162598571Y-123164819D02*
X162503333Y-123117200D01*
X162503333Y-123117200D02*
X162455714Y-123069580D01*
X162455714Y-123069580D02*
X162408095Y-122974342D01*
X162408095Y-122974342D02*
X162360476Y-122783866D01*
X162360476Y-122783866D02*
X162360476Y-122545771D01*
X162360476Y-122545771D02*
X162408095Y-122355295D01*
X162408095Y-122355295D02*
X162455714Y-122260057D01*
X162455714Y-122260057D02*
X162503333Y-122212438D01*
X162503333Y-122212438D02*
X162598571Y-122164819D01*
X117703333Y-117969580D02*
X117655714Y-118017200D01*
X117655714Y-118017200D02*
X117512857Y-118064819D01*
X117512857Y-118064819D02*
X117417619Y-118064819D01*
X117417619Y-118064819D02*
X117274762Y-118017200D01*
X117274762Y-118017200D02*
X117179524Y-117921961D01*
X117179524Y-117921961D02*
X117131905Y-117826723D01*
X117131905Y-117826723D02*
X117084286Y-117636247D01*
X117084286Y-117636247D02*
X117084286Y-117493390D01*
X117084286Y-117493390D02*
X117131905Y-117302914D01*
X117131905Y-117302914D02*
X117179524Y-117207676D01*
X117179524Y-117207676D02*
X117274762Y-117112438D01*
X117274762Y-117112438D02*
X117417619Y-117064819D01*
X117417619Y-117064819D02*
X117512857Y-117064819D01*
X117512857Y-117064819D02*
X117655714Y-117112438D01*
X117655714Y-117112438D02*
X117703333Y-117160057D01*
X118560476Y-117398152D02*
X118560476Y-118064819D01*
X118322381Y-117017200D02*
X118084286Y-117731485D01*
X118084286Y-117731485D02*
X118703333Y-117731485D01*
X144934761Y-128220057D02*
X144839523Y-128172438D01*
X144839523Y-128172438D02*
X144744285Y-128077200D01*
X144744285Y-128077200D02*
X144601428Y-127934342D01*
X144601428Y-127934342D02*
X144506190Y-127886723D01*
X144506190Y-127886723D02*
X144410952Y-127886723D01*
X144458571Y-128124819D02*
X144363333Y-128077200D01*
X144363333Y-128077200D02*
X144268095Y-127981961D01*
X144268095Y-127981961D02*
X144220476Y-127791485D01*
X144220476Y-127791485D02*
X144220476Y-127458152D01*
X144220476Y-127458152D02*
X144268095Y-127267676D01*
X144268095Y-127267676D02*
X144363333Y-127172438D01*
X144363333Y-127172438D02*
X144458571Y-127124819D01*
X144458571Y-127124819D02*
X144649047Y-127124819D01*
X144649047Y-127124819D02*
X144744285Y-127172438D01*
X144744285Y-127172438D02*
X144839523Y-127267676D01*
X144839523Y-127267676D02*
X144887142Y-127458152D01*
X144887142Y-127458152D02*
X144887142Y-127791485D01*
X144887142Y-127791485D02*
X144839523Y-127981961D01*
X144839523Y-127981961D02*
X144744285Y-128077200D01*
X144744285Y-128077200D02*
X144649047Y-128124819D01*
X144649047Y-128124819D02*
X144458571Y-128124819D01*
X145268095Y-127220057D02*
X145315714Y-127172438D01*
X145315714Y-127172438D02*
X145410952Y-127124819D01*
X145410952Y-127124819D02*
X145649047Y-127124819D01*
X145649047Y-127124819D02*
X145744285Y-127172438D01*
X145744285Y-127172438D02*
X145791904Y-127220057D01*
X145791904Y-127220057D02*
X145839523Y-127315295D01*
X145839523Y-127315295D02*
X145839523Y-127410533D01*
X145839523Y-127410533D02*
X145791904Y-127553390D01*
X145791904Y-127553390D02*
X145220476Y-128124819D01*
X145220476Y-128124819D02*
X145839523Y-128124819D01*
X137927142Y-97864819D02*
X137593809Y-97388628D01*
X137355714Y-97864819D02*
X137355714Y-96864819D01*
X137355714Y-96864819D02*
X137736666Y-96864819D01*
X137736666Y-96864819D02*
X137831904Y-96912438D01*
X137831904Y-96912438D02*
X137879523Y-96960057D01*
X137879523Y-96960057D02*
X137927142Y-97055295D01*
X137927142Y-97055295D02*
X137927142Y-97198152D01*
X137927142Y-97198152D02*
X137879523Y-97293390D01*
X137879523Y-97293390D02*
X137831904Y-97341009D01*
X137831904Y-97341009D02*
X137736666Y-97388628D01*
X137736666Y-97388628D02*
X137355714Y-97388628D01*
X138879523Y-97864819D02*
X138308095Y-97864819D01*
X138593809Y-97864819D02*
X138593809Y-96864819D01*
X138593809Y-96864819D02*
X138498571Y-97007676D01*
X138498571Y-97007676D02*
X138403333Y-97102914D01*
X138403333Y-97102914D02*
X138308095Y-97150533D01*
X139498571Y-96864819D02*
X139593809Y-96864819D01*
X139593809Y-96864819D02*
X139689047Y-96912438D01*
X139689047Y-96912438D02*
X139736666Y-96960057D01*
X139736666Y-96960057D02*
X139784285Y-97055295D01*
X139784285Y-97055295D02*
X139831904Y-97245771D01*
X139831904Y-97245771D02*
X139831904Y-97483866D01*
X139831904Y-97483866D02*
X139784285Y-97674342D01*
X139784285Y-97674342D02*
X139736666Y-97769580D01*
X139736666Y-97769580D02*
X139689047Y-97817200D01*
X139689047Y-97817200D02*
X139593809Y-97864819D01*
X139593809Y-97864819D02*
X139498571Y-97864819D01*
X139498571Y-97864819D02*
X139403333Y-97817200D01*
X139403333Y-97817200D02*
X139355714Y-97769580D01*
X139355714Y-97769580D02*
X139308095Y-97674342D01*
X139308095Y-97674342D02*
X139260476Y-97483866D01*
X139260476Y-97483866D02*
X139260476Y-97245771D01*
X139260476Y-97245771D02*
X139308095Y-97055295D01*
X139308095Y-97055295D02*
X139355714Y-96960057D01*
X139355714Y-96960057D02*
X139403333Y-96912438D01*
X139403333Y-96912438D02*
X139498571Y-96864819D01*
X105773333Y-91964819D02*
X105440000Y-91488628D01*
X105201905Y-91964819D02*
X105201905Y-90964819D01*
X105201905Y-90964819D02*
X105582857Y-90964819D01*
X105582857Y-90964819D02*
X105678095Y-91012438D01*
X105678095Y-91012438D02*
X105725714Y-91060057D01*
X105725714Y-91060057D02*
X105773333Y-91155295D01*
X105773333Y-91155295D02*
X105773333Y-91298152D01*
X105773333Y-91298152D02*
X105725714Y-91393390D01*
X105725714Y-91393390D02*
X105678095Y-91441009D01*
X105678095Y-91441009D02*
X105582857Y-91488628D01*
X105582857Y-91488628D02*
X105201905Y-91488628D01*
X106249524Y-91964819D02*
X106440000Y-91964819D01*
X106440000Y-91964819D02*
X106535238Y-91917200D01*
X106535238Y-91917200D02*
X106582857Y-91869580D01*
X106582857Y-91869580D02*
X106678095Y-91726723D01*
X106678095Y-91726723D02*
X106725714Y-91536247D01*
X106725714Y-91536247D02*
X106725714Y-91155295D01*
X106725714Y-91155295D02*
X106678095Y-91060057D01*
X106678095Y-91060057D02*
X106630476Y-91012438D01*
X106630476Y-91012438D02*
X106535238Y-90964819D01*
X106535238Y-90964819D02*
X106344762Y-90964819D01*
X106344762Y-90964819D02*
X106249524Y-91012438D01*
X106249524Y-91012438D02*
X106201905Y-91060057D01*
X106201905Y-91060057D02*
X106154286Y-91155295D01*
X106154286Y-91155295D02*
X106154286Y-91393390D01*
X106154286Y-91393390D02*
X106201905Y-91488628D01*
X106201905Y-91488628D02*
X106249524Y-91536247D01*
X106249524Y-91536247D02*
X106344762Y-91583866D01*
X106344762Y-91583866D02*
X106535238Y-91583866D01*
X106535238Y-91583866D02*
X106630476Y-91536247D01*
X106630476Y-91536247D02*
X106678095Y-91488628D01*
X106678095Y-91488628D02*
X106725714Y-91393390D01*
X161027142Y-105264819D02*
X160693809Y-104788628D01*
X160455714Y-105264819D02*
X160455714Y-104264819D01*
X160455714Y-104264819D02*
X160836666Y-104264819D01*
X160836666Y-104264819D02*
X160931904Y-104312438D01*
X160931904Y-104312438D02*
X160979523Y-104360057D01*
X160979523Y-104360057D02*
X161027142Y-104455295D01*
X161027142Y-104455295D02*
X161027142Y-104598152D01*
X161027142Y-104598152D02*
X160979523Y-104693390D01*
X160979523Y-104693390D02*
X160931904Y-104741009D01*
X160931904Y-104741009D02*
X160836666Y-104788628D01*
X160836666Y-104788628D02*
X160455714Y-104788628D01*
X161408095Y-104360057D02*
X161455714Y-104312438D01*
X161455714Y-104312438D02*
X161550952Y-104264819D01*
X161550952Y-104264819D02*
X161789047Y-104264819D01*
X161789047Y-104264819D02*
X161884285Y-104312438D01*
X161884285Y-104312438D02*
X161931904Y-104360057D01*
X161931904Y-104360057D02*
X161979523Y-104455295D01*
X161979523Y-104455295D02*
X161979523Y-104550533D01*
X161979523Y-104550533D02*
X161931904Y-104693390D01*
X161931904Y-104693390D02*
X161360476Y-105264819D01*
X161360476Y-105264819D02*
X161979523Y-105264819D01*
X162598571Y-104264819D02*
X162693809Y-104264819D01*
X162693809Y-104264819D02*
X162789047Y-104312438D01*
X162789047Y-104312438D02*
X162836666Y-104360057D01*
X162836666Y-104360057D02*
X162884285Y-104455295D01*
X162884285Y-104455295D02*
X162931904Y-104645771D01*
X162931904Y-104645771D02*
X162931904Y-104883866D01*
X162931904Y-104883866D02*
X162884285Y-105074342D01*
X162884285Y-105074342D02*
X162836666Y-105169580D01*
X162836666Y-105169580D02*
X162789047Y-105217200D01*
X162789047Y-105217200D02*
X162693809Y-105264819D01*
X162693809Y-105264819D02*
X162598571Y-105264819D01*
X162598571Y-105264819D02*
X162503333Y-105217200D01*
X162503333Y-105217200D02*
X162455714Y-105169580D01*
X162455714Y-105169580D02*
X162408095Y-105074342D01*
X162408095Y-105074342D02*
X162360476Y-104883866D01*
X162360476Y-104883866D02*
X162360476Y-104645771D01*
X162360476Y-104645771D02*
X162408095Y-104455295D01*
X162408095Y-104455295D02*
X162455714Y-104360057D01*
X162455714Y-104360057D02*
X162503333Y-104312438D01*
X162503333Y-104312438D02*
X162598571Y-104264819D01*
X94404819Y-87548094D02*
X93404819Y-87548094D01*
X93404819Y-87548094D02*
X93404819Y-87309999D01*
X93404819Y-87309999D02*
X93452438Y-87167142D01*
X93452438Y-87167142D02*
X93547676Y-87071904D01*
X93547676Y-87071904D02*
X93642914Y-87024285D01*
X93642914Y-87024285D02*
X93833390Y-86976666D01*
X93833390Y-86976666D02*
X93976247Y-86976666D01*
X93976247Y-86976666D02*
X94166723Y-87024285D01*
X94166723Y-87024285D02*
X94261961Y-87071904D01*
X94261961Y-87071904D02*
X94357200Y-87167142D01*
X94357200Y-87167142D02*
X94404819Y-87309999D01*
X94404819Y-87309999D02*
X94404819Y-87548094D01*
X93500057Y-86595713D02*
X93452438Y-86548094D01*
X93452438Y-86548094D02*
X93404819Y-86452856D01*
X93404819Y-86452856D02*
X93404819Y-86214761D01*
X93404819Y-86214761D02*
X93452438Y-86119523D01*
X93452438Y-86119523D02*
X93500057Y-86071904D01*
X93500057Y-86071904D02*
X93595295Y-86024285D01*
X93595295Y-86024285D02*
X93690533Y-86024285D01*
X93690533Y-86024285D02*
X93833390Y-86071904D01*
X93833390Y-86071904D02*
X94404819Y-86643332D01*
X94404819Y-86643332D02*
X94404819Y-86024285D01*
X93684819Y-81991904D02*
X92684819Y-81991904D01*
X93684819Y-81420476D02*
X93113390Y-81849047D01*
X92684819Y-81420476D02*
X93256247Y-81991904D01*
X137917142Y-107564819D02*
X137583809Y-107088628D01*
X137345714Y-107564819D02*
X137345714Y-106564819D01*
X137345714Y-106564819D02*
X137726666Y-106564819D01*
X137726666Y-106564819D02*
X137821904Y-106612438D01*
X137821904Y-106612438D02*
X137869523Y-106660057D01*
X137869523Y-106660057D02*
X137917142Y-106755295D01*
X137917142Y-106755295D02*
X137917142Y-106898152D01*
X137917142Y-106898152D02*
X137869523Y-106993390D01*
X137869523Y-106993390D02*
X137821904Y-107041009D01*
X137821904Y-107041009D02*
X137726666Y-107088628D01*
X137726666Y-107088628D02*
X137345714Y-107088628D01*
X138869523Y-107564819D02*
X138298095Y-107564819D01*
X138583809Y-107564819D02*
X138583809Y-106564819D01*
X138583809Y-106564819D02*
X138488571Y-106707676D01*
X138488571Y-106707676D02*
X138393333Y-106802914D01*
X138393333Y-106802914D02*
X138298095Y-106850533D01*
X139726666Y-106564819D02*
X139536190Y-106564819D01*
X139536190Y-106564819D02*
X139440952Y-106612438D01*
X139440952Y-106612438D02*
X139393333Y-106660057D01*
X139393333Y-106660057D02*
X139298095Y-106802914D01*
X139298095Y-106802914D02*
X139250476Y-106993390D01*
X139250476Y-106993390D02*
X139250476Y-107374342D01*
X139250476Y-107374342D02*
X139298095Y-107469580D01*
X139298095Y-107469580D02*
X139345714Y-107517200D01*
X139345714Y-107517200D02*
X139440952Y-107564819D01*
X139440952Y-107564819D02*
X139631428Y-107564819D01*
X139631428Y-107564819D02*
X139726666Y-107517200D01*
X139726666Y-107517200D02*
X139774285Y-107469580D01*
X139774285Y-107469580D02*
X139821904Y-107374342D01*
X139821904Y-107374342D02*
X139821904Y-107136247D01*
X139821904Y-107136247D02*
X139774285Y-107041009D01*
X139774285Y-107041009D02*
X139726666Y-106993390D01*
X139726666Y-106993390D02*
X139631428Y-106945771D01*
X139631428Y-106945771D02*
X139440952Y-106945771D01*
X139440952Y-106945771D02*
X139345714Y-106993390D01*
X139345714Y-106993390D02*
X139298095Y-107041009D01*
X139298095Y-107041009D02*
X139250476Y-107136247D01*
X106615714Y-120744819D02*
X106615714Y-119744819D01*
X106615714Y-119744819D02*
X106853809Y-119744819D01*
X106853809Y-119744819D02*
X106996666Y-119792438D01*
X106996666Y-119792438D02*
X107091904Y-119887676D01*
X107091904Y-119887676D02*
X107139523Y-119982914D01*
X107139523Y-119982914D02*
X107187142Y-120173390D01*
X107187142Y-120173390D02*
X107187142Y-120316247D01*
X107187142Y-120316247D02*
X107139523Y-120506723D01*
X107139523Y-120506723D02*
X107091904Y-120601961D01*
X107091904Y-120601961D02*
X106996666Y-120697200D01*
X106996666Y-120697200D02*
X106853809Y-120744819D01*
X106853809Y-120744819D02*
X106615714Y-120744819D01*
X108139523Y-120744819D02*
X107568095Y-120744819D01*
X107853809Y-120744819D02*
X107853809Y-119744819D01*
X107853809Y-119744819D02*
X107758571Y-119887676D01*
X107758571Y-119887676D02*
X107663333Y-119982914D01*
X107663333Y-119982914D02*
X107568095Y-120030533D01*
X109044285Y-119744819D02*
X108568095Y-119744819D01*
X108568095Y-119744819D02*
X108520476Y-120221009D01*
X108520476Y-120221009D02*
X108568095Y-120173390D01*
X108568095Y-120173390D02*
X108663333Y-120125771D01*
X108663333Y-120125771D02*
X108901428Y-120125771D01*
X108901428Y-120125771D02*
X108996666Y-120173390D01*
X108996666Y-120173390D02*
X109044285Y-120221009D01*
X109044285Y-120221009D02*
X109091904Y-120316247D01*
X109091904Y-120316247D02*
X109091904Y-120554342D01*
X109091904Y-120554342D02*
X109044285Y-120649580D01*
X109044285Y-120649580D02*
X108996666Y-120697200D01*
X108996666Y-120697200D02*
X108901428Y-120744819D01*
X108901428Y-120744819D02*
X108663333Y-120744819D01*
X108663333Y-120744819D02*
X108568095Y-120697200D01*
X108568095Y-120697200D02*
X108520476Y-120649580D01*
X105078095Y-122544819D02*
X105078095Y-121544819D01*
X105649523Y-122544819D02*
X105220952Y-121973390D01*
X105649523Y-121544819D02*
X105078095Y-122116247D01*
X190605714Y-110459104D02*
X191081904Y-110459104D01*
X190510476Y-110744819D02*
X190843809Y-109744819D01*
X190843809Y-109744819D02*
X191177142Y-110744819D01*
X192034285Y-110744819D02*
X191462857Y-110744819D01*
X191748571Y-110744819D02*
X191748571Y-109744819D01*
X191748571Y-109744819D02*
X191653333Y-109887676D01*
X191653333Y-109887676D02*
X191558095Y-109982914D01*
X191558095Y-109982914D02*
X191462857Y-110030533D01*
X192581904Y-70195180D02*
X192581904Y-69385657D01*
X192581904Y-69385657D02*
X192534285Y-69290419D01*
X192534285Y-69290419D02*
X192486666Y-69242800D01*
X192486666Y-69242800D02*
X192391428Y-69195180D01*
X192391428Y-69195180D02*
X192200952Y-69195180D01*
X192200952Y-69195180D02*
X192105714Y-69242800D01*
X192105714Y-69242800D02*
X192058095Y-69290419D01*
X192058095Y-69290419D02*
X192010476Y-69385657D01*
X192010476Y-69385657D02*
X192010476Y-70195180D01*
X191581904Y-69242800D02*
X191439047Y-69195180D01*
X191439047Y-69195180D02*
X191200952Y-69195180D01*
X191200952Y-69195180D02*
X191105714Y-69242800D01*
X191105714Y-69242800D02*
X191058095Y-69290419D01*
X191058095Y-69290419D02*
X191010476Y-69385657D01*
X191010476Y-69385657D02*
X191010476Y-69480895D01*
X191010476Y-69480895D02*
X191058095Y-69576133D01*
X191058095Y-69576133D02*
X191105714Y-69623752D01*
X191105714Y-69623752D02*
X191200952Y-69671371D01*
X191200952Y-69671371D02*
X191391428Y-69718990D01*
X191391428Y-69718990D02*
X191486666Y-69766609D01*
X191486666Y-69766609D02*
X191534285Y-69814228D01*
X191534285Y-69814228D02*
X191581904Y-69909466D01*
X191581904Y-69909466D02*
X191581904Y-70004704D01*
X191581904Y-70004704D02*
X191534285Y-70099942D01*
X191534285Y-70099942D02*
X191486666Y-70147561D01*
X191486666Y-70147561D02*
X191391428Y-70195180D01*
X191391428Y-70195180D02*
X191153333Y-70195180D01*
X191153333Y-70195180D02*
X191010476Y-70147561D01*
X190248571Y-69718990D02*
X190105714Y-69671371D01*
X190105714Y-69671371D02*
X190058095Y-69623752D01*
X190058095Y-69623752D02*
X190010476Y-69528514D01*
X190010476Y-69528514D02*
X190010476Y-69385657D01*
X190010476Y-69385657D02*
X190058095Y-69290419D01*
X190058095Y-69290419D02*
X190105714Y-69242800D01*
X190105714Y-69242800D02*
X190200952Y-69195180D01*
X190200952Y-69195180D02*
X190581904Y-69195180D01*
X190581904Y-69195180D02*
X190581904Y-70195180D01*
X190581904Y-70195180D02*
X190248571Y-70195180D01*
X190248571Y-70195180D02*
X190153333Y-70147561D01*
X190153333Y-70147561D02*
X190105714Y-70099942D01*
X190105714Y-70099942D02*
X190058095Y-70004704D01*
X190058095Y-70004704D02*
X190058095Y-69909466D01*
X190058095Y-69909466D02*
X190105714Y-69814228D01*
X190105714Y-69814228D02*
X190153333Y-69766609D01*
X190153333Y-69766609D02*
X190248571Y-69718990D01*
X190248571Y-69718990D02*
X190581904Y-69718990D01*
X175988095Y-75149819D02*
X175988095Y-75959342D01*
X175988095Y-75959342D02*
X176035714Y-76054580D01*
X176035714Y-76054580D02*
X176083333Y-76102200D01*
X176083333Y-76102200D02*
X176178571Y-76149819D01*
X176178571Y-76149819D02*
X176369047Y-76149819D01*
X176369047Y-76149819D02*
X176464285Y-76102200D01*
X176464285Y-76102200D02*
X176511904Y-76054580D01*
X176511904Y-76054580D02*
X176559523Y-75959342D01*
X176559523Y-75959342D02*
X176559523Y-75149819D01*
X177559523Y-76149819D02*
X176988095Y-76149819D01*
X177273809Y-76149819D02*
X177273809Y-75149819D01*
X177273809Y-75149819D02*
X177178571Y-75292676D01*
X177178571Y-75292676D02*
X177083333Y-75387914D01*
X177083333Y-75387914D02*
X176988095Y-75435533D01*
X178217142Y-117464819D02*
X177883809Y-116988628D01*
X177645714Y-117464819D02*
X177645714Y-116464819D01*
X177645714Y-116464819D02*
X178026666Y-116464819D01*
X178026666Y-116464819D02*
X178121904Y-116512438D01*
X178121904Y-116512438D02*
X178169523Y-116560057D01*
X178169523Y-116560057D02*
X178217142Y-116655295D01*
X178217142Y-116655295D02*
X178217142Y-116798152D01*
X178217142Y-116798152D02*
X178169523Y-116893390D01*
X178169523Y-116893390D02*
X178121904Y-116941009D01*
X178121904Y-116941009D02*
X178026666Y-116988628D01*
X178026666Y-116988628D02*
X177645714Y-116988628D01*
X178598095Y-116560057D02*
X178645714Y-116512438D01*
X178645714Y-116512438D02*
X178740952Y-116464819D01*
X178740952Y-116464819D02*
X178979047Y-116464819D01*
X178979047Y-116464819D02*
X179074285Y-116512438D01*
X179074285Y-116512438D02*
X179121904Y-116560057D01*
X179121904Y-116560057D02*
X179169523Y-116655295D01*
X179169523Y-116655295D02*
X179169523Y-116750533D01*
X179169523Y-116750533D02*
X179121904Y-116893390D01*
X179121904Y-116893390D02*
X178550476Y-117464819D01*
X178550476Y-117464819D02*
X179169523Y-117464819D01*
X180026666Y-116464819D02*
X179836190Y-116464819D01*
X179836190Y-116464819D02*
X179740952Y-116512438D01*
X179740952Y-116512438D02*
X179693333Y-116560057D01*
X179693333Y-116560057D02*
X179598095Y-116702914D01*
X179598095Y-116702914D02*
X179550476Y-116893390D01*
X179550476Y-116893390D02*
X179550476Y-117274342D01*
X179550476Y-117274342D02*
X179598095Y-117369580D01*
X179598095Y-117369580D02*
X179645714Y-117417200D01*
X179645714Y-117417200D02*
X179740952Y-117464819D01*
X179740952Y-117464819D02*
X179931428Y-117464819D01*
X179931428Y-117464819D02*
X180026666Y-117417200D01*
X180026666Y-117417200D02*
X180074285Y-117369580D01*
X180074285Y-117369580D02*
X180121904Y-117274342D01*
X180121904Y-117274342D02*
X180121904Y-117036247D01*
X180121904Y-117036247D02*
X180074285Y-116941009D01*
X180074285Y-116941009D02*
X180026666Y-116893390D01*
X180026666Y-116893390D02*
X179931428Y-116845771D01*
X179931428Y-116845771D02*
X179740952Y-116845771D01*
X179740952Y-116845771D02*
X179645714Y-116893390D01*
X179645714Y-116893390D02*
X179598095Y-116941009D01*
X179598095Y-116941009D02*
X179550476Y-117036247D01*
X144091905Y-120644819D02*
X144091905Y-119644819D01*
X144091905Y-119644819D02*
X144330000Y-119644819D01*
X144330000Y-119644819D02*
X144472857Y-119692438D01*
X144472857Y-119692438D02*
X144568095Y-119787676D01*
X144568095Y-119787676D02*
X144615714Y-119882914D01*
X144615714Y-119882914D02*
X144663333Y-120073390D01*
X144663333Y-120073390D02*
X144663333Y-120216247D01*
X144663333Y-120216247D02*
X144615714Y-120406723D01*
X144615714Y-120406723D02*
X144568095Y-120501961D01*
X144568095Y-120501961D02*
X144472857Y-120597200D01*
X144472857Y-120597200D02*
X144330000Y-120644819D01*
X144330000Y-120644819D02*
X144091905Y-120644819D01*
X145139524Y-120644819D02*
X145330000Y-120644819D01*
X145330000Y-120644819D02*
X145425238Y-120597200D01*
X145425238Y-120597200D02*
X145472857Y-120549580D01*
X145472857Y-120549580D02*
X145568095Y-120406723D01*
X145568095Y-120406723D02*
X145615714Y-120216247D01*
X145615714Y-120216247D02*
X145615714Y-119835295D01*
X145615714Y-119835295D02*
X145568095Y-119740057D01*
X145568095Y-119740057D02*
X145520476Y-119692438D01*
X145520476Y-119692438D02*
X145425238Y-119644819D01*
X145425238Y-119644819D02*
X145234762Y-119644819D01*
X145234762Y-119644819D02*
X145139524Y-119692438D01*
X145139524Y-119692438D02*
X145091905Y-119740057D01*
X145091905Y-119740057D02*
X145044286Y-119835295D01*
X145044286Y-119835295D02*
X145044286Y-120073390D01*
X145044286Y-120073390D02*
X145091905Y-120168628D01*
X145091905Y-120168628D02*
X145139524Y-120216247D01*
X145139524Y-120216247D02*
X145234762Y-120263866D01*
X145234762Y-120263866D02*
X145425238Y-120263866D01*
X145425238Y-120263866D02*
X145520476Y-120216247D01*
X145520476Y-120216247D02*
X145568095Y-120168628D01*
X145568095Y-120168628D02*
X145615714Y-120073390D01*
X142578095Y-122444819D02*
X142578095Y-121444819D01*
X143149523Y-122444819D02*
X142720952Y-121873390D01*
X143149523Y-121444819D02*
X142578095Y-122016247D01*
X201968095Y-70264819D02*
X201968095Y-69264819D01*
X201968095Y-69741009D02*
X202539523Y-69741009D01*
X202539523Y-70264819D02*
X202539523Y-69264819D01*
X202920476Y-69264819D02*
X203539523Y-69264819D01*
X203539523Y-69264819D02*
X203206190Y-69645771D01*
X203206190Y-69645771D02*
X203349047Y-69645771D01*
X203349047Y-69645771D02*
X203444285Y-69693390D01*
X203444285Y-69693390D02*
X203491904Y-69741009D01*
X203491904Y-69741009D02*
X203539523Y-69836247D01*
X203539523Y-69836247D02*
X203539523Y-70074342D01*
X203539523Y-70074342D02*
X203491904Y-70169580D01*
X203491904Y-70169580D02*
X203444285Y-70217200D01*
X203444285Y-70217200D02*
X203349047Y-70264819D01*
X203349047Y-70264819D02*
X203063333Y-70264819D01*
X203063333Y-70264819D02*
X202968095Y-70217200D01*
X202968095Y-70217200D02*
X202920476Y-70169580D01*
X137866905Y-68379819D02*
X137866905Y-67379819D01*
X137866905Y-67856009D02*
X138438333Y-67856009D01*
X138438333Y-68379819D02*
X138438333Y-67379819D01*
X138866905Y-68332200D02*
X139009762Y-68379819D01*
X139009762Y-68379819D02*
X139247857Y-68379819D01*
X139247857Y-68379819D02*
X139343095Y-68332200D01*
X139343095Y-68332200D02*
X139390714Y-68284580D01*
X139390714Y-68284580D02*
X139438333Y-68189342D01*
X139438333Y-68189342D02*
X139438333Y-68094104D01*
X139438333Y-68094104D02*
X139390714Y-67998866D01*
X139390714Y-67998866D02*
X139343095Y-67951247D01*
X139343095Y-67951247D02*
X139247857Y-67903628D01*
X139247857Y-67903628D02*
X139057381Y-67856009D01*
X139057381Y-67856009D02*
X138962143Y-67808390D01*
X138962143Y-67808390D02*
X138914524Y-67760771D01*
X138914524Y-67760771D02*
X138866905Y-67665533D01*
X138866905Y-67665533D02*
X138866905Y-67570295D01*
X138866905Y-67570295D02*
X138914524Y-67475057D01*
X138914524Y-67475057D02*
X138962143Y-67427438D01*
X138962143Y-67427438D02*
X139057381Y-67379819D01*
X139057381Y-67379819D02*
X139295476Y-67379819D01*
X139295476Y-67379819D02*
X139438333Y-67427438D01*
X139771667Y-67379819D02*
X140390714Y-67379819D01*
X140390714Y-67379819D02*
X140057381Y-67760771D01*
X140057381Y-67760771D02*
X140200238Y-67760771D01*
X140200238Y-67760771D02*
X140295476Y-67808390D01*
X140295476Y-67808390D02*
X140343095Y-67856009D01*
X140343095Y-67856009D02*
X140390714Y-67951247D01*
X140390714Y-67951247D02*
X140390714Y-68189342D01*
X140390714Y-68189342D02*
X140343095Y-68284580D01*
X140343095Y-68284580D02*
X140295476Y-68332200D01*
X140295476Y-68332200D02*
X140200238Y-68379819D01*
X140200238Y-68379819D02*
X139914524Y-68379819D01*
X139914524Y-68379819D02*
X139819286Y-68332200D01*
X139819286Y-68332200D02*
X139771667Y-68284580D01*
X137907142Y-94664819D02*
X137573809Y-94188628D01*
X137335714Y-94664819D02*
X137335714Y-93664819D01*
X137335714Y-93664819D02*
X137716666Y-93664819D01*
X137716666Y-93664819D02*
X137811904Y-93712438D01*
X137811904Y-93712438D02*
X137859523Y-93760057D01*
X137859523Y-93760057D02*
X137907142Y-93855295D01*
X137907142Y-93855295D02*
X137907142Y-93998152D01*
X137907142Y-93998152D02*
X137859523Y-94093390D01*
X137859523Y-94093390D02*
X137811904Y-94141009D01*
X137811904Y-94141009D02*
X137716666Y-94188628D01*
X137716666Y-94188628D02*
X137335714Y-94188628D01*
X138859523Y-94664819D02*
X138288095Y-94664819D01*
X138573809Y-94664819D02*
X138573809Y-93664819D01*
X138573809Y-93664819D02*
X138478571Y-93807676D01*
X138478571Y-93807676D02*
X138383333Y-93902914D01*
X138383333Y-93902914D02*
X138288095Y-93950533D01*
X139430952Y-94093390D02*
X139335714Y-94045771D01*
X139335714Y-94045771D02*
X139288095Y-93998152D01*
X139288095Y-93998152D02*
X139240476Y-93902914D01*
X139240476Y-93902914D02*
X139240476Y-93855295D01*
X139240476Y-93855295D02*
X139288095Y-93760057D01*
X139288095Y-93760057D02*
X139335714Y-93712438D01*
X139335714Y-93712438D02*
X139430952Y-93664819D01*
X139430952Y-93664819D02*
X139621428Y-93664819D01*
X139621428Y-93664819D02*
X139716666Y-93712438D01*
X139716666Y-93712438D02*
X139764285Y-93760057D01*
X139764285Y-93760057D02*
X139811904Y-93855295D01*
X139811904Y-93855295D02*
X139811904Y-93902914D01*
X139811904Y-93902914D02*
X139764285Y-93998152D01*
X139764285Y-93998152D02*
X139716666Y-94045771D01*
X139716666Y-94045771D02*
X139621428Y-94093390D01*
X139621428Y-94093390D02*
X139430952Y-94093390D01*
X139430952Y-94093390D02*
X139335714Y-94141009D01*
X139335714Y-94141009D02*
X139288095Y-94188628D01*
X139288095Y-94188628D02*
X139240476Y-94283866D01*
X139240476Y-94283866D02*
X139240476Y-94474342D01*
X139240476Y-94474342D02*
X139288095Y-94569580D01*
X139288095Y-94569580D02*
X139335714Y-94617200D01*
X139335714Y-94617200D02*
X139430952Y-94664819D01*
X139430952Y-94664819D02*
X139621428Y-94664819D01*
X139621428Y-94664819D02*
X139716666Y-94617200D01*
X139716666Y-94617200D02*
X139764285Y-94569580D01*
X139764285Y-94569580D02*
X139811904Y-94474342D01*
X139811904Y-94474342D02*
X139811904Y-94283866D01*
X139811904Y-94283866D02*
X139764285Y-94188628D01*
X139764285Y-94188628D02*
X139716666Y-94141009D01*
X139716666Y-94141009D02*
X139621428Y-94093390D01*
X90568095Y-93716819D02*
X91139523Y-93716819D01*
X90853809Y-94716819D02*
X90853809Y-93716819D01*
X91472857Y-94716819D02*
X91472857Y-93716819D01*
X91472857Y-93716819D02*
X91853809Y-93716819D01*
X91853809Y-93716819D02*
X91949047Y-93764438D01*
X91949047Y-93764438D02*
X91996666Y-93812057D01*
X91996666Y-93812057D02*
X92044285Y-93907295D01*
X92044285Y-93907295D02*
X92044285Y-94050152D01*
X92044285Y-94050152D02*
X91996666Y-94145390D01*
X91996666Y-94145390D02*
X91949047Y-94193009D01*
X91949047Y-94193009D02*
X91853809Y-94240628D01*
X91853809Y-94240628D02*
X91472857Y-94240628D01*
X92996666Y-94716819D02*
X92425238Y-94716819D01*
X92710952Y-94716819D02*
X92710952Y-93716819D01*
X92710952Y-93716819D02*
X92615714Y-93859676D01*
X92615714Y-93859676D02*
X92520476Y-93954914D01*
X92520476Y-93954914D02*
X92425238Y-94002533D01*
X178227142Y-123864819D02*
X177893809Y-123388628D01*
X177655714Y-123864819D02*
X177655714Y-122864819D01*
X177655714Y-122864819D02*
X178036666Y-122864819D01*
X178036666Y-122864819D02*
X178131904Y-122912438D01*
X178131904Y-122912438D02*
X178179523Y-122960057D01*
X178179523Y-122960057D02*
X178227142Y-123055295D01*
X178227142Y-123055295D02*
X178227142Y-123198152D01*
X178227142Y-123198152D02*
X178179523Y-123293390D01*
X178179523Y-123293390D02*
X178131904Y-123341009D01*
X178131904Y-123341009D02*
X178036666Y-123388628D01*
X178036666Y-123388628D02*
X177655714Y-123388628D01*
X178608095Y-122960057D02*
X178655714Y-122912438D01*
X178655714Y-122912438D02*
X178750952Y-122864819D01*
X178750952Y-122864819D02*
X178989047Y-122864819D01*
X178989047Y-122864819D02*
X179084285Y-122912438D01*
X179084285Y-122912438D02*
X179131904Y-122960057D01*
X179131904Y-122960057D02*
X179179523Y-123055295D01*
X179179523Y-123055295D02*
X179179523Y-123150533D01*
X179179523Y-123150533D02*
X179131904Y-123293390D01*
X179131904Y-123293390D02*
X178560476Y-123864819D01*
X178560476Y-123864819D02*
X179179523Y-123864819D01*
X180036666Y-123198152D02*
X180036666Y-123864819D01*
X179798571Y-122817200D02*
X179560476Y-123531485D01*
X179560476Y-123531485D02*
X180179523Y-123531485D01*
X104887142Y-105164819D02*
X104553809Y-104688628D01*
X104315714Y-105164819D02*
X104315714Y-104164819D01*
X104315714Y-104164819D02*
X104696666Y-104164819D01*
X104696666Y-104164819D02*
X104791904Y-104212438D01*
X104791904Y-104212438D02*
X104839523Y-104260057D01*
X104839523Y-104260057D02*
X104887142Y-104355295D01*
X104887142Y-104355295D02*
X104887142Y-104498152D01*
X104887142Y-104498152D02*
X104839523Y-104593390D01*
X104839523Y-104593390D02*
X104791904Y-104641009D01*
X104791904Y-104641009D02*
X104696666Y-104688628D01*
X104696666Y-104688628D02*
X104315714Y-104688628D01*
X105220476Y-104164819D02*
X105839523Y-104164819D01*
X105839523Y-104164819D02*
X105506190Y-104545771D01*
X105506190Y-104545771D02*
X105649047Y-104545771D01*
X105649047Y-104545771D02*
X105744285Y-104593390D01*
X105744285Y-104593390D02*
X105791904Y-104641009D01*
X105791904Y-104641009D02*
X105839523Y-104736247D01*
X105839523Y-104736247D02*
X105839523Y-104974342D01*
X105839523Y-104974342D02*
X105791904Y-105069580D01*
X105791904Y-105069580D02*
X105744285Y-105117200D01*
X105744285Y-105117200D02*
X105649047Y-105164819D01*
X105649047Y-105164819D02*
X105363333Y-105164819D01*
X105363333Y-105164819D02*
X105268095Y-105117200D01*
X105268095Y-105117200D02*
X105220476Y-105069580D01*
X106172857Y-104164819D02*
X106791904Y-104164819D01*
X106791904Y-104164819D02*
X106458571Y-104545771D01*
X106458571Y-104545771D02*
X106601428Y-104545771D01*
X106601428Y-104545771D02*
X106696666Y-104593390D01*
X106696666Y-104593390D02*
X106744285Y-104641009D01*
X106744285Y-104641009D02*
X106791904Y-104736247D01*
X106791904Y-104736247D02*
X106791904Y-104974342D01*
X106791904Y-104974342D02*
X106744285Y-105069580D01*
X106744285Y-105069580D02*
X106696666Y-105117200D01*
X106696666Y-105117200D02*
X106601428Y-105164819D01*
X106601428Y-105164819D02*
X106315714Y-105164819D01*
X106315714Y-105164819D02*
X106220476Y-105117200D01*
X106220476Y-105117200D02*
X106172857Y-105069580D01*
X137917142Y-110664819D02*
X137583809Y-110188628D01*
X137345714Y-110664819D02*
X137345714Y-109664819D01*
X137345714Y-109664819D02*
X137726666Y-109664819D01*
X137726666Y-109664819D02*
X137821904Y-109712438D01*
X137821904Y-109712438D02*
X137869523Y-109760057D01*
X137869523Y-109760057D02*
X137917142Y-109855295D01*
X137917142Y-109855295D02*
X137917142Y-109998152D01*
X137917142Y-109998152D02*
X137869523Y-110093390D01*
X137869523Y-110093390D02*
X137821904Y-110141009D01*
X137821904Y-110141009D02*
X137726666Y-110188628D01*
X137726666Y-110188628D02*
X137345714Y-110188628D01*
X138869523Y-110664819D02*
X138298095Y-110664819D01*
X138583809Y-110664819D02*
X138583809Y-109664819D01*
X138583809Y-109664819D02*
X138488571Y-109807676D01*
X138488571Y-109807676D02*
X138393333Y-109902914D01*
X138393333Y-109902914D02*
X138298095Y-109950533D01*
X139774285Y-109664819D02*
X139298095Y-109664819D01*
X139298095Y-109664819D02*
X139250476Y-110141009D01*
X139250476Y-110141009D02*
X139298095Y-110093390D01*
X139298095Y-110093390D02*
X139393333Y-110045771D01*
X139393333Y-110045771D02*
X139631428Y-110045771D01*
X139631428Y-110045771D02*
X139726666Y-110093390D01*
X139726666Y-110093390D02*
X139774285Y-110141009D01*
X139774285Y-110141009D02*
X139821904Y-110236247D01*
X139821904Y-110236247D02*
X139821904Y-110474342D01*
X139821904Y-110474342D02*
X139774285Y-110569580D01*
X139774285Y-110569580D02*
X139726666Y-110617200D01*
X139726666Y-110617200D02*
X139631428Y-110664819D01*
X139631428Y-110664819D02*
X139393333Y-110664819D01*
X139393333Y-110664819D02*
X139298095Y-110617200D01*
X139298095Y-110617200D02*
X139250476Y-110569580D01*
X163908095Y-88164819D02*
X164479523Y-88164819D01*
X164193809Y-89164819D02*
X164193809Y-88164819D01*
X164812857Y-89164819D02*
X164812857Y-88164819D01*
X164812857Y-88164819D02*
X165193809Y-88164819D01*
X165193809Y-88164819D02*
X165289047Y-88212438D01*
X165289047Y-88212438D02*
X165336666Y-88260057D01*
X165336666Y-88260057D02*
X165384285Y-88355295D01*
X165384285Y-88355295D02*
X165384285Y-88498152D01*
X165384285Y-88498152D02*
X165336666Y-88593390D01*
X165336666Y-88593390D02*
X165289047Y-88641009D01*
X165289047Y-88641009D02*
X165193809Y-88688628D01*
X165193809Y-88688628D02*
X164812857Y-88688628D01*
X165717619Y-88164819D02*
X166336666Y-88164819D01*
X166336666Y-88164819D02*
X166003333Y-88545771D01*
X166003333Y-88545771D02*
X166146190Y-88545771D01*
X166146190Y-88545771D02*
X166241428Y-88593390D01*
X166241428Y-88593390D02*
X166289047Y-88641009D01*
X166289047Y-88641009D02*
X166336666Y-88736247D01*
X166336666Y-88736247D02*
X166336666Y-88974342D01*
X166336666Y-88974342D02*
X166289047Y-89069580D01*
X166289047Y-89069580D02*
X166241428Y-89117200D01*
X166241428Y-89117200D02*
X166146190Y-89164819D01*
X166146190Y-89164819D02*
X165860476Y-89164819D01*
X165860476Y-89164819D02*
X165765238Y-89117200D01*
X165765238Y-89117200D02*
X165717619Y-89069580D01*
X106615714Y-118044819D02*
X106615714Y-117044819D01*
X106615714Y-117044819D02*
X106853809Y-117044819D01*
X106853809Y-117044819D02*
X106996666Y-117092438D01*
X106996666Y-117092438D02*
X107091904Y-117187676D01*
X107091904Y-117187676D02*
X107139523Y-117282914D01*
X107139523Y-117282914D02*
X107187142Y-117473390D01*
X107187142Y-117473390D02*
X107187142Y-117616247D01*
X107187142Y-117616247D02*
X107139523Y-117806723D01*
X107139523Y-117806723D02*
X107091904Y-117901961D01*
X107091904Y-117901961D02*
X106996666Y-117997200D01*
X106996666Y-117997200D02*
X106853809Y-118044819D01*
X106853809Y-118044819D02*
X106615714Y-118044819D01*
X108139523Y-118044819D02*
X107568095Y-118044819D01*
X107853809Y-118044819D02*
X107853809Y-117044819D01*
X107853809Y-117044819D02*
X107758571Y-117187676D01*
X107758571Y-117187676D02*
X107663333Y-117282914D01*
X107663333Y-117282914D02*
X107568095Y-117330533D01*
X108996666Y-117378152D02*
X108996666Y-118044819D01*
X108758571Y-116997200D02*
X108520476Y-117711485D01*
X108520476Y-117711485D02*
X109139523Y-117711485D01*
X97458095Y-116244819D02*
X97458095Y-115244819D01*
X98029523Y-116244819D02*
X97600952Y-115673390D01*
X98029523Y-115244819D02*
X97458095Y-115816247D01*
X144331905Y-81764819D02*
X144331905Y-80764819D01*
X144331905Y-80764819D02*
X144570000Y-80764819D01*
X144570000Y-80764819D02*
X144712857Y-80812438D01*
X144712857Y-80812438D02*
X144808095Y-80907676D01*
X144808095Y-80907676D02*
X144855714Y-81002914D01*
X144855714Y-81002914D02*
X144903333Y-81193390D01*
X144903333Y-81193390D02*
X144903333Y-81336247D01*
X144903333Y-81336247D02*
X144855714Y-81526723D01*
X144855714Y-81526723D02*
X144808095Y-81621961D01*
X144808095Y-81621961D02*
X144712857Y-81717200D01*
X144712857Y-81717200D02*
X144570000Y-81764819D01*
X144570000Y-81764819D02*
X144331905Y-81764819D01*
X145474762Y-81193390D02*
X145379524Y-81145771D01*
X145379524Y-81145771D02*
X145331905Y-81098152D01*
X145331905Y-81098152D02*
X145284286Y-81002914D01*
X145284286Y-81002914D02*
X145284286Y-80955295D01*
X145284286Y-80955295D02*
X145331905Y-80860057D01*
X145331905Y-80860057D02*
X145379524Y-80812438D01*
X145379524Y-80812438D02*
X145474762Y-80764819D01*
X145474762Y-80764819D02*
X145665238Y-80764819D01*
X145665238Y-80764819D02*
X145760476Y-80812438D01*
X145760476Y-80812438D02*
X145808095Y-80860057D01*
X145808095Y-80860057D02*
X145855714Y-80955295D01*
X145855714Y-80955295D02*
X145855714Y-81002914D01*
X145855714Y-81002914D02*
X145808095Y-81098152D01*
X145808095Y-81098152D02*
X145760476Y-81145771D01*
X145760476Y-81145771D02*
X145665238Y-81193390D01*
X145665238Y-81193390D02*
X145474762Y-81193390D01*
X145474762Y-81193390D02*
X145379524Y-81241009D01*
X145379524Y-81241009D02*
X145331905Y-81288628D01*
X145331905Y-81288628D02*
X145284286Y-81383866D01*
X145284286Y-81383866D02*
X145284286Y-81574342D01*
X145284286Y-81574342D02*
X145331905Y-81669580D01*
X145331905Y-81669580D02*
X145379524Y-81717200D01*
X145379524Y-81717200D02*
X145474762Y-81764819D01*
X145474762Y-81764819D02*
X145665238Y-81764819D01*
X145665238Y-81764819D02*
X145760476Y-81717200D01*
X145760476Y-81717200D02*
X145808095Y-81669580D01*
X145808095Y-81669580D02*
X145855714Y-81574342D01*
X145855714Y-81574342D02*
X145855714Y-81383866D01*
X145855714Y-81383866D02*
X145808095Y-81288628D01*
X145808095Y-81288628D02*
X145760476Y-81241009D01*
X145760476Y-81241009D02*
X145665238Y-81193390D01*
X142818095Y-83564819D02*
X142818095Y-82564819D01*
X143389523Y-83564819D02*
X142960952Y-82993390D01*
X143389523Y-82564819D02*
X142818095Y-83136247D01*
X76933722Y-116758065D02*
X76600389Y-116758065D01*
X76600389Y-117281875D02*
X76600389Y-116281875D01*
X76600389Y-116281875D02*
X77076579Y-116281875D01*
X77981341Y-117281875D02*
X77409913Y-117281875D01*
X77695627Y-117281875D02*
X77695627Y-116281875D01*
X77695627Y-116281875D02*
X77600389Y-116424732D01*
X77600389Y-116424732D02*
X77505151Y-116519970D01*
X77505151Y-116519970D02*
X77409913Y-116567589D01*
X144115714Y-118044819D02*
X144115714Y-117044819D01*
X144115714Y-117044819D02*
X144353809Y-117044819D01*
X144353809Y-117044819D02*
X144496666Y-117092438D01*
X144496666Y-117092438D02*
X144591904Y-117187676D01*
X144591904Y-117187676D02*
X144639523Y-117282914D01*
X144639523Y-117282914D02*
X144687142Y-117473390D01*
X144687142Y-117473390D02*
X144687142Y-117616247D01*
X144687142Y-117616247D02*
X144639523Y-117806723D01*
X144639523Y-117806723D02*
X144591904Y-117901961D01*
X144591904Y-117901961D02*
X144496666Y-117997200D01*
X144496666Y-117997200D02*
X144353809Y-118044819D01*
X144353809Y-118044819D02*
X144115714Y-118044819D01*
X145639523Y-118044819D02*
X145068095Y-118044819D01*
X145353809Y-118044819D02*
X145353809Y-117044819D01*
X145353809Y-117044819D02*
X145258571Y-117187676D01*
X145258571Y-117187676D02*
X145163333Y-117282914D01*
X145163333Y-117282914D02*
X145068095Y-117330533D01*
X146591904Y-118044819D02*
X146020476Y-118044819D01*
X146306190Y-118044819D02*
X146306190Y-117044819D01*
X146306190Y-117044819D02*
X146210952Y-117187676D01*
X146210952Y-117187676D02*
X146115714Y-117282914D01*
X146115714Y-117282914D02*
X146020476Y-117330533D01*
X134958095Y-116144819D02*
X134958095Y-115144819D01*
X135529523Y-116144819D02*
X135100952Y-115573390D01*
X135529523Y-115144819D02*
X134958095Y-115716247D01*
X178187142Y-126964819D02*
X177853809Y-126488628D01*
X177615714Y-126964819D02*
X177615714Y-125964819D01*
X177615714Y-125964819D02*
X177996666Y-125964819D01*
X177996666Y-125964819D02*
X178091904Y-126012438D01*
X178091904Y-126012438D02*
X178139523Y-126060057D01*
X178139523Y-126060057D02*
X178187142Y-126155295D01*
X178187142Y-126155295D02*
X178187142Y-126298152D01*
X178187142Y-126298152D02*
X178139523Y-126393390D01*
X178139523Y-126393390D02*
X178091904Y-126441009D01*
X178091904Y-126441009D02*
X177996666Y-126488628D01*
X177996666Y-126488628D02*
X177615714Y-126488628D01*
X179139523Y-126964819D02*
X178568095Y-126964819D01*
X178853809Y-126964819D02*
X178853809Y-125964819D01*
X178853809Y-125964819D02*
X178758571Y-126107676D01*
X178758571Y-126107676D02*
X178663333Y-126202914D01*
X178663333Y-126202914D02*
X178568095Y-126250533D01*
X179520476Y-126060057D02*
X179568095Y-126012438D01*
X179568095Y-126012438D02*
X179663333Y-125964819D01*
X179663333Y-125964819D02*
X179901428Y-125964819D01*
X179901428Y-125964819D02*
X179996666Y-126012438D01*
X179996666Y-126012438D02*
X180044285Y-126060057D01*
X180044285Y-126060057D02*
X180091904Y-126155295D01*
X180091904Y-126155295D02*
X180091904Y-126250533D01*
X180091904Y-126250533D02*
X180044285Y-126393390D01*
X180044285Y-126393390D02*
X179472857Y-126964819D01*
X179472857Y-126964819D02*
X180091904Y-126964819D01*
X132534761Y-74840057D02*
X132439523Y-74792438D01*
X132439523Y-74792438D02*
X132344285Y-74697200D01*
X132344285Y-74697200D02*
X132201428Y-74554342D01*
X132201428Y-74554342D02*
X132106190Y-74506723D01*
X132106190Y-74506723D02*
X132010952Y-74506723D01*
X132058571Y-74744819D02*
X131963333Y-74697200D01*
X131963333Y-74697200D02*
X131868095Y-74601961D01*
X131868095Y-74601961D02*
X131820476Y-74411485D01*
X131820476Y-74411485D02*
X131820476Y-74078152D01*
X131820476Y-74078152D02*
X131868095Y-73887676D01*
X131868095Y-73887676D02*
X131963333Y-73792438D01*
X131963333Y-73792438D02*
X132058571Y-73744819D01*
X132058571Y-73744819D02*
X132249047Y-73744819D01*
X132249047Y-73744819D02*
X132344285Y-73792438D01*
X132344285Y-73792438D02*
X132439523Y-73887676D01*
X132439523Y-73887676D02*
X132487142Y-74078152D01*
X132487142Y-74078152D02*
X132487142Y-74411485D01*
X132487142Y-74411485D02*
X132439523Y-74601961D01*
X132439523Y-74601961D02*
X132344285Y-74697200D01*
X132344285Y-74697200D02*
X132249047Y-74744819D01*
X132249047Y-74744819D02*
X132058571Y-74744819D01*
X133439523Y-74744819D02*
X132868095Y-74744819D01*
X133153809Y-74744819D02*
X133153809Y-73744819D01*
X133153809Y-73744819D02*
X133058571Y-73887676D01*
X133058571Y-73887676D02*
X132963333Y-73982914D01*
X132963333Y-73982914D02*
X132868095Y-74030533D01*
X144903333Y-78864819D02*
X144570000Y-78388628D01*
X144331905Y-78864819D02*
X144331905Y-77864819D01*
X144331905Y-77864819D02*
X144712857Y-77864819D01*
X144712857Y-77864819D02*
X144808095Y-77912438D01*
X144808095Y-77912438D02*
X144855714Y-77960057D01*
X144855714Y-77960057D02*
X144903333Y-78055295D01*
X144903333Y-78055295D02*
X144903333Y-78198152D01*
X144903333Y-78198152D02*
X144855714Y-78293390D01*
X144855714Y-78293390D02*
X144808095Y-78341009D01*
X144808095Y-78341009D02*
X144712857Y-78388628D01*
X144712857Y-78388628D02*
X144331905Y-78388628D01*
X145760476Y-78198152D02*
X145760476Y-78864819D01*
X145522381Y-77817200D02*
X145284286Y-78531485D01*
X145284286Y-78531485D02*
X145903333Y-78531485D01*
X133884819Y-124732857D02*
X133408628Y-125066190D01*
X133884819Y-125304285D02*
X132884819Y-125304285D01*
X132884819Y-125304285D02*
X132884819Y-124923333D01*
X132884819Y-124923333D02*
X132932438Y-124828095D01*
X132932438Y-124828095D02*
X132980057Y-124780476D01*
X132980057Y-124780476D02*
X133075295Y-124732857D01*
X133075295Y-124732857D02*
X133218152Y-124732857D01*
X133218152Y-124732857D02*
X133313390Y-124780476D01*
X133313390Y-124780476D02*
X133361009Y-124828095D01*
X133361009Y-124828095D02*
X133408628Y-124923333D01*
X133408628Y-124923333D02*
X133408628Y-125304285D01*
X132884819Y-124399523D02*
X132884819Y-123780476D01*
X132884819Y-123780476D02*
X133265771Y-124113809D01*
X133265771Y-124113809D02*
X133265771Y-123970952D01*
X133265771Y-123970952D02*
X133313390Y-123875714D01*
X133313390Y-123875714D02*
X133361009Y-123828095D01*
X133361009Y-123828095D02*
X133456247Y-123780476D01*
X133456247Y-123780476D02*
X133694342Y-123780476D01*
X133694342Y-123780476D02*
X133789580Y-123828095D01*
X133789580Y-123828095D02*
X133837200Y-123875714D01*
X133837200Y-123875714D02*
X133884819Y-123970952D01*
X133884819Y-123970952D02*
X133884819Y-124256666D01*
X133884819Y-124256666D02*
X133837200Y-124351904D01*
X133837200Y-124351904D02*
X133789580Y-124399523D01*
X133884819Y-122828095D02*
X133884819Y-123399523D01*
X133884819Y-123113809D02*
X132884819Y-123113809D01*
X132884819Y-123113809D02*
X133027676Y-123209047D01*
X133027676Y-123209047D02*
X133122914Y-123304285D01*
X133122914Y-123304285D02*
X133170533Y-123399523D01*
X141527142Y-95664819D02*
X141193809Y-95188628D01*
X140955714Y-95664819D02*
X140955714Y-94664819D01*
X140955714Y-94664819D02*
X141336666Y-94664819D01*
X141336666Y-94664819D02*
X141431904Y-94712438D01*
X141431904Y-94712438D02*
X141479523Y-94760057D01*
X141479523Y-94760057D02*
X141527142Y-94855295D01*
X141527142Y-94855295D02*
X141527142Y-94998152D01*
X141527142Y-94998152D02*
X141479523Y-95093390D01*
X141479523Y-95093390D02*
X141431904Y-95141009D01*
X141431904Y-95141009D02*
X141336666Y-95188628D01*
X141336666Y-95188628D02*
X140955714Y-95188628D01*
X141860476Y-94664819D02*
X142479523Y-94664819D01*
X142479523Y-94664819D02*
X142146190Y-95045771D01*
X142146190Y-95045771D02*
X142289047Y-95045771D01*
X142289047Y-95045771D02*
X142384285Y-95093390D01*
X142384285Y-95093390D02*
X142431904Y-95141009D01*
X142431904Y-95141009D02*
X142479523Y-95236247D01*
X142479523Y-95236247D02*
X142479523Y-95474342D01*
X142479523Y-95474342D02*
X142431904Y-95569580D01*
X142431904Y-95569580D02*
X142384285Y-95617200D01*
X142384285Y-95617200D02*
X142289047Y-95664819D01*
X142289047Y-95664819D02*
X142003333Y-95664819D01*
X142003333Y-95664819D02*
X141908095Y-95617200D01*
X141908095Y-95617200D02*
X141860476Y-95569580D01*
X142812857Y-94664819D02*
X143479523Y-94664819D01*
X143479523Y-94664819D02*
X143050952Y-95664819D01*
X135423333Y-88289580D02*
X135375714Y-88337200D01*
X135375714Y-88337200D02*
X135232857Y-88384819D01*
X135232857Y-88384819D02*
X135137619Y-88384819D01*
X135137619Y-88384819D02*
X134994762Y-88337200D01*
X134994762Y-88337200D02*
X134899524Y-88241961D01*
X134899524Y-88241961D02*
X134851905Y-88146723D01*
X134851905Y-88146723D02*
X134804286Y-87956247D01*
X134804286Y-87956247D02*
X134804286Y-87813390D01*
X134804286Y-87813390D02*
X134851905Y-87622914D01*
X134851905Y-87622914D02*
X134899524Y-87527676D01*
X134899524Y-87527676D02*
X134994762Y-87432438D01*
X134994762Y-87432438D02*
X135137619Y-87384819D01*
X135137619Y-87384819D02*
X135232857Y-87384819D01*
X135232857Y-87384819D02*
X135375714Y-87432438D01*
X135375714Y-87432438D02*
X135423333Y-87480057D01*
X135756667Y-87384819D02*
X136423333Y-87384819D01*
X136423333Y-87384819D02*
X135994762Y-88384819D01*
X105773333Y-98564819D02*
X105440000Y-98088628D01*
X105201905Y-98564819D02*
X105201905Y-97564819D01*
X105201905Y-97564819D02*
X105582857Y-97564819D01*
X105582857Y-97564819D02*
X105678095Y-97612438D01*
X105678095Y-97612438D02*
X105725714Y-97660057D01*
X105725714Y-97660057D02*
X105773333Y-97755295D01*
X105773333Y-97755295D02*
X105773333Y-97898152D01*
X105773333Y-97898152D02*
X105725714Y-97993390D01*
X105725714Y-97993390D02*
X105678095Y-98041009D01*
X105678095Y-98041009D02*
X105582857Y-98088628D01*
X105582857Y-98088628D02*
X105201905Y-98088628D01*
X106630476Y-97564819D02*
X106440000Y-97564819D01*
X106440000Y-97564819D02*
X106344762Y-97612438D01*
X106344762Y-97612438D02*
X106297143Y-97660057D01*
X106297143Y-97660057D02*
X106201905Y-97802914D01*
X106201905Y-97802914D02*
X106154286Y-97993390D01*
X106154286Y-97993390D02*
X106154286Y-98374342D01*
X106154286Y-98374342D02*
X106201905Y-98469580D01*
X106201905Y-98469580D02*
X106249524Y-98517200D01*
X106249524Y-98517200D02*
X106344762Y-98564819D01*
X106344762Y-98564819D02*
X106535238Y-98564819D01*
X106535238Y-98564819D02*
X106630476Y-98517200D01*
X106630476Y-98517200D02*
X106678095Y-98469580D01*
X106678095Y-98469580D02*
X106725714Y-98374342D01*
X106725714Y-98374342D02*
X106725714Y-98136247D01*
X106725714Y-98136247D02*
X106678095Y-98041009D01*
X106678095Y-98041009D02*
X106630476Y-97993390D01*
X106630476Y-97993390D02*
X106535238Y-97945771D01*
X106535238Y-97945771D02*
X106344762Y-97945771D01*
X106344762Y-97945771D02*
X106249524Y-97993390D01*
X106249524Y-97993390D02*
X106201905Y-98041009D01*
X106201905Y-98041009D02*
X106154286Y-98136247D01*
X79452770Y-122431875D02*
X79452770Y-121431875D01*
X79452770Y-121431875D02*
X79690865Y-121431875D01*
X79690865Y-121431875D02*
X79833722Y-121479494D01*
X79833722Y-121479494D02*
X79928960Y-121574732D01*
X79928960Y-121574732D02*
X79976579Y-121669970D01*
X79976579Y-121669970D02*
X80024198Y-121860446D01*
X80024198Y-121860446D02*
X80024198Y-122003303D01*
X80024198Y-122003303D02*
X79976579Y-122193779D01*
X79976579Y-122193779D02*
X79928960Y-122289017D01*
X79928960Y-122289017D02*
X79833722Y-122384256D01*
X79833722Y-122384256D02*
X79690865Y-122431875D01*
X79690865Y-122431875D02*
X79452770Y-122431875D01*
X80976579Y-122431875D02*
X80405151Y-122431875D01*
X80690865Y-122431875D02*
X80690865Y-121431875D01*
X80690865Y-121431875D02*
X80595627Y-121574732D01*
X80595627Y-121574732D02*
X80500389Y-121669970D01*
X80500389Y-121669970D02*
X80405151Y-121717589D01*
X81833722Y-121431875D02*
X81643246Y-121431875D01*
X81643246Y-121431875D02*
X81548008Y-121479494D01*
X81548008Y-121479494D02*
X81500389Y-121527113D01*
X81500389Y-121527113D02*
X81405151Y-121669970D01*
X81405151Y-121669970D02*
X81357532Y-121860446D01*
X81357532Y-121860446D02*
X81357532Y-122241398D01*
X81357532Y-122241398D02*
X81405151Y-122336636D01*
X81405151Y-122336636D02*
X81452770Y-122384256D01*
X81452770Y-122384256D02*
X81548008Y-122431875D01*
X81548008Y-122431875D02*
X81738484Y-122431875D01*
X81738484Y-122431875D02*
X81833722Y-122384256D01*
X81833722Y-122384256D02*
X81881341Y-122336636D01*
X81881341Y-122336636D02*
X81928960Y-122241398D01*
X81928960Y-122241398D02*
X81928960Y-122003303D01*
X81928960Y-122003303D02*
X81881341Y-121908065D01*
X81881341Y-121908065D02*
X81833722Y-121860446D01*
X81833722Y-121860446D02*
X81738484Y-121812827D01*
X81738484Y-121812827D02*
X81548008Y-121812827D01*
X81548008Y-121812827D02*
X81452770Y-121860446D01*
X81452770Y-121860446D02*
X81405151Y-121908065D01*
X81405151Y-121908065D02*
X81357532Y-122003303D01*
X88788095Y-122364819D02*
X88788095Y-121364819D01*
X89359523Y-122364819D02*
X88930952Y-121793390D01*
X89359523Y-121364819D02*
X88788095Y-121936247D01*
X121203333Y-116969580D02*
X121155714Y-117017200D01*
X121155714Y-117017200D02*
X121012857Y-117064819D01*
X121012857Y-117064819D02*
X120917619Y-117064819D01*
X120917619Y-117064819D02*
X120774762Y-117017200D01*
X120774762Y-117017200D02*
X120679524Y-116921961D01*
X120679524Y-116921961D02*
X120631905Y-116826723D01*
X120631905Y-116826723D02*
X120584286Y-116636247D01*
X120584286Y-116636247D02*
X120584286Y-116493390D01*
X120584286Y-116493390D02*
X120631905Y-116302914D01*
X120631905Y-116302914D02*
X120679524Y-116207676D01*
X120679524Y-116207676D02*
X120774762Y-116112438D01*
X120774762Y-116112438D02*
X120917619Y-116064819D01*
X120917619Y-116064819D02*
X121012857Y-116064819D01*
X121012857Y-116064819D02*
X121155714Y-116112438D01*
X121155714Y-116112438D02*
X121203333Y-116160057D01*
X121774762Y-116493390D02*
X121679524Y-116445771D01*
X121679524Y-116445771D02*
X121631905Y-116398152D01*
X121631905Y-116398152D02*
X121584286Y-116302914D01*
X121584286Y-116302914D02*
X121584286Y-116255295D01*
X121584286Y-116255295D02*
X121631905Y-116160057D01*
X121631905Y-116160057D02*
X121679524Y-116112438D01*
X121679524Y-116112438D02*
X121774762Y-116064819D01*
X121774762Y-116064819D02*
X121965238Y-116064819D01*
X121965238Y-116064819D02*
X122060476Y-116112438D01*
X122060476Y-116112438D02*
X122108095Y-116160057D01*
X122108095Y-116160057D02*
X122155714Y-116255295D01*
X122155714Y-116255295D02*
X122155714Y-116302914D01*
X122155714Y-116302914D02*
X122108095Y-116398152D01*
X122108095Y-116398152D02*
X122060476Y-116445771D01*
X122060476Y-116445771D02*
X121965238Y-116493390D01*
X121965238Y-116493390D02*
X121774762Y-116493390D01*
X121774762Y-116493390D02*
X121679524Y-116541009D01*
X121679524Y-116541009D02*
X121631905Y-116588628D01*
X121631905Y-116588628D02*
X121584286Y-116683866D01*
X121584286Y-116683866D02*
X121584286Y-116874342D01*
X121584286Y-116874342D02*
X121631905Y-116969580D01*
X121631905Y-116969580D02*
X121679524Y-117017200D01*
X121679524Y-117017200D02*
X121774762Y-117064819D01*
X121774762Y-117064819D02*
X121965238Y-117064819D01*
X121965238Y-117064819D02*
X122060476Y-117017200D01*
X122060476Y-117017200D02*
X122108095Y-116969580D01*
X122108095Y-116969580D02*
X122155714Y-116874342D01*
X122155714Y-116874342D02*
X122155714Y-116683866D01*
X122155714Y-116683866D02*
X122108095Y-116588628D01*
X122108095Y-116588628D02*
X122060476Y-116541009D01*
X122060476Y-116541009D02*
X121965238Y-116493390D01*
X105863333Y-111644819D02*
X105530000Y-111168628D01*
X105291905Y-111644819D02*
X105291905Y-110644819D01*
X105291905Y-110644819D02*
X105672857Y-110644819D01*
X105672857Y-110644819D02*
X105768095Y-110692438D01*
X105768095Y-110692438D02*
X105815714Y-110740057D01*
X105815714Y-110740057D02*
X105863333Y-110835295D01*
X105863333Y-110835295D02*
X105863333Y-110978152D01*
X105863333Y-110978152D02*
X105815714Y-111073390D01*
X105815714Y-111073390D02*
X105768095Y-111121009D01*
X105768095Y-111121009D02*
X105672857Y-111168628D01*
X105672857Y-111168628D02*
X105291905Y-111168628D01*
X106244286Y-110740057D02*
X106291905Y-110692438D01*
X106291905Y-110692438D02*
X106387143Y-110644819D01*
X106387143Y-110644819D02*
X106625238Y-110644819D01*
X106625238Y-110644819D02*
X106720476Y-110692438D01*
X106720476Y-110692438D02*
X106768095Y-110740057D01*
X106768095Y-110740057D02*
X106815714Y-110835295D01*
X106815714Y-110835295D02*
X106815714Y-110930533D01*
X106815714Y-110930533D02*
X106768095Y-111073390D01*
X106768095Y-111073390D02*
X106196667Y-111644819D01*
X106196667Y-111644819D02*
X106815714Y-111644819D01*
X89791905Y-100264819D02*
X89791905Y-99264819D01*
X89791905Y-99264819D02*
X90030000Y-99264819D01*
X90030000Y-99264819D02*
X90172857Y-99312438D01*
X90172857Y-99312438D02*
X90268095Y-99407676D01*
X90268095Y-99407676D02*
X90315714Y-99502914D01*
X90315714Y-99502914D02*
X90363333Y-99693390D01*
X90363333Y-99693390D02*
X90363333Y-99836247D01*
X90363333Y-99836247D02*
X90315714Y-100026723D01*
X90315714Y-100026723D02*
X90268095Y-100121961D01*
X90268095Y-100121961D02*
X90172857Y-100217200D01*
X90172857Y-100217200D02*
X90030000Y-100264819D01*
X90030000Y-100264819D02*
X89791905Y-100264819D01*
X91315714Y-100264819D02*
X90744286Y-100264819D01*
X91030000Y-100264819D02*
X91030000Y-99264819D01*
X91030000Y-99264819D02*
X90934762Y-99407676D01*
X90934762Y-99407676D02*
X90839524Y-99502914D01*
X90839524Y-99502914D02*
X90744286Y-99550533D01*
X90084819Y-112351904D02*
X89084819Y-112351904D01*
X90084819Y-111780476D02*
X89513390Y-112209047D01*
X89084819Y-111780476D02*
X89656247Y-112351904D01*
X162908095Y-98916819D02*
X163479523Y-98916819D01*
X163193809Y-99916819D02*
X163193809Y-98916819D01*
X163812857Y-99916819D02*
X163812857Y-98916819D01*
X163812857Y-98916819D02*
X164193809Y-98916819D01*
X164193809Y-98916819D02*
X164289047Y-98964438D01*
X164289047Y-98964438D02*
X164336666Y-99012057D01*
X164336666Y-99012057D02*
X164384285Y-99107295D01*
X164384285Y-99107295D02*
X164384285Y-99250152D01*
X164384285Y-99250152D02*
X164336666Y-99345390D01*
X164336666Y-99345390D02*
X164289047Y-99393009D01*
X164289047Y-99393009D02*
X164193809Y-99440628D01*
X164193809Y-99440628D02*
X163812857Y-99440628D01*
X165241428Y-99250152D02*
X165241428Y-99916819D01*
X165003333Y-98869200D02*
X164765238Y-99583485D01*
X164765238Y-99583485D02*
X165384285Y-99583485D01*
X161027142Y-85164819D02*
X160693809Y-84688628D01*
X160455714Y-85164819D02*
X160455714Y-84164819D01*
X160455714Y-84164819D02*
X160836666Y-84164819D01*
X160836666Y-84164819D02*
X160931904Y-84212438D01*
X160931904Y-84212438D02*
X160979523Y-84260057D01*
X160979523Y-84260057D02*
X161027142Y-84355295D01*
X161027142Y-84355295D02*
X161027142Y-84498152D01*
X161027142Y-84498152D02*
X160979523Y-84593390D01*
X160979523Y-84593390D02*
X160931904Y-84641009D01*
X160931904Y-84641009D02*
X160836666Y-84688628D01*
X160836666Y-84688628D02*
X160455714Y-84688628D01*
X161408095Y-84260057D02*
X161455714Y-84212438D01*
X161455714Y-84212438D02*
X161550952Y-84164819D01*
X161550952Y-84164819D02*
X161789047Y-84164819D01*
X161789047Y-84164819D02*
X161884285Y-84212438D01*
X161884285Y-84212438D02*
X161931904Y-84260057D01*
X161931904Y-84260057D02*
X161979523Y-84355295D01*
X161979523Y-84355295D02*
X161979523Y-84450533D01*
X161979523Y-84450533D02*
X161931904Y-84593390D01*
X161931904Y-84593390D02*
X161360476Y-85164819D01*
X161360476Y-85164819D02*
X161979523Y-85164819D01*
X162931904Y-85164819D02*
X162360476Y-85164819D01*
X162646190Y-85164819D02*
X162646190Y-84164819D01*
X162646190Y-84164819D02*
X162550952Y-84307676D01*
X162550952Y-84307676D02*
X162455714Y-84402914D01*
X162455714Y-84402914D02*
X162360476Y-84450533D01*
X161003333Y-101964819D02*
X160670000Y-101488628D01*
X160431905Y-101964819D02*
X160431905Y-100964819D01*
X160431905Y-100964819D02*
X160812857Y-100964819D01*
X160812857Y-100964819D02*
X160908095Y-101012438D01*
X160908095Y-101012438D02*
X160955714Y-101060057D01*
X160955714Y-101060057D02*
X161003333Y-101155295D01*
X161003333Y-101155295D02*
X161003333Y-101298152D01*
X161003333Y-101298152D02*
X160955714Y-101393390D01*
X160955714Y-101393390D02*
X160908095Y-101441009D01*
X160908095Y-101441009D02*
X160812857Y-101488628D01*
X160812857Y-101488628D02*
X160431905Y-101488628D01*
X161908095Y-100964819D02*
X161431905Y-100964819D01*
X161431905Y-100964819D02*
X161384286Y-101441009D01*
X161384286Y-101441009D02*
X161431905Y-101393390D01*
X161431905Y-101393390D02*
X161527143Y-101345771D01*
X161527143Y-101345771D02*
X161765238Y-101345771D01*
X161765238Y-101345771D02*
X161860476Y-101393390D01*
X161860476Y-101393390D02*
X161908095Y-101441009D01*
X161908095Y-101441009D02*
X161955714Y-101536247D01*
X161955714Y-101536247D02*
X161955714Y-101774342D01*
X161955714Y-101774342D02*
X161908095Y-101869580D01*
X161908095Y-101869580D02*
X161860476Y-101917200D01*
X161860476Y-101917200D02*
X161765238Y-101964819D01*
X161765238Y-101964819D02*
X161527143Y-101964819D01*
X161527143Y-101964819D02*
X161431905Y-101917200D01*
X161431905Y-101917200D02*
X161384286Y-101869580D01*
X74396666Y-100664819D02*
X74396666Y-101379104D01*
X74396666Y-101379104D02*
X74349047Y-101521961D01*
X74349047Y-101521961D02*
X74253809Y-101617200D01*
X74253809Y-101617200D02*
X74110952Y-101664819D01*
X74110952Y-101664819D02*
X74015714Y-101664819D01*
X74825238Y-100760057D02*
X74872857Y-100712438D01*
X74872857Y-100712438D02*
X74968095Y-100664819D01*
X74968095Y-100664819D02*
X75206190Y-100664819D01*
X75206190Y-100664819D02*
X75301428Y-100712438D01*
X75301428Y-100712438D02*
X75349047Y-100760057D01*
X75349047Y-100760057D02*
X75396666Y-100855295D01*
X75396666Y-100855295D02*
X75396666Y-100950533D01*
X75396666Y-100950533D02*
X75349047Y-101093390D01*
X75349047Y-101093390D02*
X74777619Y-101664819D01*
X74777619Y-101664819D02*
X75396666Y-101664819D01*
X107187142Y-124844819D02*
X106853809Y-124368628D01*
X106615714Y-124844819D02*
X106615714Y-123844819D01*
X106615714Y-123844819D02*
X106996666Y-123844819D01*
X106996666Y-123844819D02*
X107091904Y-123892438D01*
X107091904Y-123892438D02*
X107139523Y-123940057D01*
X107139523Y-123940057D02*
X107187142Y-124035295D01*
X107187142Y-124035295D02*
X107187142Y-124178152D01*
X107187142Y-124178152D02*
X107139523Y-124273390D01*
X107139523Y-124273390D02*
X107091904Y-124321009D01*
X107091904Y-124321009D02*
X106996666Y-124368628D01*
X106996666Y-124368628D02*
X106615714Y-124368628D01*
X107520476Y-123844819D02*
X108139523Y-123844819D01*
X108139523Y-123844819D02*
X107806190Y-124225771D01*
X107806190Y-124225771D02*
X107949047Y-124225771D01*
X107949047Y-124225771D02*
X108044285Y-124273390D01*
X108044285Y-124273390D02*
X108091904Y-124321009D01*
X108091904Y-124321009D02*
X108139523Y-124416247D01*
X108139523Y-124416247D02*
X108139523Y-124654342D01*
X108139523Y-124654342D02*
X108091904Y-124749580D01*
X108091904Y-124749580D02*
X108044285Y-124797200D01*
X108044285Y-124797200D02*
X107949047Y-124844819D01*
X107949047Y-124844819D02*
X107663333Y-124844819D01*
X107663333Y-124844819D02*
X107568095Y-124797200D01*
X107568095Y-124797200D02*
X107520476Y-124749580D01*
X109044285Y-123844819D02*
X108568095Y-123844819D01*
X108568095Y-123844819D02*
X108520476Y-124321009D01*
X108520476Y-124321009D02*
X108568095Y-124273390D01*
X108568095Y-124273390D02*
X108663333Y-124225771D01*
X108663333Y-124225771D02*
X108901428Y-124225771D01*
X108901428Y-124225771D02*
X108996666Y-124273390D01*
X108996666Y-124273390D02*
X109044285Y-124321009D01*
X109044285Y-124321009D02*
X109091904Y-124416247D01*
X109091904Y-124416247D02*
X109091904Y-124654342D01*
X109091904Y-124654342D02*
X109044285Y-124749580D01*
X109044285Y-124749580D02*
X108996666Y-124797200D01*
X108996666Y-124797200D02*
X108901428Y-124844819D01*
X108901428Y-124844819D02*
X108663333Y-124844819D01*
X108663333Y-124844819D02*
X108568095Y-124797200D01*
X108568095Y-124797200D02*
X108520476Y-124749580D01*
X178187142Y-130264819D02*
X177853809Y-129788628D01*
X177615714Y-130264819D02*
X177615714Y-129264819D01*
X177615714Y-129264819D02*
X177996666Y-129264819D01*
X177996666Y-129264819D02*
X178091904Y-129312438D01*
X178091904Y-129312438D02*
X178139523Y-129360057D01*
X178139523Y-129360057D02*
X178187142Y-129455295D01*
X178187142Y-129455295D02*
X178187142Y-129598152D01*
X178187142Y-129598152D02*
X178139523Y-129693390D01*
X178139523Y-129693390D02*
X178091904Y-129741009D01*
X178091904Y-129741009D02*
X177996666Y-129788628D01*
X177996666Y-129788628D02*
X177615714Y-129788628D01*
X179139523Y-130264819D02*
X178568095Y-130264819D01*
X178853809Y-130264819D02*
X178853809Y-129264819D01*
X178853809Y-129264819D02*
X178758571Y-129407676D01*
X178758571Y-129407676D02*
X178663333Y-129502914D01*
X178663333Y-129502914D02*
X178568095Y-129550533D01*
X180091904Y-130264819D02*
X179520476Y-130264819D01*
X179806190Y-130264819D02*
X179806190Y-129264819D01*
X179806190Y-129264819D02*
X179710952Y-129407676D01*
X179710952Y-129407676D02*
X179615714Y-129502914D01*
X179615714Y-129502914D02*
X179520476Y-129550533D01*
X171183333Y-72754580D02*
X171135714Y-72802200D01*
X171135714Y-72802200D02*
X170992857Y-72849819D01*
X170992857Y-72849819D02*
X170897619Y-72849819D01*
X170897619Y-72849819D02*
X170754762Y-72802200D01*
X170754762Y-72802200D02*
X170659524Y-72706961D01*
X170659524Y-72706961D02*
X170611905Y-72611723D01*
X170611905Y-72611723D02*
X170564286Y-72421247D01*
X170564286Y-72421247D02*
X170564286Y-72278390D01*
X170564286Y-72278390D02*
X170611905Y-72087914D01*
X170611905Y-72087914D02*
X170659524Y-71992676D01*
X170659524Y-71992676D02*
X170754762Y-71897438D01*
X170754762Y-71897438D02*
X170897619Y-71849819D01*
X170897619Y-71849819D02*
X170992857Y-71849819D01*
X170992857Y-71849819D02*
X171135714Y-71897438D01*
X171135714Y-71897438D02*
X171183333Y-71945057D01*
X172088095Y-71849819D02*
X171611905Y-71849819D01*
X171611905Y-71849819D02*
X171564286Y-72326009D01*
X171564286Y-72326009D02*
X171611905Y-72278390D01*
X171611905Y-72278390D02*
X171707143Y-72230771D01*
X171707143Y-72230771D02*
X171945238Y-72230771D01*
X171945238Y-72230771D02*
X172040476Y-72278390D01*
X172040476Y-72278390D02*
X172088095Y-72326009D01*
X172088095Y-72326009D02*
X172135714Y-72421247D01*
X172135714Y-72421247D02*
X172135714Y-72659342D01*
X172135714Y-72659342D02*
X172088095Y-72754580D01*
X172088095Y-72754580D02*
X172040476Y-72802200D01*
X172040476Y-72802200D02*
X171945238Y-72849819D01*
X171945238Y-72849819D02*
X171707143Y-72849819D01*
X171707143Y-72849819D02*
X171611905Y-72802200D01*
X171611905Y-72802200D02*
X171564286Y-72754580D01*
X161027142Y-88164819D02*
X160693809Y-87688628D01*
X160455714Y-88164819D02*
X160455714Y-87164819D01*
X160455714Y-87164819D02*
X160836666Y-87164819D01*
X160836666Y-87164819D02*
X160931904Y-87212438D01*
X160931904Y-87212438D02*
X160979523Y-87260057D01*
X160979523Y-87260057D02*
X161027142Y-87355295D01*
X161027142Y-87355295D02*
X161027142Y-87498152D01*
X161027142Y-87498152D02*
X160979523Y-87593390D01*
X160979523Y-87593390D02*
X160931904Y-87641009D01*
X160931904Y-87641009D02*
X160836666Y-87688628D01*
X160836666Y-87688628D02*
X160455714Y-87688628D01*
X161408095Y-87260057D02*
X161455714Y-87212438D01*
X161455714Y-87212438D02*
X161550952Y-87164819D01*
X161550952Y-87164819D02*
X161789047Y-87164819D01*
X161789047Y-87164819D02*
X161884285Y-87212438D01*
X161884285Y-87212438D02*
X161931904Y-87260057D01*
X161931904Y-87260057D02*
X161979523Y-87355295D01*
X161979523Y-87355295D02*
X161979523Y-87450533D01*
X161979523Y-87450533D02*
X161931904Y-87593390D01*
X161931904Y-87593390D02*
X161360476Y-88164819D01*
X161360476Y-88164819D02*
X161979523Y-88164819D01*
X162360476Y-87260057D02*
X162408095Y-87212438D01*
X162408095Y-87212438D02*
X162503333Y-87164819D01*
X162503333Y-87164819D02*
X162741428Y-87164819D01*
X162741428Y-87164819D02*
X162836666Y-87212438D01*
X162836666Y-87212438D02*
X162884285Y-87260057D01*
X162884285Y-87260057D02*
X162931904Y-87355295D01*
X162931904Y-87355295D02*
X162931904Y-87450533D01*
X162931904Y-87450533D02*
X162884285Y-87593390D01*
X162884285Y-87593390D02*
X162312857Y-88164819D01*
X162312857Y-88164819D02*
X162931904Y-88164819D01*
X107834761Y-127240057D02*
X107739523Y-127192438D01*
X107739523Y-127192438D02*
X107644285Y-127097200D01*
X107644285Y-127097200D02*
X107501428Y-126954342D01*
X107501428Y-126954342D02*
X107406190Y-126906723D01*
X107406190Y-126906723D02*
X107310952Y-126906723D01*
X107358571Y-127144819D02*
X107263333Y-127097200D01*
X107263333Y-127097200D02*
X107168095Y-127001961D01*
X107168095Y-127001961D02*
X107120476Y-126811485D01*
X107120476Y-126811485D02*
X107120476Y-126478152D01*
X107120476Y-126478152D02*
X107168095Y-126287676D01*
X107168095Y-126287676D02*
X107263333Y-126192438D01*
X107263333Y-126192438D02*
X107358571Y-126144819D01*
X107358571Y-126144819D02*
X107549047Y-126144819D01*
X107549047Y-126144819D02*
X107644285Y-126192438D01*
X107644285Y-126192438D02*
X107739523Y-126287676D01*
X107739523Y-126287676D02*
X107787142Y-126478152D01*
X107787142Y-126478152D02*
X107787142Y-126811485D01*
X107787142Y-126811485D02*
X107739523Y-127001961D01*
X107739523Y-127001961D02*
X107644285Y-127097200D01*
X107644285Y-127097200D02*
X107549047Y-127144819D01*
X107549047Y-127144819D02*
X107358571Y-127144819D01*
X108644285Y-126478152D02*
X108644285Y-127144819D01*
X108406190Y-126097200D02*
X108168095Y-126811485D01*
X108168095Y-126811485D02*
X108787142Y-126811485D01*
D11*
%TO.C,D13*%
X104000000Y-82190000D02*
X103350000Y-82190000D01*
X103350000Y-83310000D02*
X103350000Y-81070000D01*
X103350000Y-81070000D02*
X99110000Y-81070000D01*
X102750000Y-83310000D02*
X102750000Y-81070000D01*
X102630000Y-83310000D02*
X102630000Y-81070000D01*
X102510000Y-83310000D02*
X102510000Y-81070000D01*
X99110000Y-83310000D02*
X103350000Y-83310000D01*
X99110000Y-81070000D02*
X99110000Y-83310000D01*
X98460000Y-82190000D02*
X99110000Y-82190000D01*
%TO.C,C2*%
X158650000Y-76740000D02*
X158650000Y-77185000D01*
X158650000Y-76740000D02*
X164890000Y-76740000D01*
X158650000Y-79035000D02*
X158650000Y-79480000D01*
X158650000Y-79480000D02*
X164890000Y-79480000D01*
X164890000Y-76740000D02*
X164890000Y-77185000D01*
X164890000Y-79035000D02*
X164890000Y-79480000D01*
%TO.C,D6*%
X179725000Y-139100000D02*
X182815000Y-139100000D01*
X181270462Y-133550001D02*
G75*
G03*
X179725170Y-139099999I-462J-2989999D01*
G01*
X182814830Y-139100000D02*
G75*
G03*
X181269538Y-133550000I-1544830J2560000D01*
G01*
X183770000Y-136540000D02*
G75*
G03*
X183770000Y-136540000I-2500000J0D01*
G01*
%TO.C,U4*%
X162620000Y-125410000D02*
X162620000Y-129010000D01*
X167070000Y-127210000D02*
G75*
G03*
X162631522Y-125371522I-2600000J0D01*
G01*
X162631522Y-129048478D02*
G75*
G03*
X167070000Y-127210000I1838478J1838478D01*
G01*
%TO.C,U3*%
X170010000Y-93260000D02*
X170010000Y-111160000D01*
X170010000Y-111160000D02*
X175310000Y-111160000D01*
X171660000Y-93260000D02*
X170010000Y-93260000D01*
X175310000Y-93260000D02*
X173660000Y-93260000D01*
X175310000Y-111160000D02*
X175310000Y-93260000D01*
X171660000Y-93260000D02*
G75*
G03*
X173660000Y-93260000I1000000J0D01*
G01*
%TO.C,R17*%
X128910000Y-102440000D02*
X135450000Y-102440000D01*
X128910000Y-102770000D02*
X128910000Y-102440000D01*
X128910000Y-104850000D02*
X128910000Y-105180000D01*
X128910000Y-105180000D02*
X135450000Y-105180000D01*
X135450000Y-102440000D02*
X135450000Y-102770000D01*
X135450000Y-105180000D02*
X135450000Y-104850000D01*
%TO.C,R7*%
X115200000Y-96080000D02*
X108660000Y-96080000D01*
X115200000Y-95750000D02*
X115200000Y-96080000D01*
X115200000Y-93670000D02*
X115200000Y-93340000D01*
X115200000Y-93340000D02*
X108660000Y-93340000D01*
X108660000Y-96080000D02*
X108660000Y-95750000D01*
X108660000Y-93340000D02*
X108660000Y-93670000D01*
%TO.C,R29*%
X151990000Y-110840000D02*
X158530000Y-110840000D01*
X151990000Y-111170000D02*
X151990000Y-110840000D01*
X151990000Y-113250000D02*
X151990000Y-113580000D01*
X151990000Y-113580000D02*
X158530000Y-113580000D01*
X158530000Y-110840000D02*
X158530000Y-111170000D01*
X158530000Y-113580000D02*
X158530000Y-113250000D01*
%TO.C,TP5*%
X79380000Y-76910000D02*
G75*
G03*
X79380000Y-76910000I-1450000J0D01*
G01*
%TO.C,C6*%
X116290000Y-102780000D02*
X116290000Y-102335000D01*
X116290000Y-102780000D02*
X110050000Y-102780000D01*
X116290000Y-100485000D02*
X116290000Y-100040000D01*
X116290000Y-100040000D02*
X110050000Y-100040000D01*
X110050000Y-102780000D02*
X110050000Y-102335000D01*
X110050000Y-100485000D02*
X110050000Y-100040000D01*
%TO.C,R27*%
X175840000Y-115080000D02*
X169300000Y-115080000D01*
X175840000Y-114750000D02*
X175840000Y-115080000D01*
X175840000Y-112670000D02*
X175840000Y-112340000D01*
X175840000Y-112340000D02*
X169300000Y-112340000D01*
X169300000Y-115080000D02*
X169300000Y-114750000D01*
X169300000Y-112340000D02*
X169300000Y-112670000D01*
%TO.C,J1*%
X74807056Y-81587056D02*
X74067056Y-81587056D01*
X74067056Y-81587056D02*
X74067056Y-82087056D01*
X84228056Y-81827056D02*
X74307056Y-81827056D01*
X84228056Y-81827056D02*
X84228056Y-92107056D01*
X81268056Y-81827056D02*
X81268056Y-92107056D01*
X76367056Y-81827056D02*
X76367056Y-92107056D01*
X74867056Y-81827056D02*
X74867056Y-92107056D01*
X74307056Y-81827056D02*
X74307056Y-92107056D01*
X77944056Y-88280056D02*
X77898056Y-88233056D01*
X77728056Y-88473056D02*
X77693056Y-88438056D01*
X80242056Y-90577056D02*
X80206056Y-90542056D01*
X80036056Y-90782056D02*
X79990056Y-90735056D01*
X84228056Y-92107056D02*
X74307056Y-92107056D01*
X79651055Y-82892057D02*
G75*
G03*
X78284014Y-82891630I-684000J-1534992D01*
G01*
X80502055Y-85111055D02*
G75*
G03*
X80502482Y-83744014I-1534992J684000D01*
G01*
X77432057Y-83743056D02*
G75*
G03*
X77286804Y-84455861I1535000J-683999D01*
G01*
X77287057Y-84427056D02*
G75*
G03*
X77432301Y-85110374I1679999J0D01*
G01*
X78283056Y-85962056D02*
G75*
G03*
X79650098Y-85962482I684000J1535000D01*
G01*
X80647056Y-89507056D02*
G75*
G03*
X80647056Y-89507056I-1680000J0D01*
G01*
%TO.C,F2*%
X110567936Y-87400000D02*
X111772064Y-87400000D01*
X110567936Y-89220000D02*
X111772064Y-89220000D01*
%TO.C,R3*%
X115210000Y-115760000D02*
X108670000Y-115760000D01*
X115210000Y-115430000D02*
X115210000Y-115760000D01*
X115210000Y-113350000D02*
X115210000Y-113020000D01*
X115210000Y-113020000D02*
X108670000Y-113020000D01*
X108670000Y-115760000D02*
X108670000Y-115430000D01*
X108670000Y-113020000D02*
X108670000Y-113350000D01*
%TO.C,R8*%
X135450000Y-101980000D02*
X128910000Y-101980000D01*
X135450000Y-101650000D02*
X135450000Y-101980000D01*
X135450000Y-99570000D02*
X135450000Y-99240000D01*
X135450000Y-99240000D02*
X128910000Y-99240000D01*
X128910000Y-101980000D02*
X128910000Y-101650000D01*
X128910000Y-99240000D02*
X128910000Y-99570000D01*
%TO.C,Q3*%
X96370000Y-71820000D02*
X96370000Y-76461000D01*
X96370000Y-71820000D02*
X106610000Y-71820000D01*
X96370000Y-73330000D02*
X106610000Y-73330000D01*
X96370000Y-76461000D02*
X106610000Y-76461000D01*
X99640000Y-71820000D02*
X99640000Y-73330000D01*
X103341000Y-71820000D02*
X103341000Y-73330000D01*
X106610000Y-71820000D02*
X106610000Y-76461000D01*
%TO.C,R19*%
X135530000Y-92380000D02*
X128990000Y-92380000D01*
X135530000Y-92050000D02*
X135530000Y-92380000D01*
X135530000Y-89970000D02*
X135530000Y-89640000D01*
X135530000Y-89640000D02*
X128990000Y-89640000D01*
X128990000Y-92380000D02*
X128990000Y-92050000D01*
X128990000Y-89640000D02*
X128990000Y-89970000D01*
%TO.C,R34*%
X104490000Y-80560000D02*
X97950000Y-80560000D01*
X104490000Y-80230000D02*
X104490000Y-80560000D01*
X104490000Y-78150000D02*
X104490000Y-77820000D01*
X104490000Y-77820000D02*
X97950000Y-77820000D01*
X97950000Y-80560000D02*
X97950000Y-80230000D01*
X97950000Y-77820000D02*
X97950000Y-78150000D01*
%TO.C,R14*%
X135450000Y-114780000D02*
X128910000Y-114780000D01*
X135450000Y-114450000D02*
X135450000Y-114780000D01*
X135450000Y-112370000D02*
X135450000Y-112040000D01*
X135450000Y-112040000D02*
X128910000Y-112040000D01*
X128910000Y-114780000D02*
X128910000Y-114450000D01*
X128910000Y-112040000D02*
X128910000Y-112370000D01*
%TO.C,C11*%
X97310000Y-96840000D02*
X97310000Y-97285000D01*
X97310000Y-96840000D02*
X103550000Y-96840000D01*
X97310000Y-99135000D02*
X97310000Y-99580000D01*
X97310000Y-99580000D02*
X103550000Y-99580000D01*
X103550000Y-96840000D02*
X103550000Y-97285000D01*
X103550000Y-99135000D02*
X103550000Y-99580000D01*
D12*
%TO.C,HS4*%
X121270000Y-126220000D02*
X121270000Y-138920000D01*
X121270000Y-126220000D02*
X130790000Y-126220000D01*
X121270000Y-138920000D02*
X130790000Y-138920000D01*
X130790000Y-126220000D02*
X130790000Y-131785000D01*
X130790000Y-131785000D02*
X146670000Y-131785000D01*
X130790000Y-133355000D02*
X146670000Y-133355000D01*
X130790000Y-138920000D02*
X130790000Y-133355000D01*
X146670000Y-126220000D02*
X146670000Y-131785000D01*
X146670000Y-138920000D02*
X146670000Y-133355000D01*
X156190000Y-126220000D02*
X146670000Y-126220000D01*
X156190000Y-126220000D02*
X156190000Y-138920000D01*
X156190000Y-138920000D02*
X146670000Y-138920000D01*
D11*
%TO.C,D7*%
X187725000Y-139075000D02*
X190815000Y-139075000D01*
X189270462Y-133525001D02*
G75*
G03*
X187725170Y-139074999I-462J-2989999D01*
G01*
X190814830Y-139075000D02*
G75*
G03*
X189269538Y-133525000I-1544830J2560000D01*
G01*
X191770000Y-136515000D02*
G75*
G03*
X191770000Y-136515000I-2500000J0D01*
G01*
%TO.C,C3*%
X90800000Y-120930000D02*
X91245000Y-120930000D01*
X90800000Y-120930000D02*
X90800000Y-114690000D01*
X93095000Y-120930000D02*
X93540000Y-120930000D01*
X93540000Y-120930000D02*
X93540000Y-114690000D01*
X90800000Y-114690000D02*
X91245000Y-114690000D01*
X93095000Y-114690000D02*
X93540000Y-114690000D01*
%TO.C,D3*%
X158040000Y-107910000D02*
X157390000Y-107910000D01*
X157390000Y-109030000D02*
X157390000Y-106790000D01*
X157390000Y-106790000D02*
X153150000Y-106790000D01*
X156790000Y-109030000D02*
X156790000Y-106790000D01*
X156670000Y-109030000D02*
X156670000Y-106790000D01*
X156550000Y-109030000D02*
X156550000Y-106790000D01*
X153150000Y-109030000D02*
X157390000Y-109030000D01*
X153150000Y-106790000D02*
X153150000Y-109030000D01*
X152500000Y-107910000D02*
X153150000Y-107910000D01*
%TO.C,C9*%
X103550000Y-106080000D02*
X103550000Y-105635000D01*
X103550000Y-106080000D02*
X97310000Y-106080000D01*
X103550000Y-103785000D02*
X103550000Y-103340000D01*
X103550000Y-103340000D02*
X97310000Y-103340000D01*
X97310000Y-106080000D02*
X97310000Y-105635000D01*
X97310000Y-103785000D02*
X97310000Y-103340000D01*
%TO.C,TP6*%
X120420000Y-89810000D02*
G75*
G03*
X120420000Y-89810000I-1450000J0D01*
G01*
%TO.C,D12*%
X98450000Y-85990000D02*
X99100000Y-85990000D01*
X99100000Y-84870000D02*
X99100000Y-87110000D01*
X99100000Y-87110000D02*
X103340000Y-87110000D01*
X99700000Y-84870000D02*
X99700000Y-87110000D01*
X99820000Y-84870000D02*
X99820000Y-87110000D01*
X99940000Y-84870000D02*
X99940000Y-87110000D01*
X103340000Y-84870000D02*
X99100000Y-84870000D01*
X103340000Y-87110000D02*
X103340000Y-84870000D01*
X103990000Y-85990000D02*
X103340000Y-85990000D01*
%TO.C,R30*%
X158550000Y-116880000D02*
X152010000Y-116880000D01*
X158550000Y-116550000D02*
X158550000Y-116880000D01*
X158550000Y-114470000D02*
X158550000Y-114140000D01*
X158550000Y-114140000D02*
X152010000Y-114140000D01*
X152010000Y-116880000D02*
X152010000Y-116550000D01*
X152010000Y-114140000D02*
X152010000Y-114470000D01*
%TO.C,R23*%
X152000000Y-89640000D02*
X158540000Y-89640000D01*
X152000000Y-89970000D02*
X152000000Y-89640000D01*
X152000000Y-92050000D02*
X152000000Y-92380000D01*
X152000000Y-92380000D02*
X158540000Y-92380000D01*
X158540000Y-89640000D02*
X158540000Y-89970000D01*
X158540000Y-92380000D02*
X158540000Y-92050000D01*
%TO.C,R36*%
X99847064Y-93420000D02*
X95492936Y-93420000D01*
X99847064Y-90000000D02*
X95492936Y-90000000D01*
%TO.C,D10*%
X136400000Y-84910000D02*
X137050000Y-84910000D01*
X137050000Y-83790000D02*
X137050000Y-86030000D01*
X137050000Y-86030000D02*
X141290000Y-86030000D01*
X137650000Y-83790000D02*
X137650000Y-86030000D01*
X137770000Y-83790000D02*
X137770000Y-86030000D01*
X137890000Y-83790000D02*
X137890000Y-86030000D01*
X141290000Y-83790000D02*
X137050000Y-83790000D01*
X141290000Y-86030000D02*
X141290000Y-83790000D01*
X141940000Y-84910000D02*
X141290000Y-84910000D01*
%TO.C,D4*%
X158040000Y-97210000D02*
X157390000Y-97210000D01*
X157390000Y-98330000D02*
X157390000Y-96090000D01*
X157390000Y-96090000D02*
X153150000Y-96090000D01*
X156790000Y-98330000D02*
X156790000Y-96090000D01*
X156670000Y-98330000D02*
X156670000Y-96090000D01*
X156550000Y-98330000D02*
X156550000Y-96090000D01*
X153150000Y-98330000D02*
X157390000Y-98330000D01*
X153150000Y-96090000D02*
X153150000Y-98330000D01*
X152500000Y-97210000D02*
X153150000Y-97210000D01*
D12*
%TO.C,HS1*%
X83870000Y-63740000D02*
X83870000Y-76440000D01*
X83870000Y-63740000D02*
X93390000Y-63740000D01*
X83870000Y-76440000D02*
X93390000Y-76440000D01*
X93390000Y-63740000D02*
X93390000Y-69305000D01*
X93390000Y-69305000D02*
X109270000Y-69305000D01*
X93390000Y-70875000D02*
X109270000Y-70875000D01*
X93390000Y-76440000D02*
X93390000Y-70875000D01*
X109270000Y-63740000D02*
X109270000Y-69305000D01*
X109270000Y-76440000D02*
X109270000Y-70875000D01*
X118790000Y-63740000D02*
X109270000Y-63740000D01*
X118790000Y-63740000D02*
X118790000Y-76440000D01*
X118790000Y-76440000D02*
X109270000Y-76440000D01*
D11*
%TO.C,R25*%
X175840000Y-121480000D02*
X169300000Y-121480000D01*
X175840000Y-121150000D02*
X175840000Y-121480000D01*
X175840000Y-119070000D02*
X175840000Y-118740000D01*
X175840000Y-118740000D02*
X169300000Y-118740000D01*
X169300000Y-121480000D02*
X169300000Y-121150000D01*
X169300000Y-118740000D02*
X169300000Y-119070000D01*
%TO.C,TP2*%
X147380000Y-112310000D02*
G75*
G03*
X147380000Y-112310000I-1450000J0D01*
G01*
D12*
%TO.C,HS2*%
X83870000Y-126220000D02*
X83870000Y-138920000D01*
X83870000Y-126220000D02*
X93390000Y-126220000D01*
X83870000Y-138920000D02*
X93390000Y-138920000D01*
X93390000Y-126220000D02*
X93390000Y-131785000D01*
X93390000Y-131785000D02*
X109270000Y-131785000D01*
X93390000Y-133355000D02*
X109270000Y-133355000D01*
X93390000Y-138920000D02*
X93390000Y-133355000D01*
X109270000Y-126220000D02*
X109270000Y-131785000D01*
X109270000Y-138920000D02*
X109270000Y-133355000D01*
X118790000Y-126220000D02*
X109270000Y-126220000D01*
X118790000Y-126220000D02*
X118790000Y-138920000D01*
X118790000Y-138920000D02*
X109270000Y-138920000D01*
D11*
%TO.C,R1*%
X152000000Y-80040000D02*
X158540000Y-80040000D01*
X152000000Y-80370000D02*
X152000000Y-80040000D01*
X152000000Y-82450000D02*
X152000000Y-82780000D01*
X152000000Y-82780000D02*
X158540000Y-82780000D01*
X158540000Y-80040000D02*
X158540000Y-80370000D01*
X158540000Y-82780000D02*
X158540000Y-82450000D01*
%TO.C,R13*%
X147980000Y-97632936D02*
X147980000Y-101987064D01*
X144560000Y-97632936D02*
X144560000Y-101987064D01*
%TO.C,D5*%
X158040000Y-118510000D02*
X157390000Y-118510000D01*
X157390000Y-119630000D02*
X157390000Y-117390000D01*
X157390000Y-117390000D02*
X153150000Y-117390000D01*
X156790000Y-119630000D02*
X156790000Y-117390000D01*
X156670000Y-119630000D02*
X156670000Y-117390000D01*
X156550000Y-119630000D02*
X156550000Y-117390000D01*
X153150000Y-119630000D02*
X157390000Y-119630000D01*
X153150000Y-117390000D02*
X153150000Y-119630000D01*
X152500000Y-118510000D02*
X153150000Y-118510000D01*
%TO.C,R32*%
X108660000Y-106640000D02*
X115200000Y-106640000D01*
X108660000Y-106970000D02*
X108660000Y-106640000D01*
X108660000Y-109050000D02*
X108660000Y-109380000D01*
X108660000Y-109380000D02*
X115200000Y-109380000D01*
X115200000Y-106640000D02*
X115200000Y-106970000D01*
X115200000Y-109380000D02*
X115200000Y-109050000D01*
%TO.C,C1*%
X177090000Y-92640000D02*
X177090000Y-92195000D01*
X177090000Y-92640000D02*
X170850000Y-92640000D01*
X177090000Y-90345000D02*
X177090000Y-89900000D01*
X177090000Y-89900000D02*
X170850000Y-89900000D01*
X170850000Y-92640000D02*
X170850000Y-92195000D01*
X170850000Y-90345000D02*
X170850000Y-89900000D01*
%TO.C,R28*%
X158540000Y-95580000D02*
X152000000Y-95580000D01*
X158540000Y-95250000D02*
X158540000Y-95580000D01*
X158540000Y-93170000D02*
X158540000Y-92840000D01*
X158540000Y-92840000D02*
X152000000Y-92840000D01*
X152000000Y-95580000D02*
X152000000Y-95250000D01*
X152000000Y-92840000D02*
X152000000Y-93170000D01*
%TO.C,U2*%
X119490000Y-93700000D02*
X119490000Y-111600000D01*
X119490000Y-111600000D02*
X124790000Y-111600000D01*
X121140000Y-93700000D02*
X119490000Y-93700000D01*
X124790000Y-93700000D02*
X123140000Y-93700000D01*
X124790000Y-111600000D02*
X124790000Y-93700000D01*
X121140000Y-93700000D02*
G75*
G03*
X123140000Y-93700000I1000000J0D01*
G01*
%TO.C,C10*%
X159690000Y-124080000D02*
X159690000Y-123635000D01*
X159690000Y-124080000D02*
X153450000Y-124080000D01*
X159690000Y-121785000D02*
X159690000Y-121340000D01*
X159690000Y-121340000D02*
X153450000Y-121340000D01*
X153450000Y-124080000D02*
X153450000Y-123635000D01*
X153450000Y-121785000D02*
X153450000Y-121340000D01*
%TO.C,C4*%
X116390000Y-118980000D02*
X116390000Y-118535000D01*
X116390000Y-118980000D02*
X110150000Y-118980000D01*
X116390000Y-116685000D02*
X116390000Y-116240000D01*
X116390000Y-116240000D02*
X110150000Y-116240000D01*
X110150000Y-118980000D02*
X110150000Y-118535000D01*
X110150000Y-116685000D02*
X110150000Y-116240000D01*
%TO.C,Q2*%
X143690000Y-130895000D02*
X143690000Y-126254000D01*
X143690000Y-130895000D02*
X133450000Y-130895000D01*
X143690000Y-129385000D02*
X133450000Y-129385000D01*
X143690000Y-126254000D02*
X133450000Y-126254000D01*
X140420000Y-130895000D02*
X140420000Y-129385000D01*
X136719000Y-130895000D02*
X136719000Y-129385000D01*
X133450000Y-130895000D02*
X133450000Y-126254000D01*
%TO.C,R10*%
X128910000Y-96040000D02*
X135450000Y-96040000D01*
X128910000Y-96370000D02*
X128910000Y-96040000D01*
X128910000Y-98450000D02*
X128910000Y-98780000D01*
X128910000Y-98780000D02*
X135450000Y-98780000D01*
X135450000Y-96040000D02*
X135450000Y-96370000D01*
X135450000Y-98780000D02*
X135450000Y-98450000D01*
%TO.C,R9*%
X115210000Y-92780000D02*
X108670000Y-92780000D01*
X115210000Y-92450000D02*
X115210000Y-92780000D01*
X115210000Y-90370000D02*
X115210000Y-90040000D01*
X115210000Y-90040000D02*
X108670000Y-90040000D01*
X108670000Y-92780000D02*
X108670000Y-92450000D01*
X108670000Y-90040000D02*
X108670000Y-90370000D01*
%TO.C,R20*%
X158540000Y-106280000D02*
X152000000Y-106280000D01*
X158540000Y-105950000D02*
X158540000Y-106280000D01*
X158540000Y-103870000D02*
X158540000Y-103540000D01*
X158540000Y-103540000D02*
X152000000Y-103540000D01*
X152000000Y-106280000D02*
X152000000Y-105950000D01*
X152000000Y-103540000D02*
X152000000Y-103870000D01*
%TO.C,D2*%
X92950000Y-82890000D02*
X92950000Y-90730000D01*
X92470000Y-82890000D02*
X92950000Y-82890000D01*
X89590000Y-82890000D02*
X89110000Y-82890000D01*
X89110000Y-82890000D02*
X89110000Y-90730000D01*
X92950000Y-84030000D02*
X89110000Y-84030000D01*
X92950000Y-84150000D02*
X89110000Y-84150000D01*
X92950000Y-84270000D02*
X89110000Y-84270000D01*
X92950000Y-90730000D02*
X92470000Y-90730000D01*
X89110000Y-90730000D02*
X89590000Y-90730000D01*
%TO.C,R16*%
X135440000Y-108380000D02*
X128900000Y-108380000D01*
X135440000Y-108050000D02*
X135440000Y-108380000D01*
X135440000Y-105970000D02*
X135440000Y-105640000D01*
X135440000Y-105640000D02*
X128900000Y-105640000D01*
X128900000Y-108380000D02*
X128900000Y-108050000D01*
X128900000Y-105640000D02*
X128900000Y-105970000D01*
%TO.C,D15*%
X104300000Y-120290000D02*
X103650000Y-120290000D01*
X103650000Y-121410000D02*
X103650000Y-119170000D01*
X103650000Y-119170000D02*
X99410000Y-119170000D01*
X103050000Y-121410000D02*
X103050000Y-119170000D01*
X102930000Y-121410000D02*
X102930000Y-119170000D01*
X102810000Y-121410000D02*
X102810000Y-119170000D01*
X99410000Y-121410000D02*
X103650000Y-121410000D01*
X99410000Y-119170000D02*
X99410000Y-121410000D01*
X98760000Y-120290000D02*
X99410000Y-120290000D01*
%TO.C,A1*%
X200340000Y-109150000D02*
X200340000Y-106480000D01*
X200340000Y-103940000D02*
X200340000Y-65710000D01*
X200340000Y-65710000D02*
X195260000Y-65710000D01*
X197670000Y-106480000D02*
X200340000Y-106480000D01*
X197670000Y-103940000D02*
X200340000Y-103940000D01*
X197670000Y-103940000D02*
X197670000Y-106480000D01*
X197670000Y-103940000D02*
X197670000Y-68380000D01*
X197670000Y-68380000D02*
X200340000Y-68380000D01*
X195260000Y-73590000D02*
X187380000Y-73590000D01*
X195260000Y-63170000D02*
X195260000Y-73590000D01*
X187380000Y-73590000D02*
X187380000Y-63170000D01*
X187380000Y-63170000D02*
X195260000Y-63170000D01*
X184970000Y-106480000D02*
X184970000Y-68380000D01*
X184970000Y-106480000D02*
X182300000Y-106480000D01*
X184970000Y-68380000D02*
X182300000Y-68380000D01*
X182300000Y-109150000D02*
X200340000Y-109150000D01*
X182300000Y-65710000D02*
X187380000Y-65710000D01*
X182300000Y-65710000D02*
X182300000Y-109150000D01*
%TO.C,U1*%
X170110000Y-76565000D02*
X170110000Y-86845000D01*
X170110000Y-86845000D02*
X175410000Y-86845000D01*
X171760000Y-76565000D02*
X170110000Y-76565000D01*
X175410000Y-76565000D02*
X173760000Y-76565000D01*
X175410000Y-86845000D02*
X175410000Y-76565000D01*
X171760000Y-76565000D02*
G75*
G03*
X173760000Y-76565000I1000000J0D01*
G01*
%TO.C,R26*%
X175840000Y-118280000D02*
X169300000Y-118280000D01*
X175840000Y-117950000D02*
X175840000Y-118280000D01*
X175840000Y-115870000D02*
X175840000Y-115540000D01*
X175840000Y-115540000D02*
X169300000Y-115540000D01*
X169300000Y-118280000D02*
X169300000Y-117950000D01*
X169300000Y-115540000D02*
X169300000Y-115870000D01*
%TO.C,D9*%
X141800000Y-120190000D02*
X141150000Y-120190000D01*
X141150000Y-121310000D02*
X141150000Y-119070000D01*
X141150000Y-119070000D02*
X136910000Y-119070000D01*
X140550000Y-121310000D02*
X140550000Y-119070000D01*
X140430000Y-121310000D02*
X140430000Y-119070000D01*
X140310000Y-121310000D02*
X140310000Y-119070000D01*
X136910000Y-121310000D02*
X141150000Y-121310000D01*
X136910000Y-119070000D02*
X136910000Y-121310000D01*
X136260000Y-120190000D02*
X136910000Y-120190000D01*
D12*
%TO.C,HS3*%
X121470000Y-63710000D02*
X121470000Y-76410000D01*
X121470000Y-63710000D02*
X130990000Y-63710000D01*
X121470000Y-76410000D02*
X130990000Y-76410000D01*
X130990000Y-63710000D02*
X130990000Y-69275000D01*
X130990000Y-69275000D02*
X146870000Y-69275000D01*
X130990000Y-70845000D02*
X146870000Y-70845000D01*
X130990000Y-76410000D02*
X130990000Y-70845000D01*
X146870000Y-63710000D02*
X146870000Y-69275000D01*
X146870000Y-76410000D02*
X146870000Y-70845000D01*
X156390000Y-63710000D02*
X146870000Y-63710000D01*
X156390000Y-63710000D02*
X156390000Y-76410000D01*
X156390000Y-76410000D02*
X146870000Y-76410000D01*
D11*
%TO.C,R18*%
X135530000Y-95580000D02*
X128990000Y-95580000D01*
X135530000Y-95250000D02*
X135530000Y-95580000D01*
X135530000Y-93170000D02*
X135530000Y-92840000D01*
X135530000Y-92840000D02*
X128990000Y-92840000D01*
X128990000Y-95580000D02*
X128990000Y-95250000D01*
X128990000Y-92840000D02*
X128990000Y-93170000D01*
%TO.C,TP1*%
X93280000Y-96410000D02*
G75*
G03*
X93280000Y-96410000I-1450000J0D01*
G01*
%TO.C,R24*%
X175840000Y-124780000D02*
X169300000Y-124780000D01*
X175840000Y-124450000D02*
X175840000Y-124780000D01*
X175840000Y-122370000D02*
X175840000Y-122040000D01*
X175840000Y-122040000D02*
X169300000Y-122040000D01*
X169300000Y-124780000D02*
X169300000Y-124450000D01*
X169300000Y-122040000D02*
X169300000Y-122370000D01*
%TO.C,R33*%
X108660000Y-103340000D02*
X115200000Y-103340000D01*
X108660000Y-103670000D02*
X108660000Y-103340000D01*
X108660000Y-105750000D02*
X108660000Y-106080000D01*
X108660000Y-106080000D02*
X115200000Y-106080000D01*
X115200000Y-103340000D02*
X115200000Y-103670000D01*
X115200000Y-106080000D02*
X115200000Y-105750000D01*
%TO.C,R15*%
X135440000Y-111580000D02*
X128900000Y-111580000D01*
X135440000Y-111250000D02*
X135440000Y-111580000D01*
X135440000Y-109170000D02*
X135440000Y-108840000D01*
X135440000Y-108840000D02*
X128900000Y-108840000D01*
X128900000Y-111580000D02*
X128900000Y-111250000D01*
X128900000Y-108840000D02*
X128900000Y-109170000D01*
%TO.C,TP3*%
X166620000Y-90810000D02*
G75*
G03*
X166620000Y-90810000I-1450000J0D01*
G01*
%TO.C,D14*%
X98760000Y-117590000D02*
X99410000Y-117590000D01*
X99410000Y-116470000D02*
X99410000Y-118710000D01*
X99410000Y-118710000D02*
X103650000Y-118710000D01*
X100010000Y-116470000D02*
X100010000Y-118710000D01*
X100130000Y-116470000D02*
X100130000Y-118710000D01*
X100250000Y-116470000D02*
X100250000Y-118710000D01*
X103650000Y-116470000D02*
X99410000Y-116470000D01*
X103650000Y-118710000D02*
X103650000Y-116470000D01*
X104300000Y-117590000D02*
X103650000Y-117590000D01*
%TO.C,D8*%
X142040000Y-81310000D02*
X141390000Y-81310000D01*
X141390000Y-82430000D02*
X141390000Y-80190000D01*
X141390000Y-80190000D02*
X137150000Y-80190000D01*
X140790000Y-82430000D02*
X140790000Y-80190000D01*
X140670000Y-82430000D02*
X140670000Y-80190000D01*
X140550000Y-82430000D02*
X140550000Y-80190000D01*
X137150000Y-82430000D02*
X141390000Y-82430000D01*
X137150000Y-80190000D02*
X137150000Y-82430000D01*
X136500000Y-81310000D02*
X137150000Y-81310000D01*
%TO.C,F1*%
X77869120Y-115917056D02*
X76664992Y-115917056D01*
X77869120Y-114097056D02*
X76664992Y-114097056D01*
%TO.C,D11*%
X136260000Y-117490000D02*
X136910000Y-117490000D01*
X136910000Y-116370000D02*
X136910000Y-118610000D01*
X136910000Y-118610000D02*
X141150000Y-118610000D01*
X137510000Y-116370000D02*
X137510000Y-118610000D01*
X137630000Y-116370000D02*
X137630000Y-118610000D01*
X137750000Y-116370000D02*
X137750000Y-118610000D01*
X141150000Y-116370000D02*
X136910000Y-116370000D01*
X141150000Y-118610000D02*
X141150000Y-116370000D01*
X141800000Y-117490000D02*
X141150000Y-117490000D01*
%TO.C,R12*%
X169260000Y-125240000D02*
X175800000Y-125240000D01*
X169260000Y-125570000D02*
X169260000Y-125240000D01*
X169260000Y-127650000D02*
X169260000Y-127980000D01*
X169260000Y-127980000D02*
X175800000Y-127980000D01*
X175800000Y-125240000D02*
X175800000Y-125570000D01*
X175800000Y-127980000D02*
X175800000Y-127650000D01*
%TO.C,Q1*%
X133910000Y-71765000D02*
X133910000Y-76406000D01*
X133910000Y-71765000D02*
X144150000Y-71765000D01*
X133910000Y-73275000D02*
X144150000Y-73275000D01*
X133910000Y-76406000D02*
X144150000Y-76406000D01*
X137180000Y-71765000D02*
X137180000Y-73275000D01*
X140881000Y-71765000D02*
X140881000Y-73275000D01*
X144150000Y-71765000D02*
X144150000Y-76406000D01*
%TO.C,R4*%
X142540000Y-79680000D02*
X136000000Y-79680000D01*
X142540000Y-79350000D02*
X142540000Y-79680000D01*
X142540000Y-77270000D02*
X142540000Y-76940000D01*
X142540000Y-76940000D02*
X136000000Y-76940000D01*
X136000000Y-79680000D02*
X136000000Y-79350000D01*
X136000000Y-76940000D02*
X136000000Y-77270000D01*
%TO.C,R31*%
X142300000Y-125560000D02*
X135760000Y-125560000D01*
X142300000Y-125230000D02*
X142300000Y-125560000D01*
X142300000Y-123150000D02*
X142300000Y-122820000D01*
X142300000Y-122820000D02*
X135760000Y-122820000D01*
X135760000Y-125560000D02*
X135760000Y-125230000D01*
X135760000Y-122820000D02*
X135760000Y-123150000D01*
%TO.C,R37*%
X143980000Y-97632936D02*
X143980000Y-101987064D01*
X140560000Y-97632936D02*
X140560000Y-101987064D01*
%TO.C,C7*%
X134110000Y-89200000D02*
X134110000Y-88755000D01*
X134110000Y-89200000D02*
X127870000Y-89200000D01*
X134110000Y-86905000D02*
X134110000Y-86460000D01*
X134110000Y-86460000D02*
X127870000Y-86460000D01*
X127870000Y-89200000D02*
X127870000Y-88755000D01*
X127870000Y-86905000D02*
X127870000Y-86460000D01*
%TO.C,R6*%
X115210000Y-99380000D02*
X108670000Y-99380000D01*
X115210000Y-99050000D02*
X115210000Y-99380000D01*
X115210000Y-96970000D02*
X115210000Y-96640000D01*
X115210000Y-96640000D02*
X108670000Y-96640000D01*
X108670000Y-99380000D02*
X108670000Y-99050000D01*
X108670000Y-96640000D02*
X108670000Y-96970000D01*
%TO.C,D16*%
X87710000Y-119810000D02*
X86690000Y-119810000D01*
X86690000Y-121280000D02*
X86690000Y-118340000D01*
X86690000Y-118340000D02*
X81250000Y-118340000D01*
X85910000Y-121280000D02*
X85910000Y-118340000D01*
X85790000Y-121280000D02*
X85790000Y-118340000D01*
X85670000Y-121280000D02*
X85670000Y-118340000D01*
X81250000Y-121280000D02*
X86690000Y-121280000D01*
X81250000Y-118340000D02*
X81250000Y-121280000D01*
X80230000Y-119810000D02*
X81250000Y-119810000D01*
%TO.C,C8*%
X122850000Y-115240000D02*
X122850000Y-115685000D01*
X122850000Y-115240000D02*
X129090000Y-115240000D01*
X122850000Y-117535000D02*
X122850000Y-117980000D01*
X122850000Y-117980000D02*
X129090000Y-117980000D01*
X129090000Y-115240000D02*
X129090000Y-115685000D01*
X129090000Y-117535000D02*
X129090000Y-117980000D01*
%TO.C,R2*%
X108660000Y-109820000D02*
X115200000Y-109820000D01*
X108660000Y-110150000D02*
X108660000Y-109820000D01*
X108660000Y-112230000D02*
X108660000Y-112560000D01*
X108660000Y-112560000D02*
X115200000Y-112560000D01*
X115200000Y-109820000D02*
X115200000Y-110150000D01*
X115200000Y-112560000D02*
X115200000Y-112230000D01*
%TO.C,D1*%
X89910000Y-110930000D02*
X89910000Y-103090000D01*
X90390000Y-110930000D02*
X89910000Y-110930000D01*
X93270000Y-110930000D02*
X93750000Y-110930000D01*
X93750000Y-110930000D02*
X93750000Y-103090000D01*
X89910000Y-109790000D02*
X93750000Y-109790000D01*
X89910000Y-109670000D02*
X93750000Y-109670000D01*
X89910000Y-109550000D02*
X93750000Y-109550000D01*
X89910000Y-103090000D02*
X90390000Y-103090000D01*
X93750000Y-103090000D02*
X93270000Y-103090000D01*
%TO.C,TP4*%
X165620000Y-101610000D02*
G75*
G03*
X165620000Y-101610000I-1450000J0D01*
G01*
%TO.C,R21*%
X152000000Y-83240000D02*
X158540000Y-83240000D01*
X152000000Y-83570000D02*
X152000000Y-83240000D01*
X152000000Y-85650000D02*
X152000000Y-85980000D01*
X152000000Y-85980000D02*
X158540000Y-85980000D01*
X158540000Y-83240000D02*
X158540000Y-83570000D01*
X158540000Y-85980000D02*
X158540000Y-85650000D01*
%TO.C,R5*%
X152000000Y-100240000D02*
X158540000Y-100240000D01*
X152000000Y-100570000D02*
X152000000Y-100240000D01*
X152000000Y-102650000D02*
X152000000Y-102980000D01*
X152000000Y-102980000D02*
X158540000Y-102980000D01*
X158540000Y-100240000D02*
X158540000Y-100570000D01*
X158540000Y-102980000D02*
X158540000Y-102650000D01*
%TO.C,J2*%
X74807056Y-102122056D02*
X74067056Y-102122056D01*
X74067056Y-102122056D02*
X74067056Y-102622056D01*
X84228056Y-102362056D02*
X74307056Y-102362056D01*
X84228056Y-102362056D02*
X84228056Y-112642056D01*
X81268056Y-102362056D02*
X81268056Y-112642056D01*
X76367056Y-102362056D02*
X76367056Y-112642056D01*
X74867056Y-102362056D02*
X74867056Y-112642056D01*
X74307056Y-102362056D02*
X74307056Y-112642056D01*
X77944056Y-108815056D02*
X77898056Y-108768056D01*
X77728056Y-109008056D02*
X77693056Y-108973056D01*
X80242056Y-111112056D02*
X80206056Y-111077056D01*
X80036056Y-111317056D02*
X79990056Y-111270056D01*
X84228056Y-112642056D02*
X74307056Y-112642056D01*
X79651055Y-103427057D02*
G75*
G03*
X78284014Y-103426630I-684000J-1534992D01*
G01*
X80502055Y-105646055D02*
G75*
G03*
X80502482Y-104279014I-1534992J684000D01*
G01*
X77432057Y-104278056D02*
G75*
G03*
X77286804Y-104990861I1535000J-683999D01*
G01*
X77287057Y-104962056D02*
G75*
G03*
X77432301Y-105645374I1679999J0D01*
G01*
X78283056Y-106497056D02*
G75*
G03*
X79650098Y-106497482I684000J1535000D01*
G01*
X80647056Y-110042056D02*
G75*
G03*
X80647056Y-110042056I-1680000J0D01*
G01*
%TO.C,R35*%
X104800000Y-125660000D02*
X98260000Y-125660000D01*
X104800000Y-125330000D02*
X104800000Y-125660000D01*
X104800000Y-123250000D02*
X104800000Y-122920000D01*
X104800000Y-122920000D02*
X98260000Y-122920000D01*
X98260000Y-125660000D02*
X98260000Y-125330000D01*
X98260000Y-122920000D02*
X98260000Y-123250000D01*
%TO.C,R11*%
X169260000Y-128440000D02*
X175800000Y-128440000D01*
X169260000Y-128770000D02*
X169260000Y-128440000D01*
X169260000Y-130850000D02*
X169260000Y-131180000D01*
X169260000Y-131180000D02*
X175800000Y-131180000D01*
X175800000Y-128440000D02*
X175800000Y-128770000D01*
X175800000Y-131180000D02*
X175800000Y-130850000D01*
%TO.C,C5*%
X168230000Y-73225000D02*
X168230000Y-73670000D01*
X168230000Y-73225000D02*
X174470000Y-73225000D01*
X168230000Y-75520000D02*
X168230000Y-75965000D01*
X168230000Y-75965000D02*
X174470000Y-75965000D01*
X174470000Y-73225000D02*
X174470000Y-73670000D01*
X174470000Y-75520000D02*
X174470000Y-75965000D01*
%TO.C,R22*%
X158540000Y-89180000D02*
X152000000Y-89180000D01*
X158540000Y-88850000D02*
X158540000Y-89180000D01*
X158540000Y-86770000D02*
X158540000Y-86440000D01*
X158540000Y-86440000D02*
X152000000Y-86440000D01*
X152000000Y-89180000D02*
X152000000Y-88850000D01*
X152000000Y-86440000D02*
X152000000Y-86770000D01*
%TO.C,Q4*%
X106690000Y-130840000D02*
X106690000Y-126199000D01*
X106690000Y-130840000D02*
X96450000Y-130840000D01*
X106690000Y-129330000D02*
X96450000Y-129330000D01*
X106690000Y-126199000D02*
X96450000Y-126199000D01*
X103420000Y-130840000D02*
X103420000Y-129330000D01*
X99719000Y-130840000D02*
X99719000Y-129330000D01*
X96450000Y-130840000D02*
X96450000Y-126199000D01*
%TD*%
M02*
